<?xml version="1.0" encoding="utf-8"?>
<!-- Generator: Adobe Illustrator 25.3.1, SVG Export Plug-In . SVG Version: 6.00 Build 0)  -->
<svg version="1.1" id="Layer_1" xmlns="http://www.w3.org/2000/svg" xmlns:xlink="http://www.w3.org/1999/xlink" x="0px" y="0px"
	 viewBox="0 0 115 126" style="enable-background:new 0 0 115 126;" xml:space="preserve">
<style type="text/css">
	.st0{fill:#FFFFFF;}
</style>
<path class="st0" d="M56.2,125.7L56.2,125.7l-1.2-0.1v-0.1h-0.8v-0.1h-0.4v-0.1h-0.4v-0.1H53v-0.1h-0.4v-0.1h-0.4v-0.1h-0.4V125
	h-0.3v-0.1h-0.2v-0.1h-0.2v-0.1h-0.2v-0.1h-0.2v-0.1h-0.2v-0.1h-0.2v-0.1h-0.2v-0.1h-0.2v-0.1h-0.2v-0.1h-0.2v-0.1H49v-0.1h-0.2V124
	h-0.2v-0.1h-0.2v-0.1h-0.2v-0.1h-0.2v-0.1H48v-0.1h-0.2v-0.1h-0.2v-0.1h-0.2v-0.1h-0.2v-0.1h-0.2v-0.1H47v-0.1h-0.2v-0.1h-0.2V123
	h-0.2v-0.1h-0.2v-0.1h-0.1v-0.1h-0.2v-0.1H46v-0.1h-0.1v-0.1h-0.2v-0.1h-0.2v-0.1h-0.2v-0.1h-0.1v-0.1h-0.2v-0.1H45v-0.1H45V122
	h-0.2v-0.1h-0.1v-0.1h-0.2v-0.1h-0.1v-0.1h-0.2v-0.1h-0.1v-0.1h-0.2v-0.1H44v-0.1h-0.2v-0.1h-0.1v-0.1h-0.1v-0.1h-0.1v-0.1h-0.2V121
	h-0.1v-0.1h-0.1v-0.1h-0.2v-0.1h-0.1v-0.1H43v-0.1h-0.1v-0.1h-0.2v-0.1h-0.1v-0.1h-0.1v-0.1h-0.1v-0.1h-0.1v-0.1h-0.1v-0.1h-0.1V120
	h-0.1v-0.1h-0.1v-0.1H42v-0.1h-0.1v-0.1h-0.1v-0.1h-0.1v-0.1h-0.1v-0.1h-0.1v-0.1h-0.1v-0.1h-0.1v-0.1h-0.1v-0.1h-0.1V119h-0.1V119
	h-0.1v-0.2h-0.1v-0.1H41v-0.1h-0.1v-0.1h-0.1v-0.1h-0.1v-0.1h-0.1v-0.1h-0.1v-0.1h-0.1v-0.2h-0.1V118h-0.1V118h-0.1v-0.1h-0.1v-0.2
	h-0.1v-0.1h-0.1v-0.1H40v-0.2h-0.1v-0.1h-0.1v-0.1h-0.1v-0.2h-0.1V117h-0.1v-0.1h-0.1v-0.2h-0.1v-0.1h-0.1v-0.2h-0.1v-0.1h-0.1v-0.2
	h-0.1v-0.2h-0.1v-0.1H39v-0.2h-0.1v-0.1h-0.1v-0.2h-0.1v-0.2h-0.1v-0.1h-0.1v-0.2h-0.1v-0.2h-0.1V115h-0.1v-0.2h-0.1v-0.2h-0.1v-0.2
	h-0.1v-0.2h-0.1v-0.2H38v-0.2h-0.1v-0.2h-0.1v-0.2h-0.1v-0.2h-0.1v-0.2h-0.1v-0.2h-0.1v-0.2h-0.1v-0.2h-0.1v-0.2h-0.1v-0.2h-0.1
	v-0.2h-0.1v-0.2H37v-0.3H37v-0.2h-0.1V111h-0.1v-0.3h-0.1v-0.4h-0.1V110h-0.1v-0.4h-0.1v-0.4h-0.1v-0.7h-0.1v-0.6h-0.1v-3h0.1V104
	h0.1v-0.5h0.1V103h0.1v-0.5h0.1v-0.3h0.1v-0.3h0.1v-0.3h0.1v-0.3H37V101H37v-0.2h0.1v-0.2h0.1v-0.2h0.1v-0.2h0.1v-0.2h0.1v-0.2h0.1
	v-0.2h0.1v-0.2h0.1v-0.2h0.1v-0.2h0.1v-0.2h0.1v-0.2H38v-0.2h0.1v-0.2h0.1v-0.2h0.1v-0.2h0.1v-0.2h0.1v-0.2h0.1v-0.2h0.1v-0.2h0.1
	v-0.2h0.1v-0.2h0.1v-0.2h0.1V96h0.1v-0.2H39v-0.2h0.1v-0.2h0.1v-0.2h0.1v-0.2h0.1v-0.2h0.1v-0.2h0.1v-0.2h0.1v-0.2h0.1v-0.2h0.1
	v-0.2h0.1v-0.2h0.1v-0.2h0.1v-0.2H40v-0.2h0.1v-0.2h0.1v-0.2h0.1v-0.2h0.1v-0.2h0.1v-0.2h0.1v-0.2h0.1v-0.2h0.1v-0.2h0.1v-0.2h0.1
	v-0.2h0.1v-0.2h0.1v-0.2H41v-0.2h0.1v-0.2h0.1v-0.2h0.1v-0.2h0.1v-0.2h0.1v-0.2h0.1v-0.2h0.1v-0.2h0.1V89h0.1v-0.2h0.1v-0.2h0.1
	v-0.2h0.1v-0.2H42V88h0.1v-0.2h0.1v-0.2h0.1v-0.2h0.1v-0.2h0.1V87h0.1v-0.2h0.1v-0.2h0.1v-0.2h0.1v-0.2h0.1v-0.2h0.1v-0.2h0.1v-0.2
	H43v-0.2h0.1v-0.2h0.1v-0.2h0.1v-0.2h0.1v-0.2h0.1v-0.2h0.1v-0.2h0.1V84h0.1v-0.2h0.1v-0.2h0.1v-0.2h0.1v-0.2H44V83H44v-0.2h0.1
	v-0.2h0.1v-0.2h0.1v-0.2h0.1V82h0.1v-0.2h0.1v-0.2h0.1v-0.2h0.1v-0.2h0.1V81h0.1v-0.2h0.1v-0.2H45v-0.2H45v-0.2h0.1V80h0.1v-0.2h0.1
	v-0.2h0.1v-0.2h0.1v-0.2h0.1V79h0.1v-0.2h0.1v-0.2h0.1v-0.2h0.1v-0.2h0.1V78H46v-0.2h0.1v-0.2h0.1v-0.2h0.1v-0.2h0.1V77h0.1v-0.2
	h0.1v-0.2h0.1v-0.2h0.1v-0.2h0.1v-0.2h0.1v-0.2h0.1v-0.2h0.1v-0.2H47v-0.2h0.1v-0.2h0.1v-0.2h0.1v-0.2h0.1v-0.2h0.1v-0.2h0.1v-0.2
	h0.1v-0.2h0.1v-0.2h0.1v-0.2h0.1v-0.2h0.1V73h0.1v-0.2H48v-0.2h0.1v-0.2h0.1v-0.2h0.1v-0.2h0.1v-0.2h0.1v-0.2h0.1v-0.2h0.1v-0.2h0.1
	v-0.2h0.1v-0.2h0.1v-0.2h0.1v-0.2h0.1v-0.2H49v-0.2h0.1v-0.2h0.1v-0.2h0.1v-0.2h0.1v-0.2h0.1v-0.2h0.1v-0.2h0.1v-0.2h0.1v-0.2h0.1
	v-0.2h0.1v-0.2h0.1v-0.2h0.1v-0.2H50v-0.2h0.1v-0.2h0.1v-0.2h0.1v-0.2h0.1v-0.2h0.1v-0.2h0.1v-0.2h0.1v-0.2h0.1V66h0.1v-0.2h0.1
	v-0.2h0.1v-0.2h0.1v-0.2H51V65h0.1v-0.2h0.1v-0.2h0.1v-0.2h0.1v-0.2h0.1V64h0.1v-0.2h0.1v-0.2h0.1v-0.2h0.1v-0.2h0.1v-0.2h0.1v-0.2
	H52v-0.2H52v-0.2h0.1v-0.2h0.1V62h0.1v-0.2h0.1v-0.2h0.1v-0.2h0.1v-0.2h0.1V61h0.1v-0.2h0.1v-0.2h0.1v-0.2h0.1v-0.2H53V60H53v-0.2
	h0.1v-0.2h0.1v-0.2h0.1v-0.2h0.1V59h0.1v-0.2h0.1v-0.2h0.1v-0.2h0.1v-0.2h0.1V58h0.1v-0.2h0.1v-0.2H54v-0.2h0.1v-0.2h0.1V57h0.1
	v-0.2h0.1v-0.2h0.1v-0.2h0.1v-0.2h0.1V56h0.1v-0.2h0.1v-0.2h0.1v-0.2h0.1v-0.2h0.1V55H55v-0.2h0.1v-0.2h0.1v-0.2h0.1v-0.2h0.1V54
	h0.1v-0.2h0.1v-0.2h0.1v-0.2h0.1v-0.2h0.1v-0.2h0.1v-0.2h0.1v-0.2h0.1v-0.2H56v-0.2h0.1v-0.2h0.1v-0.2h0.1v-0.2h0.1v-0.2h0.1v-0.2
	h0.1v-0.2h0.1v-0.2h0.1v-0.2h0.1v-0.2h0.1v-0.2h0.1V50h0.1v-0.2H57v-0.2h0.1v0.1h0.1V50h0.1v0.2h0.1v0.2h0.1v0.2h0.1v0.2h0.1v0.2
	h0.1v0.2h0.1v0.2h0.1v0.2h0.1v0.2h0.1v0.2H58v0.2h0.1v0.2h0.1v0.2h0.1v0.2h0.1v0.2h0.1v0.2h0.1v0.2h0.1v0.2h0.1v0.2h0.1v0.2h0.1v0.2
	h0.1v0.2h0.1v0.2H59v0.2h0.1V55h0.1v0.2h0.1v0.2h0.1v0.2h0.1v0.2h0.1V56h0.1v0.2h0.1v0.2h0.1v0.2h0.1v0.2h0.1V57H60v0.2H60v0.2h0.1
	v0.2h0.1v0.2h0.1V58h0.1v0.2h0.1v0.2h0.1v0.2h0.1v0.2h0.1v0.2h0.1v0.2h0.1v0.2h0.1v0.2H61v0.2H61v0.2h0.1v0.2h0.1v0.2h0.1v0.2h0.1
	v0.2h0.1v0.2h0.1v0.2h0.1v0.2h0.1v0.2h0.1v0.2h0.1v0.2h0.1v0.2H62v0.2h0.1v0.2h0.1v0.2h0.1v0.2h0.1v0.2h0.1v0.2h0.1v0.2h0.1v0.2h0.1
	v0.2h0.1v0.2h0.1v0.2h0.1v0.2h0.1v0.2H63v0.2h0.1v0.2h0.1v0.2h0.1v0.2h0.1v0.2h0.1v0.2h0.1v0.2h0.1v0.2h0.1v0.2h0.1v0.2h0.1v0.2h0.1
	v0.2h0.1v0.2H64v0.2h0.1v0.2h0.1v0.2h0.1v0.2h0.1v0.2h0.1v0.2h0.1v0.2h0.1v0.2h0.1v0.2h0.1v0.2h0.1v0.2h0.1v0.2h0.1v0.2H65v0.2h0.1
	v0.2h0.1v0.2h0.1v0.2h0.1v0.2h0.1v0.2h0.1v0.2h0.1v0.2h0.1V72h0.1v0.2h0.1v0.2h0.1v0.2h0.1v0.2H66V73h0.1v0.2h0.1v0.2h0.1v0.2h0.1
	v0.2h0.1V74h0.1v0.2h0.1v0.2h0.1v0.2h0.1v0.2h0.1V75h0.1v0.2h0.1v0.2H67v0.2h0.1v0.2h0.1V76h0.1v0.2h0.1v0.2h0.1v0.2h0.1v0.2h0.1V77
	h0.1v0.2h0.1v0.2h0.1v0.2h0.1v0.2H68V78H68v0.2h0.1v0.2h0.1v0.2h0.1v0.2h0.1V79h0.1v0.2h0.1v0.2h0.1v0.2h0.1v0.2h0.1V80h0.1v0.2h0.1
	v0.2H69v0.2H69v0.2h0.1V81h0.1v0.2h0.1v0.2h0.1v0.2h0.1v0.2h0.1v0.2h0.1v0.2h0.1v0.2h0.1v0.2h0.1v0.2h0.1V83H70v0.2h0.1v0.2h0.1v0.2
	h0.1v0.2h0.1V84h0.1v0.2h0.1v0.2h0.1v0.2h0.1v0.2h0.1V85h0.1v0.2h0.1v0.2h0.1v0.2H71v0.2h0.1V86h0.1v0.2h0.1v0.2h0.1v0.2h0.1v0.2
	h0.1V87h0.1v0.2h0.1v0.2h0.1v0.2h0.1v0.2h0.1V88h0.1v0.2H72v0.2h0.1v0.2h0.1v0.2h0.1V89h0.1v0.2h0.1v0.2h0.1v0.2h0.1v0.2h0.1v0.2
	h0.1v0.2h0.1v0.2h0.1v0.2h0.1v0.2H73v0.2h0.1v0.2h0.1v0.2h0.1v0.2h0.1v0.2h0.1v0.2h0.1v0.2h0.1v0.2h0.1v0.2h0.1v0.2h0.1v0.2h0.1v0.2
	h0.1v0.2H74v0.2h0.1v0.2h0.1v0.2h0.1v0.2h0.1v0.2h0.1v0.2h0.1v0.2h0.1v0.2h0.1v0.2h0.1v0.2h0.1v0.2h0.1v0.2h0.1v0.2H75v0.2h0.1v0.2
	h0.1v0.2h0.1v0.2h0.1v0.2h0.1v0.2h0.1v0.2h0.1v0.2h0.1v0.2h0.1v0.2h0.1v0.2h0.1v0.2H76v0.2H76v0.2h0.1v0.2h0.1v0.2h0.1v0.2h0.1v0.2
	h0.1v0.2h0.1v0.2h0.1v0.2h0.1v0.2h0.1v0.2h0.1v0.3h0.1v0.2H77v0.2H77v0.3h0.1v0.3h0.1v0.3h0.1v0.3h0.1v0.4h0.1v0.5h0.1v0.5h0.1v0.5
	h0.1v1.2h0.1v1.6h-0.1v1.1h-0.1v0.7h-0.1v0.5h-0.1v0.4h-0.1v0.4h-0.1v0.3h-0.1v0.4h-0.1v0.2H77v0.3H77v0.2h-0.1v0.2h-0.1v0.2h-0.1
	v0.3h-0.1v0.2h-0.1v0.2h-0.1v0.2h-0.1v0.2h-0.1v0.2h-0.1v0.2h-0.1v0.2h-0.1v0.2H76v0.2H76v0.2h-0.1v0.2h-0.1v0.2h-0.1v0.2h-0.1v0.2
	h-0.1v0.1h-0.1v0.2h-0.1v0.2h-0.1v0.2h-0.1v0.2h-0.1v0.1h-0.1v0.2H75v0.2h-0.1v0.1h-0.1v0.2h-0.1v0.1h-0.1v0.2h-0.1v0.2h-0.1v0.1
	h-0.1v0.2h-0.1v0.1h-0.1v0.1h-0.1v0.2h-0.1v0.1h-0.1v0.1H74v0.2h-0.1v0.1h-0.1v0.1h-0.1v0.2h-0.1v0.1h-0.1v0.1h-0.1v0.2h-0.1v0.1
	h-0.1v0.1h-0.1v0.1h-0.1v0.1h-0.1v0.1h-0.1v0.1H73v0.1h-0.1v0.1h-0.1v0.2h-0.1v0.1h-0.1v0.1h-0.1v0.1h-0.1v0.1h-0.1v0.1h-0.1v0.1
	h-0.1v0.1h-0.1v0.1h-0.1v0.1h-0.1v0.1H72v0.1h-0.1v0.1h-0.1v0.1h-0.2v0.1h-0.1v0.1h-0.1v0.1h-0.1v0.1h-0.1v0.1h-0.1v0.1h-0.1v0.1
	h-0.1v0.1H71v0.1h-0.1v0.1h-0.1v0.1h-0.2v0.1h-0.1v0.1h-0.1v0.1h-0.1v0.1h-0.2v0.1h-0.1v0.1h-0.1v0.1H70v0.1h-0.1v0.1h-0.1v0.1h-0.2
	v0.1h-0.1v0.1h-0.2v0.1h-0.1v0.1h-0.2v0.1h-0.1v0.1H69v0.1h-0.1v0.1h-0.2v0.1h-0.2v0.1h-0.2v0.1h-0.1v0.1h-0.2v0.1H68v0.1h-0.2v0.1
	h-0.2v0.1h-0.2v0.1h-0.2v0.1h-0.2v0.1h-0.2v0.1h-0.2v0.1h-0.2v0.1h-0.2v0.1h-0.2v0.1h-0.2v0.1h-0.2v0.1h-0.2v0.1h-0.2v0.1h-0.2v0.1
	h-0.2v0.1H65v0.1h-0.2v0.1h-0.2v0.1h-0.2v0.1h-0.2v0.1h-0.2v0.1h-0.2v0.1h-0.2v0.1h-0.2v0.1h-0.3v0.1h-0.4v0.1h-0.4v0.1h-0.4v0.1
	h-0.4v0.1h-0.4v0.1h-0.4v0.1h-0.8v0.1h-1.2v0.1"/>
<path class="st0" d="M8.1,96.3L8.1,96.3l-1-0.1v-0.1H6.7V96H6.2V96H6.1v-0.1H5.8v-0.1H5.6v-0.1H5.4v-0.1H5.2v-0.1H5v-0.1H4.9v-0.1
	H4.7v-0.1H4.6v-0.1H4.4v-0.1H4.3v-0.1H4.3V95H4.1V95H4v-0.1H3.9v-0.1H3.8v-0.1H3.7v-0.1H3.7v-0.1H3.6v-0.1H3.5v-0.1H3.3v-0.1H3.3
	v-0.1H3.2v-0.1H3.1v-0.1H3V94H3v-0.2H2.9v-0.1H2.8v-0.1H2.7v-0.2H2.6v-0.1H2.6v-0.1H2.5v-0.2H2.4v-0.1H2.3V93H2.3v-0.2H2.2v-0.1H2.1
	v-0.2H2v-0.2H1.9v-0.2H1.9v-0.2H1.8v-0.2H1.7v-0.2H1.6v-0.2H1.6v-0.2H1.5v-0.2H1.4v-0.2H1.3v-0.2H1.2v-0.2H1.2v-0.2H1.1v-0.2H1v-0.2
	H0.9v-0.3H0.9v-0.3H0.8v-0.3H0.7v-0.2H0.6v-0.3H0.5V88H0.5v-0.3H0.4v-0.5H0.3v-0.5H0.2v-0.5H0.2v-0.5H0.1v-0.9H0V40.8h0.1V40h0.1
	v-0.6h0.1v-0.5h0.1v-0.5h0.1v-0.4h0.1v-0.4h0.1v-0.3h0.1v-0.3h0.1v-0.3h0.1v-0.2h0.1v-0.3h0.1V36H1v-0.2h0.1v-0.3h0.1v-0.2h0.1V35
	h0.1v-0.2h0.1v-0.2h0.1v-0.2h0.1v-0.2h0.1V34h0.1v-0.2h0.1v-0.2h0.1v-0.2h0.1v-0.2H2v-0.2h0.1V33h0.1v-0.2h0.1v-0.2h0.1v-0.2h0.1
	v-0.1h0.1v-0.2h0.1v-0.2h0.1v-0.2h0.1v-0.2h0.1v-0.2h0.1v-0.2H3v-0.1H3v-0.2h0.1v-0.2h0.1V31h0.1v-0.2h0.1v-0.1h0.1v-0.2h0.1v-0.2
	h0.1v-0.1h0.1v-0.2h0.1v-0.1h0.1V30h0.1v-0.1H4v-0.2H4v-0.1h0.1v-0.1h0.1v-0.2h0.1v-0.1h0.1v-0.1h0.1v-0.2h0.1v-0.1h0.1V29h0.1v-0.2
	h0.1v-0.1h0.1v-0.1h0.1v-0.1H5v-0.2H5v-0.1h0.1v-0.1h0.1v-0.1h0.1v-0.2h0.1V28h0.1v-0.1h0.1v-0.1h0.1v-0.1h0.1v-0.1h0.1v-0.1h0.1
	v-0.1h0.1v-0.1H6v-0.1h0.1v-0.1h0.1v-0.2h0.1V27h0.1V27h0.1v-0.1h0.1v-0.1h0.1v-0.1h0.1v-0.1h0.1v-0.1h0.1v-0.1h0.2v-0.1H7v-0.1h0.1
	v-0.1h0.1v-0.1h0.1v-0.1h0.1V26h0.1V26h0.1v-0.1h0.1v-0.1h0.1v-0.1h0.2v-0.1h0.1v-0.1h0.1v-0.1H8v-0.1h0.1v-0.1h0.2v-0.1h0.1v-0.1
	h0.1v-0.1h0.1V25h0.1v-0.1h0.2v-0.1h0.1v-0.1h0.2v-0.1H9v-0.1h0.1v-0.1h0.2v-0.1h0.1v-0.1h0.2v-0.1h0.1v-0.1h0.1v-0.1h0.2v-0.1h0.1
	V24H10v-0.1h0.1v-0.1h0.2v-0.1h0.2v-0.1h0.1v-0.1h0.2v-0.1h0.1v-0.1h0.2v-0.1H11v-0.1h0.1v-0.1h0.2v-0.1h0.2v-0.1h0.2V23h0.1v-0.1
	h0.2v-0.1H12v-0.1h0.2v-0.1h0.1v-0.1h0.2v-0.1h0.2v-0.1h0.1v-0.1h0.2v-0.1h0.2v-0.1H13v-0.1h0.1v-0.1h0.2V22h0.2v-0.1h0.2v-0.1h0.1
	v-0.1h0.2v-0.1H14v-0.1h0.2v-0.1h0.1v-0.1h0.2v-0.1h0.2v-0.1h0.1v-0.1h0.2v-0.1h0.2v-0.1h0.2V21h0.1v-0.1h0.2v-0.1h0.2v-0.1h0.2
	v-0.1h0.1v-0.1h0.2v-0.1H16v-0.1h0.1v-0.1h0.2v-0.1h0.2v-0.1h0.2v-0.1h0.1V20h0.2V20h0.2v-0.1h0.2v-0.1h0.1v-0.1h0.2v-0.1h0.2v-0.1
	h0.2v-0.1h0.1v-0.1h0.2v-0.1H18v-0.1h0.1v-0.1h0.2v-0.1h0.2V19h0.2V19h0.1v-0.1h0.2v-0.1H19v-0.1h0.2v-0.1h0.1v-0.1h0.2v-0.1h0.2
	v-0.1h0.2v-0.1h0.1v-0.1h0.2v-0.1H20v-0.1h0.1V18h0.2v-0.1h0.2v-0.1h0.2v-0.1h0.1v-0.1h0.2v-0.1H21v-0.1h0.2v-0.1h0.1v-0.1h0.2v-0.1
	h0.2v-0.1h0.1v-0.1h0.2v-0.1h0.2V17h0.2v-0.1h0.1v-0.1h0.2v-0.1h0.2v-0.1h0.2v-0.1h0.1v-0.1h0.2v-0.1H23v-0.1h0.2v-0.1h0.1v-0.1h0.2
	v-0.1h0.2v-0.1h0.1V16h0.2v-0.1h0.2v-0.1h0.2v-0.1h0.1v-0.1h0.2v-0.1h0.2v-0.1h0.2v-0.1h0.1v-0.1h0.2v-0.1H25v-0.1h0.2v-0.1h0.1
	v-0.1h0.2V15h0.2v-0.1h0.1v-0.1h0.2v-0.1h0.2v-0.1h0.2v-0.1h0.1v-0.1h0.2v-0.1h0.2v-0.1h0.2v-0.1h0.1v-0.1h0.2v-0.1H27v-0.1h0.2V14
	h0.1v-0.1h0.2v-0.1h0.2v-0.1h0.1v-0.1h0.2v-0.1H28v-0.1h0.2v-0.1h0.1v-0.1h0.2v-0.1h0.2v-0.1h0.2v-0.1h0.1v-0.1h0.2V13H29v-0.1h0.1
	v-0.1h0.2v-0.1h0.2v-0.1h0.2v-0.1h0.1v-0.1h0.2v-0.1H30v-0.1h0.2v-0.1h0.1v-0.1h0.2v-0.1h0.2V12h0.2V12h0.1v-0.1h0.2v-0.1h0.2v-0.1
	h0.1v-0.1h0.2v-0.1h0.2v-0.1h0.2v-0.1h0.1v-0.1h0.2v-0.1H32v-0.1h0.2v-0.1h0.1V11h0.2V11h0.2v-0.1h0.2v-0.1h0.1v-0.1h0.2v-0.1h0.2
	v-0.1h0.1v-0.1h0.2v-0.1h0.2v-0.1h0.2v-0.1h0.1v-0.1h0.2v-0.1H34V10h0.2V9.9h0.1V9.9h0.2V9.8h0.2V9.7h0.2V9.6h0.1V9.6H35V9.5h0.2
	V9.4h0.1V9.3h0.2V9.2h0.2V9.2h0.2V9.1h0.1V9h0.2V8.9H36V8.9h0.2V8.8h0.1V8.7h0.2V8.6h0.2V8.5h0.1V8.5h0.2V8.4H37V8.3h0.2V8.2h0.1
	V8.2h0.2V8.1h0.2V8h0.2V7.9h0.1V7.8h0.2V7.8h0.2V7.7h0.2V7.6h0.1V7.5h0.2V7.5h0.2V7.4h0.1V7.3h0.2V7.2H39V7.1h0.2V7.1h0.1V7h0.2V6.9
	h0.2V6.8h0.2V6.8h0.1V6.7h0.2V6.6h0.2V6.5h0.2V6.4h0.1V6.4h0.2V6.3h0.2V6.2h0.1V6.1h0.2V6.1H41V6h0.2V5.9h0.1V5.8h0.2V5.8h0.2V5.7
	h0.2V5.6h0.1V5.5h0.2V5.4h0.2V5.4h0.2V5.3h0.1V5.2h0.2V5.1h0.2V5.1h0.1V5h0.2V4.9H43V4.8h0.2V4.7h0.1V4.7h0.2V4.6h0.2V4.5h0.2V4.4
	h0.1V4.4H44V4.3h0.2V4.2h0.1V4.1h0.2V4h0.2V4h0.2V3.9h0.1V3.8h0.2V3.7H45V3.7h0.2V3.6h0.1V3.5h0.2V3.4h0.2V3.3h0.2V3.3h0.1V3.2H46
	V3.1h0.2V3h0.1V3h0.2V2.9h0.2V2.8h0.2V2.7h0.1V2.6h0.2V2.6h0.2V2.5h0.2V2.4h0.2V2.3h0.2V2.3h0.2V2.2h0.2V2.1h0.2V2h0.2V1.9h0.2V1.9
	h0.2V1.8h0.2V1.7h0.2V1.6h0.2V1.6h0.2V1.5h0.2V1.4h0.2V1.3h0.2V1.2h0.2V1.2h0.2V1.1h0.2V1H51V0.9h0.2V0.9h0.2V0.8h0.3V0.7h0.4V0.6
	h0.4V0.5H53V0.5h0.4V0.4h0.4V0.3h0.5V0.2h0.5V0.2h0.9V0.1h0.9V0h1.6v0.1h0.9v0.1H60v0.1h0.5v0.1H61v0.1h0.4v0.1h0.4v0.1h0.4v0.1h0.4
	v0.1h0.4v0.1h0.3v0.1h0.2v0.1h0.2V1h0.2v0.1h0.2v0.1h0.2v0.1h0.2v0.1h0.2v0.1h0.2v0.1h0.2v0.1h0.2v0.1h0.2v0.1h0.2v0.1h0.2v0.1h0.2
	v0.1h0.2V2h0.2v0.1h0.2v0.1h0.2v0.1h0.2v0.1h0.2v0.1h0.2v0.1h0.2v0.1h0.2v0.1H68v0.1H68v0.1h0.2v0.1h0.2V3h0.2V3h0.1v0.1h0.2v0.1
	h0.2v0.1H69v0.1h0.1v0.1h0.2v0.1h0.2v0.1h0.1v0.1h0.2v0.1h0.2v0.1H70v0.1h0.1V4h0.2V4h0.2v0.1h0.2v0.1h0.1v0.1h0.2v0.1h0.2v0.1h0.2
	v0.1h0.1v0.1h0.2v0.1h0.2v0.1h0.1v0.1h0.2v0.1h0.2V5H72v0.1h0.1v0.1h0.2v0.1h0.2v0.1h0.2v0.1h0.1v0.1h0.2v0.1h0.2v0.1H73v0.1h0.2
	v0.1h0.2v0.1h0.2v0.1h0.1V6h0.2v0.1h0.2v0.1H74v0.1h0.1v0.1h0.2v0.1h0.2v0.1h0.2v0.1h0.1v0.1h0.2v0.1h0.2v0.1H75v0.1h0.2v0.1h0.2V7
	h0.2v0.1h0.1v0.1h0.2v0.1h0.2v0.1H76v0.1h0.1v0.1h0.2v0.1h0.2v0.1h0.2v0.1h0.1v0.1h0.2v0.1H77v0.1H77V8h0.2v0.1h0.2v0.1h0.2v0.1h0.1
	v0.1h0.2v0.1h0.2v0.1h0.2v0.1h0.1v0.1h0.2v0.1h0.2v0.1h0.1v0.1h0.2v0.1h0.2V9H79v0.1h0.1v0.1h0.2v0.1h0.2v0.1h0.2v0.1h0.1v0.1h0.2
	v0.1h0.2v0.1h0.2v0.1h0.1v0.1h0.2v0.1h0.2v0.1h0.1V10h0.2v0.1h0.2v0.1H81v0.1h0.1v0.1h0.2v0.1h0.2v0.1h0.2v0.1h0.1v0.1h0.2v0.1h0.2
	v0.1h0.2v0.1h0.1V11h0.2V11h0.2v0.1h0.1v0.1h0.2v0.1h0.2v0.1H83v0.1h0.1v0.1h0.2v0.1h0.2v0.1h0.2v0.1h0.1v0.1h0.2v0.1H84V12h0.2V12
	h0.1v0.1h0.2v0.1h0.2v0.1h0.1v0.1h0.2v0.1h0.2v0.1H85v0.1h0.1v0.1h0.2v0.1h0.2v0.1h0.2v0.1h0.1V13h0.2v0.1H86v0.1h0.1v0.1h0.2v0.1
	h0.2v0.1h0.2v0.1h0.1v0.1h0.2v0.1h0.2v0.1h0.2v0.1h0.1v0.1h0.2v0.1h0.2V14h0.2v0.1h0.1v0.1h0.2v0.1H88v0.1h0.1v0.1h0.2v0.1h0.2v0.1
	h0.2v0.1h0.1v0.1h0.2v0.1h0.2v0.1h0.2v0.1h0.1V15h0.2v0.1h0.2v0.1h0.2v0.1h0.1v0.1h0.2v0.1H90v0.1h0.1v0.1h0.2v0.1h0.2v0.1h0.2v0.1
	h0.1v0.1h0.2v0.1h0.2V16h0.2v0.1h0.1v0.1h0.2v0.1h0.2v0.1h0.2v0.1h0.1v0.1h0.2v0.1H92v0.1h0.1v0.1h0.2v0.1h0.2v0.1h0.2v0.1h0.1V17
	h0.2v0.1H93v0.1h0.2v0.1h0.1v0.1h0.2v0.1h0.2v0.1h0.1v0.1h0.2v0.1h0.2v0.1h0.2v0.1h0.1v0.1h0.2v0.1h0.2V18h0.2v0.1h0.1v0.1h0.2v0.1
	H95v0.1h0.2v0.1h0.1v0.1h0.2v0.1h0.2v0.1h0.1v0.1h0.2v0.1h0.2v0.1h0.2V19h0.1V19h0.2v0.1h0.2v0.1h0.2v0.1h0.1v0.1h0.2v0.1H97v0.1
	h0.2v0.1h0.1v0.1h0.2v0.1h0.2v0.1h0.1v0.1h0.2V20h0.2V20h0.2v0.1h0.1v0.1h0.2v0.1h0.2v0.1h0.2v0.1h0.1v0.1h0.2v0.1H99v0.1h0.2v0.1
	h0.1v0.1h0.2v0.1h0.2V21h0.1v0.1h0.2v0.1h0.2v0.1h0.2v0.1h0.1v0.1h0.2v0.1h0.2v0.1h0.2v0.1h0.1v0.1h0.2v0.1h0.2v0.1h0.1v0.1h0.2V22
	h0.2v0.1h0.2v0.1h0.1v0.1h0.2v0.1h0.2v0.1h0.2v0.1h0.1v0.1h0.2v0.1h0.2v0.1h0.2v0.1h0.1v0.1h0.2v0.1h0.2V23h0.1v0.1h0.2v0.1h0.2v0.1
	h0.2v0.1h0.1v0.1h0.2v0.1h0.2v0.1h0.1v0.1h0.2v0.1h0.2v0.1h0.1v0.1h0.2v0.1h0.1V24h0.2v0.1h0.1v0.1h0.2v0.1h0.1v0.1h0.1v0.1h0.2v0.1
	h0.1v0.1h0.2v0.1h0.1v0.1h0.1v0.1h0.2v0.1h0.1v0.1h0.2V25h0.1v0.1h0.1v0.1h0.1v0.1h0.1v0.1h0.2v0.1h0.1v0.1h0.1v0.1h0.1v0.1h0.1v0.1
	h0.2v0.1h0.1v0.1h0.1V26h0.1V26h0.1v0.1h0.1v0.1h0.1v0.1h0.1v0.1h0.1v0.1h0.1v0.1h0.2v0.1h0.1v0.1h0.1v0.1h0.1v0.1h0.1v0.1h0.1V27
	h0.1V27h0.1v0.1h0.1v0.1h0.1v0.2h0.1v0.1h0.1v0.1h0.1v0.1h0.1v0.1h0.1v0.1h0.1v0.1h0.1v0.1h0.1V28h0.1v0.1h0.1v0.2h0.1v0.1h0.1v0.1
	h0.1v0.1h0.1v0.2h0.1v0.1h0.1v0.1h0.1v0.1h0.1v0.1h0.1v0.2h0.1v0.1h0.1v0.1h0.1v0.2h0.1v0.1h0.1v0.2h0.1v0.1h0.1v0.1h0.1v0.2h0.1V30
	h0.1v0.2h0.1v0.1h0.1v0.2h0.1v0.1h0.1v0.2h0.1v0.1h0.1v0.2h0.1V31h0.1v0.1h0.1v0.2h0.1v0.2h0.1v0.1h0.1v0.2h0.1v0.2h0.1v0.2h0.1v0.2
	h0.1v0.2h0.1v0.1h0.1v0.2h0.1v0.2h0.1v0.2h0.1v0.2h0.1v0.2h0.1v0.2h0.1v0.2h0.1v0.2h0.1v0.2h0.1V34h0.1v0.2h0.1v0.2h0.1v0.2h0.1v0.2
	h0.1V35h0.1v0.2h0.1v0.2h0.1v0.3h0.1V36h0.1v0.2h0.1v0.2h0.1v0.3h0.1v0.3h0.1v0.3h0.1v0.3h0.1v0.4h0.1v0.4h0.1v0.5h0.1v0.5h0.1V40
	h0.1v0.8h0.1v1.4h0.1v41.6h-0.1V85h-0.1v0.7h-0.1v0.5h-0.1v0.5h-0.1v0.5h-0.1v0.4h-0.1V88h-0.1v0.3h-0.1v0.3H114V89h-0.1v0.3h-0.1
	v0.3h-0.1v0.2h-0.1v0.2h-0.1v0.2h-0.1v0.2h-0.1v0.2h-0.1V91h-0.1v0.2h-0.1v0.2h-0.1v0.2h-0.1v0.2H113v0.2h-0.1v0.2h-0.1v0.2h-0.1
	v0.2h-0.1v0.1h-0.1v0.2h-0.1v0.1h-0.1v0.2h-0.1v0.1h-0.1v0.2h-0.1v0.1h-0.1v0.2h-0.1v0.1H112v0.1h-0.1v0.1h-0.1v0.1h-0.1v0.1h-0.1
	v0.1h-0.1v0.1h-0.1v0.1h-0.1V94h-0.1v0.1h-0.1v0.1h-0.1v0.1h-0.2v0.1H111v0.1h-0.1v0.1h-0.2v0.1h-0.1v0.1h-0.1v0.1h-0.2v0.1h-0.2
	v0.1h-0.2V95H110V95h-0.1v0.1h-0.2v0.1h-0.2v0.1h-0.2v0.1h-0.2v0.1h-0.2v0.1h-0.2v0.1h-0.4v0.1H108v0.1h-0.8v0.1h-0.8v-0.1h-0.8
	v-0.1h-0.4v-0.1h-0.4v-0.1h-0.2v-0.1h-0.2v-0.1h-0.2v-0.1H104v-0.1h-0.2v-0.1h-0.2V95h-0.2V95h-0.2v-0.1h-0.2v-0.1h-0.2v-0.1H103
	v-0.1h-0.1v-0.1h-0.2v-0.1h-0.1v-0.1h-0.1v-0.1h-0.2v-0.1h-0.1v-0.1h-0.1v-0.1h-0.1V94h-0.1v-0.1h-0.1v-0.1H102v-0.1h-0.1v-0.1h-0.1
	v-0.1h-0.1v-0.1h-0.1v-0.1h-0.1v-0.1h-0.1v-0.1h-0.1v-0.2h-0.1v-0.1h-0.1V93h-0.1v-0.2h-0.1v-0.1H101v-0.1H101v-0.2h-0.1v-0.2h-0.1
	v-0.2h-0.1v-0.2h-0.1V92h-0.1v-0.2h-0.1v-0.2h-0.1v-0.2h-0.1v-0.2h-0.1v-0.2h-0.1v-0.2h-0.1v-0.2H100v-0.2H100v-0.2h-0.1v-0.2h-0.1
	V90h-0.1v-0.2h-0.1v-0.2h-0.1v-0.2h-0.1v-0.2h-0.1V89h-0.1v-0.2h-0.1v-0.2h-0.1v-0.2h-0.1v-0.2H99v-0.2h-0.1V88h-0.1v-0.2h-0.1v-0.2
	h-0.1v-0.2h-0.1v-0.2h-0.1V87h-0.1v-0.2h-0.1v-0.2h-0.1v-0.2h-0.1v-0.2h-0.1v-0.2h-0.1v-0.2H98v-0.2h-0.1v-0.2h-0.1v-0.2h-0.1v-0.2
	h-0.1V85h-0.1v-0.2h-0.1v-0.2h-0.1v-0.2h-0.1v-0.2h-0.1v-0.2h-0.1v-0.2h-0.1v-0.2h-0.1v-0.2H97v-0.2h-0.1v-0.2h-0.1V83h-0.1v-0.2
	h-0.1v-0.2h-0.1v-0.2h-0.1v-0.2h-0.1v-0.2h-0.1v-0.2h-0.1v-0.2h-0.1v-0.2h-0.1v-0.2h-0.1v-0.2H96V81h-0.1v-0.2h-0.1v-0.2h-0.1v-0.2
	h-0.1v-0.2h-0.1V80h-0.1v-0.2h-0.1v-0.2h-0.1v-0.2h-0.1v-0.2h-0.1v-0.2h-0.1v-0.2h-0.1v-0.2H95v-0.2h-0.1v-0.2h-0.1v-0.2h-0.1V78
	h-0.1v-0.2h-0.1v-0.2h-0.1v-0.2h-0.1v-0.2h-0.1v-0.2h-0.1v-0.2h-0.1v-0.2h-0.1v-0.2h-0.1v-0.2H94v-0.2h-0.1v-0.2h-0.1v-0.2h-0.1
	v-0.2h-0.1v-0.2h-0.1v-0.2h-0.1v-0.2h-0.1v-0.2h-0.1v-0.2h-0.1v-0.2h-0.1v-0.2h-0.1v-0.2H93v-0.2H93v-0.2h-0.1v-0.2h-0.1v-0.2h-0.1
	v-0.2h-0.1V73h-0.1v-0.2h-0.1v-0.2h-0.1v-0.2h-0.1v-0.2h-0.1v-0.2h-0.1v-0.2h-0.1v-0.2H92v-0.2H92v-0.2h-0.1v-0.2h-0.1v-0.2h-0.1
	v-0.2h-0.1v-0.2h-0.1v-0.2h-0.1v-0.2h-0.1v-0.2h-0.1v-0.2h-0.1v-0.2h-0.1v-0.2h-0.1v-0.2H91v-0.2h-0.1v-0.2h-0.1v-0.2h-0.1v-0.2
	h-0.1v-0.2h-0.1v-0.2h-0.1V68h-0.1v-0.2h-0.1v-0.2h-0.1v-0.2h-0.1v-0.2h-0.1v-0.2h-0.1v-0.2H90v-0.2h-0.1v-0.2h-0.1v-0.2h-0.1v-0.2
	h-0.1V66h-0.1v-0.2h-0.1v-0.2h-0.1v-0.2h-0.1v-0.2h-0.1V65h-0.1v-0.2h-0.1v-0.2h-0.1v-0.2H89v-0.2h-0.1v-0.2h-0.1V64h-0.1v-0.2h-0.1
	v-0.2h-0.1v-0.2h-0.1v-0.2h-0.1V63h-0.1v-0.2h-0.1v-0.2h-0.1v-0.2h-0.1v-0.2h-0.1v-0.2H88v-0.2h-0.1v-0.2h-0.1v-0.2h-0.1v-0.2h-0.1
	v-0.2h-0.1V61h-0.1v-0.2h-0.1v-0.2h-0.1v-0.2h-0.1v-0.2h-0.1v-0.2h-0.1v-0.2h-0.1v-0.2H87v-0.2h-0.1v-0.2h-0.1v-0.2h-0.1V59h-0.1
	v-0.2h-0.1v-0.2h-0.1v-0.2h-0.1v-0.2h-0.1V58h-0.1v-0.2h-0.1v-0.2h-0.1v-0.2h-0.1v-0.2H86v-0.2h-0.1V57h-0.1v-0.2h-0.1v-0.2h-0.1
	v-0.2h-0.1v-0.2h-0.1V56h-0.1v-0.2h-0.1v-0.2h-0.1v-0.2h-0.1v-0.2h-0.1v-0.2H85v-0.2H85v-0.2h-0.1v-0.2h-0.1v-0.2h-0.1v-0.2h-0.1V54
	h-0.1v-0.2h-0.1v-0.2h-0.1v-0.2h-0.1v-0.2h-0.1v-0.2h-0.1v-0.2h-0.1v-0.2H84v-0.2H84v-0.2h-0.1v-0.2h-0.1V52h-0.1v-0.2h-0.1v-0.2
	h-0.1v-0.2h-0.1v-0.2h-0.1v-0.2h-0.1v-0.2h-0.1v-0.2h-0.1v-0.2h-0.1v-0.2H83v-0.2h-0.1V50h-0.1v-0.2h-0.1v-0.2h-0.1v-0.2h-0.1v-0.2
	h-0.1V49h-0.1v-0.2h-0.1v-0.2h-0.1v-0.2h-0.1v-0.2h-0.1v-0.2h-0.1v-0.2H82v-0.2h-0.1v-0.2h-0.1v-0.2h-0.1v-0.2h-0.1V47h-0.1v-0.2
	h-0.1v-0.2h-0.1v-0.2h-0.1v-0.2h-0.1v-0.2h-0.1v-0.2h-0.1v-0.2h-0.1v-0.2H81v-0.2h-0.1v-0.2h-0.1V45h-0.1v-0.2h-0.1v-0.2h-0.1v-0.2
	h-0.1v-0.2h-0.1v-0.2h-0.1v-0.2h-0.1v-0.2h-0.1v-0.2h-0.1v-0.2h-0.1v-0.2H80V43h-0.1v-0.2h-0.1v-0.2h-0.1v-0.2h-0.1v-0.2h-0.1V42
	h-0.1v-0.2h-0.1v-0.2h-0.1v-0.2h-0.1v-0.2h-0.1v-0.2h-0.1V41h-0.1v-0.2H79v-0.2h-0.1v-0.2h-0.1v-0.2h-0.1V40h-0.1v-0.2h-0.1v-0.2
	h-0.1v-0.2h-0.1v-0.2h-0.1v-0.2h-0.1v-0.2h-0.1v-0.2h-0.1v-0.2h-0.1v-0.2H78v-0.2h-0.1V38h-0.1v-0.2h-0.1v-0.2h-0.1v-0.2h-0.1v-0.2
	h-0.1v-0.2h-0.1v-0.2h-0.1v-0.2h-0.1v-0.2h-0.1v-0.2h-0.1v-0.2H77V36H77v-0.2h-0.1v-0.2h-0.1v-0.2h-0.1v-0.2h-0.1v-0.2h-0.1V35h-0.1
	v-0.2h-0.1v-0.2h-0.1v-0.2h-0.1v-0.2h-0.1v-0.1h-0.1V34H76v-0.2H76v-0.1h-0.1v-0.2h-0.1v-0.2h-0.1v-0.2h-0.1v-0.1h-0.1v-0.2h-0.1
	v-0.2h-0.1v-0.1h-0.1v-0.2h-0.1v-0.1h-0.1v-0.2h-0.1v-0.1H75v-0.2h-0.1v-0.1h-0.1V32h-0.1v-0.1h-0.1v-0.2h-0.1v-0.1h-0.1v-0.2h-0.1
	v-0.1h-0.1v-0.1h-0.1v-0.1h-0.1v-0.2h-0.1v-0.1h-0.1V31H74v-0.1h-0.1v-0.1h-0.1v-0.2h-0.1v-0.1h-0.1v-0.1h-0.1v-0.1h-0.1v-0.2h-0.1
	v-0.1h-0.1v-0.1h-0.1v-0.1h-0.1V30h-0.1v-0.1h-0.1v-0.1H73v-0.1h-0.1v-0.1h-0.1v-0.1h-0.1v-0.1h-0.1v-0.1h-0.1v-0.1h-0.1v-0.1h-0.1
	v-0.1h-0.1v-0.2h-0.2V29h-0.1v-0.1h-0.1v-0.1H72v-0.1h-0.1v-0.1h-0.1v-0.1h-0.1v-0.1h-0.1v-0.1h-0.1v-0.1h-0.2v-0.1h-0.1v-0.1h-0.1
	v-0.1h-0.1v-0.1h-0.1V28h-0.1v-0.1H71v-0.1h-0.2v-0.1h-0.1v-0.1h-0.1v-0.1h-0.2v-0.1h-0.1v-0.1h-0.1v-0.1h-0.2v-0.1h-0.1v-0.1h-0.1
	v-0.1h-0.2V27h-0.1V27h-0.1v-0.1h-0.2v-0.1h-0.1v-0.1h-0.2v-0.1h-0.2v-0.1h-0.1v-0.1H69v-0.1h-0.1v-0.1h-0.2v-0.1h-0.1v-0.1h-0.2
	v-0.1h-0.1V26h-0.2V26h-0.2v-0.1H68v-0.1h-0.2v-0.1h-0.2v-0.1h-0.1v-0.1h-0.2v-0.1h-0.2v-0.1h-0.2v-0.1h-0.2v-0.1h-0.2v-0.1h-0.2
	v-0.1h-0.2V25h-0.2v-0.1h-0.2v-0.1h-0.2v-0.1h-0.2v-0.1h-0.2v-0.1h-0.2v-0.1h-0.2v-0.1h-0.2v-0.1h-0.2v-0.1h-0.2v-0.1h-0.2v-0.1H64
	v-0.1h-0.2V24h-0.3v-0.1h-0.2v-0.1h-0.3v-0.1h-0.3v-0.1h-0.3v-0.1h-0.4v-0.1h-0.5v-0.1H61v-0.1h-0.5v-0.1h-0.8v-0.1h-1v-0.1h-1.8
	v0.1h-1.2v0.1h-0.7v0.1h-0.5v0.1h-0.5v0.1h-0.4v0.1h-0.3v0.1H53v0.1h-0.3v0.1h-0.3v0.1h-0.2V24h-0.3v0.1h-0.2v0.1h-0.2v0.1h-0.2v0.1
	h-0.2v0.1h-0.2v0.1h-0.2v0.1h-0.2v0.1h-0.2v0.1h-0.2v0.1h-0.2v0.1h-0.2v0.1h-0.2V25h-0.2v0.1h-0.2v0.1h-0.2v0.1h-0.2v0.1h-0.2v0.1
	h-0.2v0.1h-0.2v0.1h-0.2v0.1h-0.1v0.1h-0.2v0.1h-0.2v0.1h-0.2V26h-0.2V26h-0.1v0.1h-0.2v0.1h-0.1v0.1H47v0.1h-0.2v0.1h-0.1v0.1h-0.2
	v0.1h-0.2v0.1h-0.1v0.1h-0.1v0.1h-0.2v0.1h-0.1V27h-0.2V27h-0.1v0.1h-0.1v0.1h-0.2v0.1h-0.1v0.1h-0.2v0.1h-0.1v0.1h-0.1v0.1h-0.1
	v0.1H45v0.1h-0.1v0.1h-0.1v0.1h-0.1V28h-0.1v0.1h-0.2v0.1h-0.1v0.1h-0.1v0.1h-0.1v0.1h-0.1v0.1h-0.1v0.1H44v0.1h-0.2v0.1h-0.1v0.1
	h-0.1v0.1h-0.1v0.1h-0.1V29h-0.1v0.1h-0.1v0.1h-0.1v0.1h-0.1v0.1h-0.1v0.1h-0.1v0.1H43v0.1h-0.1v0.1h-0.1v0.1h-0.1v0.1h-0.1v0.1
	h-0.1v0.1h-0.1V30h-0.1v0.1h-0.1v0.2h-0.1v0.1h-0.1v0.1h-0.1v0.1h-0.1v0.1H42v0.1h-0.1v0.2h-0.1v0.1h-0.1v0.1h-0.1V31h-0.1v0.1h-0.1
	v0.2h-0.1v0.1h-0.1v0.1h-0.1v0.1h-0.1v0.2h-0.1v0.1h-0.1v0.2H41v0.1h-0.1V32h-0.1v0.2h-0.1v0.1h-0.1v0.1h-0.1v0.2h-0.1v0.1h-0.1v0.2
	h-0.1v0.2h-0.1v0.1h-0.1v0.2h-0.1v0.1h-0.1v0.2H40v0.1h-0.1v0.2h-0.1v0.2h-0.1v0.1h-0.1V34h-0.1v0.2h-0.1v0.2h-0.1v0.2h-0.1v0.1
	h-0.1v0.2h-0.1v0.2h-0.1V35h-0.1v0.2H39v0.2h-0.1v0.2h-0.1v0.2h-0.1v0.2h-0.1v0.2h-0.1v0.2h-0.1v0.2h-0.1v0.2h-0.1v0.2h-0.1v0.2
	h-0.1V37h-0.1v0.2h-0.1v0.2H38v0.2h-0.1v0.2h-0.1v0.2h-0.1v0.2h-0.1v0.2h-0.1v0.2h-0.1v0.2h-0.1v0.2h-0.1V39h-0.1v0.2h-0.1v0.2h-0.1
	v0.2H37v0.2H37v0.2h-0.1v0.2h-0.1v0.2h-0.1v0.2h-0.1v0.2h-0.1v0.2h-0.1V41h-0.1v0.2h-0.1v0.2h-0.1v0.2h-0.1v0.2h-0.1v0.2H36V42H36
	v0.2h-0.1v0.2h-0.1v0.2h-0.1v0.2h-0.1V43h-0.1v0.2h-0.1v0.2h-0.1v0.2h-0.1v0.2h-0.1v0.2h-0.1v0.2h-0.1v0.2H35v0.2H35v0.2h-0.1v0.2
	h-0.1v0.2h-0.1v0.2h-0.1v0.2h-0.1v0.2h-0.1v0.2h-0.1v0.2h-0.1V46h-0.1v0.2h-0.1v0.2h-0.1v0.2H34v0.2h-0.1v0.2h-0.1v0.2h-0.1v0.2
	h-0.1v0.2h-0.1v0.2h-0.1v0.2h-0.1V48h-0.1v0.2h-0.1v0.2h-0.1v0.2h-0.1v0.2h-0.1v0.2H33v0.2h-0.1v0.2h-0.1v0.2h-0.1v0.2h-0.1v0.2
	h-0.1V50h-0.1v0.2h-0.1v0.2h-0.1v0.2h-0.1v0.2h-0.1v0.2h-0.1v0.2h-0.1v0.2H32v0.2h-0.1v0.2h-0.1v0.2h-0.1V52h-0.1v0.2h-0.1v0.2h-0.1
	v0.2h-0.1v0.2h-0.1v0.2h-0.1v0.2h-0.1v0.2h-0.1v0.2h-0.1v0.2H31v0.2h-0.1v0.2h-0.1v0.2h-0.1v0.2h-0.1v0.2h-0.1v0.2h-0.1v0.2h-0.1V55
	h-0.1v0.2h-0.1v0.2h-0.1v0.2h-0.1v0.2h-0.1v0.2H30v0.2h-0.1v0.2h-0.1v0.2h-0.1v0.2h-0.1v0.2h-0.1V57h-0.1v0.2h-0.1v0.2h-0.1v0.2
	h-0.1v0.2h-0.1v0.2h-0.1v0.2H29v0.2H29v0.2h-0.1v0.2h-0.1v0.2h-0.1V59h-0.1v0.2h-0.1v0.2h-0.1v0.2h-0.1v0.2h-0.1v0.2h-0.1v0.2h-0.1
	v0.2h-0.1v0.2H28v0.2H28v0.2h-0.1V61h-0.1v0.2h-0.1v0.2h-0.1v0.2h-0.1v0.2h-0.1v0.2h-0.1v0.2h-0.1v0.2h-0.1v0.2h-0.1v0.2h-0.1v0.2
	H27v0.2H27v0.2h-0.1v0.2h-0.1v0.2h-0.1v0.2h-0.1v0.2h-0.1V64h-0.1v0.2h-0.1v0.2h-0.1v0.2h-0.1v0.2h-0.1V65h-0.1v0.2H26v0.2h-0.1v0.2
	h-0.1v0.2h-0.1v0.2h-0.1V66h-0.1v0.2h-0.1v0.2h-0.1v0.2h-0.1v0.2h-0.1v0.2h-0.1v0.2h-0.1v0.2h-0.1v0.2H25v0.2h-0.1v0.2h-0.1V68h-0.1
	v0.2h-0.1v0.2h-0.1v0.2h-0.1v0.2h-0.1v0.2h-0.1v0.2h-0.1v0.2h-0.1v0.2h-0.1v0.2h-0.1v0.2H24V70h-0.1v0.2h-0.1v0.2h-0.1v0.2h-0.1v0.2
	h-0.1v0.2h-0.1v0.2h-0.1v0.2h-0.1v0.2h-0.1v0.2h-0.1v0.2h-0.1V72h-0.1v0.2H23v0.2h-0.1v0.2h-0.1v0.2h-0.1v0.2h-0.1V73h-0.1v0.2h-0.1
	v0.2h-0.1v0.2h-0.1v0.2h-0.1V74h-0.1v0.2h-0.1v0.2h-0.1v0.2H22v0.2h-0.1v0.2h-0.1v0.2h-0.1v0.2h-0.1v0.2h-0.1v0.2h-0.1v0.2h-0.1v0.2
	h-0.1v0.2h-0.1v0.2h-0.1v0.2h-0.1v0.2H21v0.2H21V77h-0.1v0.2h-0.1v0.2h-0.1v0.2h-0.1v0.2h-0.1v0.2h-0.1v0.2h-0.1v0.2h-0.1v0.2h-0.1
	v0.2h-0.1v0.2h-0.1v0.2H20v0.2H20v0.2h-0.1v0.2h-0.1v0.2h-0.1v0.2h-0.1V80h-0.1v0.2h-0.1v0.2h-0.1v0.2h-0.1v0.2h-0.1V81h-0.1v0.2
	h-0.1v0.2H19v0.2H19v0.2h-0.1v0.2h-0.1v0.2h-0.1v0.2h-0.1v0.2h-0.1v0.2h-0.1v0.2h-0.1v0.2h-0.1v0.2h-0.1v0.2h-0.1v0.2h-0.1v0.2H18
	v0.2h-0.1V84h-0.1v0.2h-0.1v0.2h-0.1v0.2h-0.1v0.2h-0.1v0.2h-0.1v0.2h-0.1v0.2h-0.1v0.2h-0.1v0.2h-0.1v0.2h-0.1V86H17v0.2h-0.1v0.2
	h-0.1v0.2h-0.1v0.2h-0.1v0.2h-0.1v0.2h-0.1v0.2h-0.1v0.2h-0.1v0.2h-0.1v0.2h-0.1V88h-0.1v0.2h-0.1v0.2H16v0.2h-0.1v0.2h-0.1v0.2
	h-0.1V89h-0.1v0.2h-0.1v0.2h-0.1v0.2h-0.1v0.2h-0.1V90h-0.1v0.2h-0.1v0.2h-0.1v0.2h-0.1v0.2H15v0.2h-0.1v0.2h-0.1v0.2h-0.1v0.2h-0.1
	v0.2h-0.1v0.2h-0.1v0.2h-0.1v0.2h-0.1v0.2h-0.1v0.2h-0.1v0.2h-0.1v0.2h-0.1v0.1H14V93h-0.1v0.2h-0.1v0.1h-0.1v0.1h-0.1v0.2h-0.1v0.1
	h-0.1v0.1h-0.1v0.2h-0.1v0.1h-0.1v0.1h-0.1V94h-0.1v0.1H13v0.1H13v0.1h-0.1v0.1h-0.1v0.1h-0.1v0.1h-0.1v0.1h-0.1v0.1h-0.1v0.1h-0.1
	v0.1h-0.2v0.1h-0.1V95H12V95H12v0.1h-0.1v0.1h-0.2v0.1h-0.2v0.1h-0.2v0.1h-0.1v0.1h-0.2v0.1H11v0.1h-0.2v0.1h-0.2v0.1h-0.2v0.1h-0.2
	V96H9.9V96H9.6v0.1H9.2v0.1H8.2v0.1"/>
</svg>
