<svg width="115" height="126" viewBox="0 0 115 126" fill="none" xmlns="http://www.w3.org/2000/svg">
<path d="M56.2306 125.726V125.648H54.9879V125.57H54.2113V125.493H53.8229V125.415H53.4346V125.337H53.0463V125.26H52.6579V125.182H52.2696V125.104H51.8813V125.026H51.5706V124.949H51.3376V124.871H51.1046V124.793H50.8716V124.716H50.6386V124.638H50.4056V124.56H50.1726V124.482H49.9396V124.405H49.7066V124.327H49.4736V124.249H49.2406V124.172H49.0076V124.094H48.7746V124.016H48.6193V123.939H48.4639V123.861H48.3086V123.783H48.1533V123.705H47.9979V123.628H47.7649V123.55H47.6096V123.472H47.4543V123.395H47.2989V123.317H47.1436V123.239H46.9883V123.162H46.8329V123.084H46.6776V123.006H46.5223V122.928H46.3669V122.851H46.2893V122.773H46.1339V122.695H45.9786V122.618H45.9009V122.54H45.7456V122.462H45.5903V122.384H45.4349V122.307H45.3573V122.229H45.2019V122.151H45.0466V122.074H44.9689V121.996H44.8136V121.918H44.7359V121.841H44.5806V121.763H44.5029V121.685H44.3476V121.607H44.2699V121.53H44.1146V121.452H44.0369V121.374H43.8816V121.297H43.8039V121.219H43.7263V121.141H43.6486V121.064H43.4933V120.986H43.4156V120.908H43.3379V120.83H43.1826V120.753H43.1049V120.675H43.0273V120.597H42.9496V120.52H42.7943V120.442H42.7166V120.364H42.6389V120.286H42.5613V120.209H42.4836V120.131H42.4059V120.053H42.3283V119.976H42.2506V119.898H42.1729V119.82H42.0176V119.743H41.9399V119.665H41.8623V119.587H41.7846V119.509H41.7069V119.432H41.6293V119.354H41.5516V119.276H41.4739V119.199H41.3963V119.121H41.3186V119.043H41.2409V118.965H41.1633V118.81H41.0856V118.732H41.0079V118.655H40.9303V118.577H40.8526V118.499H40.7749V118.422H40.6973V118.344H40.6196V118.266H40.5419V118.111H40.4643V118.033H40.3866V117.955H40.3089V117.878H40.2313V117.722H40.1536V117.645H40.0759V117.567H39.9983V117.411H39.9206V117.334H39.8429V117.256H39.7653V117.101H39.6876V117.023H39.6099V116.945H39.5323V116.79H39.4546V116.712H39.3769V116.557H39.2993V116.479H39.2216V116.324H39.1439V116.168H39.0663V116.09H38.9886V115.935H38.9109V115.857H38.8333V115.702H38.7556V115.547H38.6779V115.469H38.6003V115.313H38.5226V115.158H38.4449V115.003H38.3673V114.847H38.2896V114.692H38.2119V114.536H38.1343V114.381H38.0566V114.226H37.9789V114.07H37.9013V113.915H37.8236V113.682H37.7459V113.526H37.6683V113.293H37.5906V113.138H37.5129V112.905H37.4353V112.749H37.3576V112.516H37.2799V112.283H37.2023V112.05H37.1246V111.817H37.0469V111.506H36.9693V111.273H36.8916V111.04H36.8139V110.729H36.7363V110.34H36.6586V109.952H36.5809V109.563H36.5033V109.175H36.4256V108.475H36.3479V107.854H36.2703V104.901H36.3479V104.046H36.4256V103.502H36.5033V103.036H36.5809V102.57H36.6586V102.259H36.7363V101.948H36.8139V101.637H36.8916V101.327H36.9693V101.016H37.0469V100.783H37.1246V100.55H37.2023V100.316H37.2799V100.083H37.3576V99.8502H37.4353V99.6171H37.5129V99.4617H37.5906V99.2286H37.6683V99.0732H37.7459V98.8401H37.8236V98.6847H37.9013V98.4515H37.9789V98.2184H38.0566V98.063H38.1343V97.8299H38.2119V97.6745H38.2896V97.4414H38.3673V97.286H38.4449V97.0529H38.5226V96.8975H38.6003V96.6643H38.6779V96.4312H38.7556V96.2758H38.8333V96.0427H38.9109V95.8873H38.9886V95.6542H39.0663V95.4988H39.1439V95.2657H39.2216V95.1103H39.2993V94.8771H39.3769V94.644H39.4546V94.4886H39.5323V94.2555H39.6099V94.1001H39.6876V93.867H39.7653V93.7116H39.8429V93.4785H39.9206V93.3231H39.9983V93.0899H40.0759V92.9345H40.1536V92.7014H40.2313V92.4683H40.3089V92.3129H40.3866V92.0798H40.4643V91.9244H40.5419V91.6913H40.6196V91.5359H40.6973V91.3027H40.7749V91.1473H40.8526V90.9142H40.9303V90.6811H41.0079V90.5257H41.0856V90.2926H41.1633V90.1372H41.2409V89.9041H41.3186V89.7487H41.3963V89.5155H41.4739V89.3601H41.5516V89.127H41.6293V88.9716H41.7069V88.7385H41.7846V88.5054H41.8623V88.35H41.9399V88.1169H42.0176V87.9615H42.0953V87.7283H42.1729V87.5729H42.2506V87.3398H42.3283V87.1844H42.4059V86.9513H42.4836V86.7182H42.5613V86.5628H42.6389V86.3297H42.7166V86.1743H42.7943V85.9411H42.8719V85.7857H42.9496V85.5526H43.0273V85.3972H43.1049V85.1641H43.1826V84.931H43.2603V84.7756H43.3379V84.5425H43.4156V84.3871H43.4933V84.1539H43.5709V83.9985H43.6486V83.7654H43.7263V83.61H43.8039V83.3769H43.8816V83.2215H43.9593V82.9884H44.0369V82.7553H44.1146V82.5999H44.1923V82.3667H44.2699V82.2113H44.3476V81.9782H44.4253V81.8228H44.5029V81.5897H44.5806V81.4343H44.6583V81.2012H44.7359V80.9681H44.8136V80.8127H44.8913V80.5795H44.9689V80.4241H45.0466V80.191H45.1243V80.0356H45.2019V79.8025H45.2796V79.6471H45.3573V79.414H45.4349V79.1809H45.5126V79.0255H45.5903V78.7923H45.6679V78.6369H45.7456V78.4038H45.8233V78.2484H45.9009V78.0153H45.9786V77.8599H46.0563V77.6268H46.1339V77.4714H46.2116V77.2383H46.2893V77.0051H46.3669V76.8497H46.4446V76.6166H46.5223V76.4612H46.5999V76.2281H46.6776V76.0727H46.7553V75.8396H46.8329V75.6842H46.9106V75.4511H46.9883V75.2179H47.0659V75.0625H47.1436V74.8294H47.2213V74.674H47.2989V74.4409H47.3766V74.2855H47.4543V74.0524H47.5319V73.897H47.6096V73.6639H47.6873V73.5085H47.7649V73.2753H47.8426V73.0422H47.9203V72.8868H47.9979V72.6537H48.0756V72.4983H48.1533V72.2652H48.2309V72.1098H48.3086V71.8767H48.3863V71.7213H48.4639V71.4881H48.5416V71.255H48.6193V71.0996H48.6969V70.8665H48.7746V70.7111H48.8523V70.478H48.9299V70.3226H49.0076V70.0895H49.0853V69.9341H49.1629V69.7009H49.2406V69.4678H49.3183V69.3124H49.3959V69.0793H49.4736V68.9239H49.5513V68.6908H49.6289V68.5354H49.7066V68.3023H49.7843V68.1469H49.8619V67.9137H49.9396V67.7583H50.0173V67.5252H50.0949V67.2921H50.1726V67.1367H50.2503V66.9036H50.3279V66.7482H50.4056V66.5151H50.4833V66.3597H50.5609V66.1265H50.6386V65.9711H50.7163V65.738H50.7939V65.5049H50.8716V65.3495H50.9493V65.1164H51.0269V64.961H51.1046V64.7279H51.1823V64.5725H51.2599V64.3393H51.3376V64.1839H51.4153V63.9508H51.4929V63.7954H51.5706V63.5623H51.6483V63.3292H51.7259V63.1738H51.8036V62.9407H51.8813V62.7853H51.9589V62.5521H52.0366V62.3967H52.1143V62.1636H52.1919V62.0082H52.2696V61.7751H52.3473V61.542H52.4249V61.3866H52.5026V61.1535H52.5803V60.9981H52.6579V60.7649H52.7356V60.6095H52.8133V60.3764H52.8909V60.221H52.9686V59.9879H53.0463V59.7548H53.1239V59.5994H53.2016V59.3663H53.2793V59.2109H53.3569V58.9777H53.4346V58.8223H53.5123V58.5892H53.5899V58.4338H53.6676V58.2007H53.7453V58.0453H53.8229V57.8122H53.9006V57.5791H53.9783V57.4237H54.0559V57.1905H54.1336V57.0351H54.2113V56.802H54.2889V56.6466H54.3666V56.4135H54.4443V56.2581H54.5219V56.025H54.5996V55.7919H54.6773V55.6365H54.7549V55.4033H54.8326V55.2479H54.9103V55.0148H54.9879V54.8594H55.0656V54.6263H55.1433V54.4709H55.2209V54.2378H55.2986V54.0047H55.3763V53.8493H55.4539V53.6161H55.5316V53.4607H55.6093V53.2276H55.6869V53.0722H55.7646V52.8391H55.8423V52.6837H55.9199V52.4506H55.9976V52.2952H56.0753V52.0621H56.1529V51.8289H56.2306V51.6735H56.3083V51.4404H56.3859V51.285H56.4636V51.0519H56.5413V50.8965H56.6189V50.6634H56.6966V50.508H56.7743V50.2749H56.8519V50.0417H56.9296V49.8863H57.0073V49.7309H57.0849V49.8086H57.1626V50.0417H57.2403V50.1972H57.3179V50.4303H57.3956V50.6634H57.4733V50.8188H57.5509V51.0519H57.6286V51.2073H57.7063V51.4404H57.7839V51.5958H57.8616V51.8289H57.9393V52.0621H58.0169V52.2175H58.0946V52.4506H58.1723V52.606H58.2499V52.8391H58.3276V53.0722H58.4053V53.2276H58.4829V53.4607H58.5606V53.6161H58.6383V53.8493H58.7159V54.0824H58.7936V54.2378H58.8713V54.4709H58.9489V54.6263H59.0266V54.8594H59.1043V55.0148H59.1819V55.2479H59.2596V55.481H59.3373V55.6365H59.4149V55.8696H59.4926V56.025H59.5703V56.2581H59.6479V56.4912H59.7256V56.6466H59.8033V56.8797H59.8809V57.0351H59.9586V57.2682H60.0363V57.5014H60.1139V57.6568H60.1916V57.8899H60.2693V58.0453H60.3469V58.2784H60.4246V58.5115H60.5023V58.6669H60.5799V58.9H60.6576V59.0554H60.7353V59.2886H60.8129V59.444H60.8906V59.6771H60.9683V59.9102H61.0459V60.0656H61.1236V60.2987H61.2013V60.4541H61.2789V60.6872H61.3566V60.9203H61.4343V61.0758H61.5119V61.3089H61.5896V61.4643H61.6673V61.6974H61.7449V61.9305H61.8226V62.0859H61.9003V62.319H61.9779V62.4744H62.0556V62.7075H62.1333V62.9407H62.2109V63.0961H62.2886V63.3292H62.3663V63.4846H62.4439V63.7177H62.5216V63.8731H62.5993V64.1062H62.6769V64.3393H62.7546V64.4947H62.8323V64.7279H62.9099V64.8833H62.9876V65.1164H63.0653V65.3495H63.1429V65.5049H63.2206V65.738H63.2983V65.8934H63.3759V66.1265H63.4536V66.3597H63.5313V66.5151H63.6089V66.7482H63.6866V66.9036H63.7643V67.1367H63.8419V67.2921H63.9196V67.5252H63.9973V67.7583H64.0749V67.9137H64.1526V68.1469H64.2303V68.3023H64.3079V68.5354H64.3856V68.7685H64.4633V68.9239H64.5409V69.157H64.6186V69.3124H64.6963V69.5455H64.7739V69.7786H64.8516V69.9341H64.9293V70.1672H65.0069V70.3226H65.0846V70.5557H65.1623V70.7888H65.2399V70.9442H65.3176V71.1773H65.3953V71.3327H65.4729V71.5658H65.5506V71.7213H65.6283V71.9544H65.7059V72.1875H65.7836V72.3429H65.8613V72.576H65.9389V72.7314H66.0166V72.9645H66.0943V73.1976H66.1719V73.353H66.2496V73.5862H66.3273V73.7416H66.4049V73.9747H66.4826V74.2078H66.5603V74.3632H66.6379V74.5963H66.7156V74.7517H66.7933V74.9848H66.8709V75.1402H66.9486V75.3734H67.0263V75.6065H67.1039V75.7619H67.1816V75.995H67.2593V76.1504H67.3369V76.3835H67.4146V76.6166H67.4923V76.772H67.5699V77.0051H67.6476V77.1606H67.7253V77.3937H67.8029V77.6268H67.8806V77.7822H67.9583V78.0153H68.0359V78.1707H68.1136V78.4038H68.1913V78.6369H68.2689V78.7923H68.3466V79.0255H68.4243V79.1809H68.5019V79.414H68.5796V79.5694H68.6573V79.8025H68.7349V80.0356H68.8126V80.191H68.8903V80.4241H68.9679V80.5795H69.0456V80.8127H69.1233V81.0458H69.2009V81.2012H69.2786V81.4343H69.3563V81.5897H69.4339V81.8228H69.5116V82.0559H69.5893V82.2113H69.6669V82.4445H69.7446V82.5999H69.8223V82.833H69.8999V82.9884H69.9776V83.2215H70.0553V83.4546H70.1329V83.61H70.2106V83.8431H70.2883V83.9985H70.3659V84.2317H70.4436V84.4648H70.5213V84.6202H70.5989V84.8533H70.6766V85.0087H70.7543V85.2418H70.8319V85.4749H70.9096V85.6303H70.9873V85.8634H71.0649V86.0189H71.1426V86.252H71.2203V86.4851H71.2979V86.6405H71.3756V86.8736H71.4533V87.029H71.5309V87.2621H71.6086V87.4175H71.6863V87.6506H71.7639V87.8838H71.8416V88.0392H71.9193V88.2723H71.9969V88.4277H72.0746V88.6608H72.1523V88.8939H72.2299V89.0493H72.3076V89.2824H72.3853V89.4378H72.4629V89.671H72.5406V89.9041H72.6183V90.0595H72.6959V90.2926H72.7736V90.448H72.8513V90.6811H72.9289V90.9142H73.0066V91.0696H73.0843V91.3027H73.1619V91.4582H73.2396V91.6913H73.3173V91.8467H73.3949V92.0798H73.4726V92.3129H73.5503V92.4683H73.6279V92.7014H73.7056V92.8568H73.7833V93.0899H73.8609V93.3231H73.9386V93.4785H74.0163V93.7116H74.0939V93.867H74.1716V94.1001H74.2493V94.3332H74.3269V94.4886H74.4046V94.7217H74.4823V94.8771H74.5599V95.1103H74.6376V95.3434H74.7153V95.4988H74.7929V95.7319H74.8706V95.8873H74.9483V96.1204H75.0259V96.3535H75.1036V96.5089H75.1813V96.7421H75.2589V96.8975H75.3366V97.1306H75.4143V97.286H75.4919V97.5191H75.5696V97.7522H75.6473V97.9076H75.7249V98.1407H75.8026V98.2961H75.8803V98.5292H75.9579V98.7624H76.0356V98.9178H76.1133V99.1509H76.1909V99.3063H76.2686V99.5394H76.3463V99.7725H76.4239V99.9279H76.5016V100.161H76.5793V100.316H76.6569V100.55H76.7346V100.783H76.8123V101.093H76.8899V101.327H76.9676V101.56H77.0453V101.871H77.1229V102.181H77.2006V102.492H77.2783V102.803H77.3559V103.192H77.4336V103.658H77.5113V104.202H77.5889V104.746H77.6666V105.911H77.7443V107.543H77.6666V108.631H77.5889V109.33H77.5113V109.874H77.4336V110.263H77.3559V110.651H77.2783V110.962H77.2006V111.35H77.1229V111.584H77.0453V111.894H76.9676V112.128H76.8899V112.361H76.8123V112.594H76.7346V112.905H76.6569V113.06H76.5793V113.293H76.5016V113.448H76.4239V113.682H76.3463V113.837H76.2686V114.07H76.1909V114.226H76.1133V114.459H76.0356V114.614H75.9579V114.769H75.8803V114.925H75.8026V115.08H75.7249V115.236H75.6473V115.391H75.5696V115.469H75.4919V115.624H75.4143V115.78H75.3366V115.935H75.2589V116.09H75.1813V116.168H75.1036V116.324H75.0259V116.479H74.9483V116.557H74.8706V116.712H74.7929V116.79H74.7153V116.945H74.6376V117.101H74.5599V117.178H74.4823V117.334H74.4046V117.411H74.3269V117.489H74.2493V117.645H74.1716V117.722H74.0939V117.8H74.0163V117.955H73.9386V118.033H73.8609V118.111H73.7833V118.266H73.7056V118.344H73.6279V118.422H73.5503V118.577H73.4726V118.655H73.3949V118.732H73.3173V118.81H73.2396V118.888H73.1619V118.965H73.0843V119.043H73.0066V119.121H72.9289V119.199H72.8513V119.354H72.7736V119.432H72.6959V119.509H72.6183V119.587H72.5406V119.665H72.4629V119.743H72.3853V119.82H72.3076V119.898H72.2299V119.976H72.1523V120.053H72.0746V120.131H71.9969V120.209H71.9193V120.286H71.8416V120.364H71.6863V120.442H71.6086V120.52H71.5309V120.597H71.4533V120.675H71.3756V120.753H71.2979V120.83H71.2203V120.908H71.1426V120.986H70.9873V121.064H70.9096V121.141H70.8319V121.219H70.6766V121.297H70.5989V121.374H70.5213V121.452H70.4436V121.53H70.2883V121.607H70.2106V121.685H70.1329V121.763H69.9776V121.841H69.8999V121.918H69.8223V121.996H69.6669V122.074H69.5893V122.151H69.4339V122.229H69.3563V122.307H69.2009V122.384H69.1233V122.462H68.9679V122.54H68.8903V122.618H68.7349V122.695H68.5796V122.773H68.4243V122.851H68.3466V122.928H68.1913V123.006H68.0359V123.084H67.8806V123.162H67.7253V123.239H67.5699V123.317H67.4146V123.395H67.2593V123.472H67.1039V123.55H66.9486V123.628H66.7156V123.705H66.5603V123.783H66.4049V123.861H66.2496V123.939H66.0943V124.016H65.9389V124.094H65.7059V124.172H65.4729V124.249H65.2399V124.327H65.0069V124.405H64.7739V124.482H64.5409V124.56H64.3079V124.638H64.0749V124.716H63.8419V124.793H63.6089V124.871H63.3759V124.949H63.1429V125.026H62.8323V125.104H62.4439V125.182H62.0556V125.26H61.6673V125.337H61.2789V125.415H60.8906V125.493H60.5023V125.57H59.7256V125.648H58.4829V125.726" fill="url(#paint0_linear_36_2644)"/>
<path d="M8.07733 96.2757V96.198H7.06767V96.1203H6.67933V96.0426H6.21333V95.9649H6.058V95.8872H5.825V95.8095H5.592V95.7318H5.359V95.6541H5.20367V95.5764H5.04833V95.4987H4.893V95.4209H4.73767V95.3432H4.58233V95.2655H4.427V95.1878H4.34933V95.1101H4.27167V95.0324H4.11633V94.9547H4.03867V94.877H3.88333V94.7993H3.80567V94.7216H3.728V94.6439H3.65033V94.5662H3.57267V94.4885H3.495V94.4108H3.33967V94.3331H3.262V94.2554H3.18433V94.1777H3.10667V94.1H3.029V94.0223H2.95133V93.8669H2.87367V93.7892H2.796V93.7115H2.71833V93.556H2.64067V93.4783H2.563V93.4006H2.48533V93.2452H2.40767V93.1675H2.33V93.0121H2.25233V92.8567H2.17467V92.779H2.097V92.6236H2.01933V92.4682H1.94167V92.3128H1.864V92.1574H1.78633V91.9243H1.70867V91.7688H1.631V91.6134H1.55333V91.3803H1.47567V91.1472H1.398V90.9141H1.32033V90.7587H1.24267V90.5256H1.165V90.2925H1.08733V90.0593H1.00967V89.8262H0.932V89.5154H0.854333V89.2046H0.776667V88.8938H0.699V88.6607H0.621333V88.3499H0.543667V88.039H0.466V87.7282H0.388333V87.1843H0.310667V86.7181H0.233V86.2518H0.155333V85.7856H0.0776667V84.8532H0V40.7948H0.0776667V40.0178H0.155333V39.3961H0.233V38.9299H0.310667V38.4637H0.388333V38.0752H0.466V37.6866H0.543667V37.3758H0.621333V37.065H0.699V36.7542H0.776667V36.5211H0.854333V36.2102H0.932V35.9771H1.00967V35.744H1.08733V35.4332H1.165V35.2778H1.24267V35.0447H1.32033V34.8116H1.398V34.6562H1.47567V34.423H1.55333V34.1899H1.631V34.0345H1.70867V33.8791H1.78633V33.646H1.864V33.4906H1.94167V33.3352H2.01933V33.1798H2.097V33.0244H2.17467V32.7913H2.25233V32.6358H2.33V32.4804H2.40767V32.4027H2.48533V32.2473H2.563V32.0919H2.64067V31.9365H2.71833V31.7811H2.796V31.6257H2.87367V31.4703H2.95133V31.3926H3.029V31.2372H3.10667V31.0818H3.18433V31.0041H3.262V30.8486H3.33967V30.7709H3.41733V30.6155H3.495V30.4601H3.57267V30.3824H3.65033V30.227H3.728V30.1493H3.80567V29.9939H3.88333V29.9162H3.961V29.7608H4.03867V29.6831H4.11633V29.6054H4.194V29.45H4.27167V29.3723H4.34933V29.2946H4.427V29.1392H4.50467V29.0614H4.58233V28.9837H4.66V28.8283H4.73767V28.7506H4.81533V28.6729H4.893V28.5952H4.97067V28.4398H5.04833V28.3621H5.126V28.2844H5.20367V28.2067H5.28133V28.0513H5.359V27.9736H5.43667V27.8959H5.51433V27.8182H5.592V27.7405H5.66967V27.6628H5.74733V27.5851H5.825V27.5074H5.90267V27.4297H5.98033V27.352H6.058V27.2742H6.13567V27.1188H6.21333V27.0411H6.291V26.9634H6.36867V26.8857H6.44633V26.808H6.524V26.7303H6.60167V26.6526H6.67933V26.5749H6.757V26.4972H6.91233V26.4195H6.99V26.3418H7.06767V26.2641H7.14533V26.1864H7.223V26.1087H7.30067V26.031H7.37833V25.9533H7.456V25.8756H7.53367V25.7979H7.61133V25.7202H7.76667V25.6425H7.84433V25.5648H7.922V25.487H7.99967V25.4093H8.07733V25.3316H8.23267V25.2539H8.31033V25.1762H8.388V25.0985H8.46567V25.0208H8.54333V24.9431H8.69867V24.8654H8.77633V24.7877H8.93167V24.71H9.00933V24.6323H9.087V24.5546H9.24233V24.4769H9.32V24.3992H9.47533V24.3215H9.553V24.2438H9.63067V24.1661H9.786V24.0884H9.86367V24.0107H10.019V23.933H10.0967V23.8553H10.252V23.7776H10.4073V23.6998H10.485V23.6221H10.6403V23.5444H10.718V23.4667H10.8733V23.389H11.0287V23.3113H11.1063V23.2336H11.2617V23.1559H11.417V23.0782H11.5723V23.0005H11.65V22.9228H11.8053V22.8451H11.9607V22.7674H12.116V22.6897H12.1937V22.612H12.349V22.5343H12.5043V22.4566H12.582V22.3789H12.7373V22.3012H12.8927V22.2235H13.048V22.1458H13.1257V22.0681H13.281V21.9904H13.4363V21.9126H13.5917V21.8349H13.6693V21.7572H13.8247V21.6795H13.98V21.6018H14.1353V21.5241H14.213V21.4464H14.3683V21.3687H14.5237V21.291H14.6013V21.2133H14.7567V21.1356H14.912V21.0579H15.0673V20.9802H15.145V20.9025H15.3003V20.8248H15.4557V20.7471H15.611V20.6694H15.6887V20.5917H15.844V20.514H15.9993V20.4363H16.077V20.3586H16.2323V20.2809H16.3877V20.2032H16.543V20.1254H16.6207V20.0477H16.776V19.97H16.9313V19.8923H17.0867V19.8146H17.1643V19.7369H17.3197V19.6592H17.475V19.5815H17.6303V19.5038H17.708V19.4261H17.8633V19.3484H18.0187V19.2707H18.0963V19.193H18.2517V19.1153H18.407V19.0376H18.5623V18.9599H18.64V18.8822H18.7953V18.8045H18.9507V18.7268H19.106V18.6491H19.1837V18.5714H19.339V18.4937H19.4943V18.416H19.6497V18.3383H19.7273V18.2605H19.8827V18.1828H20.038V18.1051H20.1157V18.0274H20.271V17.9497H20.4263V17.872H20.5817V17.7943H20.6593V17.7166H20.8147V17.6389H20.97V17.5612H21.1253V17.4835H21.203V17.4058H21.3583V17.3281H21.5137V17.2504H21.5913V17.1727H21.7467V17.095H21.902V17.0173H22.0573V16.9396H22.135V16.8619H22.2903V16.7842H22.4457V16.7065H22.601V16.6288H22.6787V16.5511H22.834V16.4733H22.9893V16.3956H23.1447V16.3179H23.2223V16.2402H23.3777V16.1625H23.533V16.0848H23.6107V16.0071H23.766V15.9294H23.9213V15.8517H24.0767V15.774H24.1543V15.6963H24.3097V15.6186H24.465V15.5409H24.6203V15.4632H24.698V15.3855H24.8533V15.3078H25.0087V15.2301H25.164V15.1524H25.2417V15.0747H25.397V14.997H25.5523V14.9193H25.63V14.8416H25.7853V14.7639H25.9407V14.6861H26.096V14.6084H26.1737V14.5307H26.329V14.453H26.4843V14.3753H26.6397V14.2976H26.7173V14.2199H26.8727V14.1422H27.028V14.0645H27.1833V13.9868H27.261V13.9091H27.4163V13.8314H27.5717V13.7537H27.6493V13.676H27.8047V13.5983H27.96V13.5206H28.1153V13.4429H28.193V13.3652H28.3483V13.2875H28.5037V13.2098H28.659V13.1321H28.7367V13.0544H28.892V12.9767H29.0473V12.8989H29.125V12.8212H29.2803V12.7435H29.4357V12.6658H29.591V12.5881H29.6687V12.5104H29.824V12.4327H29.9793V12.355H30.1347V12.2773H30.2123V12.1996H30.3677V12.1219H30.523V12.0442H30.6783V11.9665H30.756V11.8888H30.9113V11.8111H31.0667V11.7334H31.1443V11.6557H31.2997V11.578H31.455V11.5003H31.6103V11.4226H31.688V11.3449H31.8433V11.2672H31.9987V11.1895H32.154V11.1117H32.2317V11.034H32.387V10.9563H32.5423V10.8786H32.6977V10.8009H32.7753V10.7232H32.9307V10.6455H33.086V10.5678H33.1637V10.4901H33.319V10.4124H33.4743V10.3347H33.6297V10.257H33.7073V10.1793H33.8627V10.1016H34.018V10.0239H34.1733V9.94618H34.251V9.86848H34.4063V9.79077H34.5617V9.71307H34.717V9.63536H34.7947V9.55766H34.95V9.47996H35.1053V9.40225H35.183V9.32455H35.3383V9.24684H35.4937V9.16914H35.649V9.09143H35.7267V9.01373H35.882V8.93603H36.0373V8.85832H36.1927V8.78062H36.2703V8.70291H36.4257V8.62521H36.581V8.5475H36.6587V8.4698H36.814V8.3921H36.9693V8.31439H37.1247V8.23669H37.2023V8.15898H37.3577V8.08128H37.513V8.00357H37.6683V7.92587H37.746V7.84817H37.9013V7.77046H38.0567V7.69276H38.212V7.61505H38.2897V7.53735H38.445V7.45964H38.6003V7.38194H38.678V7.30423H38.8333V7.22653H38.9887V7.14883H39.144V7.07112H39.2217V6.99342H39.377V6.91571H39.5323V6.83801H39.6877V6.7603H39.7653V6.6826H39.9207V6.6049H40.076V6.52719H40.2313V6.44949H40.309V6.37178H40.4643V6.29408H40.6197V6.21637H40.6973V6.13867H40.8527V6.06097H41.008V5.98326H41.1633V5.90556H41.241V5.82785H41.3963V5.75015H41.5517V5.67244H41.707V5.59474H41.7847V5.51704H41.94V5.43933H42.0953V5.36163H42.2507V5.28392H42.3283V5.20622H42.4837V5.12851H42.639V5.05081H42.7167V4.9731H42.872V4.8954H43.0273V4.8177H43.1827V4.73999H43.2603V4.66229H43.4157V4.58458H43.571V4.50688H43.7263V4.42917H43.804V4.35147H43.9593V4.27377H44.1147V4.19606H44.1923V4.11836H44.3477V4.04065H44.503V3.96295H44.6583V3.88524H44.736V3.80754H44.8913V3.72984H45.0467V3.65213H45.202V3.57443H45.2797V3.49672H45.435V3.41902H45.5903V3.34131H45.7457V3.26361H45.8233V3.18591H45.9787V3.1082H46.134V3.0305H46.2117V2.95279H46.367V2.87509H46.5223V2.79738H46.6777V2.71968H46.7553V2.64197H46.9107V2.56427H47.066V2.48657H47.299V2.40886H47.4543V2.33116H47.6097V2.25345H47.765V2.17575H47.9203V2.09804H48.0757V2.02034H48.3087V1.94264H48.464V1.86493H48.6193V1.78723H48.7747V1.70952H48.93V1.63182H49.163V1.55411H49.396V1.47641H49.629V1.39871H49.862V1.321H50.095V1.2433H50.328V1.16559H50.561V1.08789H50.794V1.01018H51.027V0.932479H51.26V0.854775H51.493V0.777071H51.8037V0.699366H52.192V0.621662H52.5803V0.543958H52.9687V0.466253H53.357V0.388549H53.7453V0.310845H54.2113V0.23314H54.755V0.155436H55.6093V0.0777318H56.5413V2.75001e-05H58.1723V0.0777318H59.1043V0.155436H59.9587V0.23314H60.5023V0.310845H60.9683V0.388549H61.3567V0.466253H61.745V0.543958H62.1333V0.621662H62.5217V0.699366H62.91V0.777071H63.2207V0.854775H63.4537V0.932479H63.6867V1.01018H63.9197V1.08789H64.1527V1.16559H64.3857V1.2433H64.6187V1.321H64.8517V1.39871H65.0847V1.47641H65.3177V1.55411H65.5507V1.63182H65.7837V1.70952H65.939V1.78723H66.0943V1.86493H66.2497V1.94264H66.4827V2.02034H66.638V2.09804H66.7933V2.17575H66.9487V2.25345H67.104V2.33116H67.2593V2.40886H67.4147V2.48657H67.6477V2.56427H67.803V2.64197H67.9583V2.71968H68.036V2.79738H68.1913V2.87509H68.3467V2.95279H68.502V3.0305H68.5797V3.1082H68.735V3.18591H68.8903V3.26361H69.0457V3.34131H69.1233V3.41902H69.2787V3.49672H69.434V3.57443H69.5117V3.65213H69.667V3.72984H69.8223V3.80754H69.9777V3.88524H70.0553V3.96295H70.2107V4.04065H70.366V4.11836H70.5213V4.19606H70.599V4.27377H70.7543V4.35147H70.9097V4.42917H71.065V4.50688H71.1427V4.58458H71.298V4.66229H71.4533V4.73999H71.531V4.8177H71.6863V4.8954H71.8417V4.9731H71.997V5.05081H72.0747V5.12851H72.23V5.20622H72.3853V5.28392H72.5407V5.36163H72.6183V5.43933H72.7737V5.51704H72.929V5.59474H73.0067V5.67244H73.162V5.75015H73.3173V5.82785H73.4727V5.90556H73.5503V5.98326H73.7057V6.06097H73.861V6.13867H74.0163V6.21637H74.094V6.29408H74.2493V6.37178H74.4047V6.44949H74.56V6.52719H74.6377V6.6049H74.793V6.6826H74.9483V6.7603H75.026V6.83801H75.1813V6.91571H75.3367V6.99342H75.492V7.07112H75.5697V7.14883H75.725V7.22653H75.8803V7.30423H76.0357V7.38194H76.1133V7.45964H76.2687V7.53735H76.424V7.61505H76.5793V7.69276H76.657V7.77046H76.8123V7.84817H76.9677V7.92587H77.0453V8.00357H77.2007V8.08128H77.356V8.15898H77.5113V8.23669H77.589V8.31439H77.7443V8.3921H77.8997V8.4698H78.055V8.5475H78.1327V8.62521H78.288V8.70291H78.4433V8.78062H78.521V8.85832H78.6763V8.93603H78.8317V9.01373H78.987V9.09143H79.0647V9.16914H79.22V9.24684H79.3753V9.32455H79.5307V9.40225H79.6083V9.47996H79.7637V9.55766H79.919V9.63536H80.0743V9.71307H80.152V9.79077H80.3073V9.86848H80.4627V9.94618H80.5403V10.0239H80.6957V10.1016H80.851V10.1793H81.0063V10.257H81.084V10.3347H81.2393V10.4124H81.3947V10.4901H81.55V10.5678H81.6277V10.6455H81.783V10.7232H81.9383V10.8009H82.0937V10.8786H82.1713V10.9563H82.3267V11.034H82.482V11.1117H82.5597V11.1895H82.715V11.2672H82.8703V11.3449H83.0257V11.4226H83.1033V11.5003H83.2587V11.578H83.414V11.6557H83.5693V11.7334H83.647V11.8111H83.8023V11.8888H83.9577V11.9665H84.113V12.0442H84.1907V12.1219H84.346V12.1996H84.5013V12.2773H84.579V12.355H84.7343V12.4327H84.8897V12.5104H85.045V12.5881H85.1227V12.6658H85.278V12.7435H85.4333V12.8212H85.5887V12.8989H85.6663V12.9767H85.8217V13.0544H85.977V13.1321H86.0547V13.2098H86.21V13.2875H86.3653V13.3652H86.5207V13.4429H86.5983V13.5206H86.7537V13.5983H86.909V13.676H87.0643V13.7537H87.142V13.8314H87.2973V13.9091H87.4527V13.9868H87.608V14.0645H87.6857V14.1422H87.841V14.2199H87.9963V14.2976H88.074V14.3753H88.2293V14.453H88.3847V14.5307H88.54V14.6084H88.6177V14.6861H88.773V14.7639H88.9283V14.8416H89.0837V14.9193H89.1613V14.997H89.3167V15.0747H89.472V15.1524H89.6273V15.2301H89.705V15.3078H89.8603V15.3855H90.0157V15.4632H90.0933V15.5409H90.2487V15.6186H90.404V15.6963H90.5593V15.774H90.637V15.8517H90.7923V15.9294H90.9477V16.0071H91.103V16.0848H91.1807V16.1625H91.336V16.2402H91.4913V16.3179H91.6467V16.3956H91.7243V16.4733H91.8797V16.5511H92.035V16.6288H92.1127V16.7065H92.268V16.7842H92.4233V16.8619H92.5787V16.9396H92.6563V17.0173H92.8117V17.095H92.967V17.1727H93.1223V17.2504H93.2V17.3281H93.3553V17.4058H93.5107V17.4835H93.5883V17.5612H93.7437V17.6389H93.899V17.7166H94.0543V17.7943H94.132V17.872H94.2873V17.9497H94.4427V18.0274H94.598V18.1051H94.6757V18.1828H94.831V18.2605H94.9863V18.3383H95.1417V18.416H95.2193V18.4937H95.3747V18.5714H95.53V18.6491H95.6077V18.7268H95.763V18.8045H95.9183V18.8822H96.0737V18.9599H96.1513V19.0376H96.3067V19.1153H96.462V19.193H96.6173V19.2707H96.695V19.3484H96.8503V19.4261H97.0057V19.5038H97.161V19.5815H97.2387V19.6592H97.394V19.7369H97.5493V19.8146H97.627V19.8923H97.7823V19.97H97.9377V20.0477H98.093V20.1254H98.1707V20.2032H98.326V20.2809H98.4813V20.3586H98.6367V20.4363H98.7143V20.514H98.8697V20.5917H99.025V20.6694H99.1803V20.7471H99.258V20.8248H99.4133V20.9025H99.5687V20.9802H99.6463V21.0579H99.8017V21.1356H99.957V21.2133H100.112V21.291H100.19V21.3687H100.345V21.4464H100.501V21.5241H100.656V21.6018H100.734V21.6795H100.889V21.7572H101.044V21.8349H101.122V21.9126H101.277V21.9904H101.433V22.0681H101.588V22.1458H101.666V22.2235H101.821V22.3012H101.976V22.3789H102.132V22.4566H102.209V22.5343H102.365V22.612H102.52V22.6897H102.675V22.7674H102.753V22.8451H102.908V22.9228H103.064V23.0005H103.141V23.0782H103.297V23.1559H103.452V23.2336H103.607V23.3113H103.685V23.389H103.84V23.4667H103.996V23.5444H104.073V23.6221H104.229V23.6998H104.384V23.7776H104.462V23.8553H104.617V23.933H104.695V24.0107H104.85V24.0884H104.928V24.1661H105.083V24.2438H105.161V24.3215H105.238V24.3992H105.394V24.4769H105.471V24.5546H105.627V24.6323H105.704V24.71H105.782V24.7877H105.937V24.8654H106.015V24.9431H106.17V25.0208H106.248V25.0985H106.326V25.1762H106.403V25.2539H106.481V25.3316H106.636V25.4093H106.714V25.487H106.792V25.5648H106.869V25.6425H106.947V25.7202H107.102V25.7979H107.18V25.8756H107.258V25.9533H107.335V26.031H107.413V26.1087H107.491V26.1864H107.568V26.2641H107.646V26.3418H107.724V26.4195H107.801V26.4972H107.957V26.5749H108.034V26.6526H108.112V26.7303H108.19V26.808H108.267V26.8857H108.345V26.9634H108.423V27.0411H108.5V27.1188H108.578V27.1965H108.656V27.352H108.733V27.4297H108.811V27.5074H108.889V27.5851H108.966V27.6628H109.044V27.7405H109.122V27.8182H109.199V27.8959H109.277V27.9736H109.355V28.0513H109.432V28.2067H109.51V28.2844H109.588V28.3621H109.665V28.4398H109.743V28.5952H109.821V28.6729H109.898V28.7506H109.976V28.8283H110.054V28.906H110.131V29.0614H110.209V29.1392H110.287V29.2169H110.364V29.3723H110.442V29.45H110.52V29.6054H110.597V29.6831H110.675V29.7608H110.753V29.9162H110.83V29.9939H110.908V30.1493H110.986V30.227H111.063V30.3824H111.141V30.4601H111.219V30.6155H111.296V30.6932H111.374V30.8486H111.452V31.0041H111.529V31.0818H111.607V31.2372H111.685V31.3926H111.762V31.4703H111.84V31.6257H111.918V31.7811H111.995V31.9365H112.073V32.0919H112.151V32.2473H112.228V32.325H112.306V32.4804H112.384V32.6358H112.461V32.7913H112.539V32.9467H112.617V33.1798H112.694V33.3352H112.772V33.4906H112.85V33.646H112.927V33.8014H113.005V34.0345H113.083V34.1899H113.16V34.423H113.238V34.5785H113.316V34.8116H113.393V35.0447H113.471V35.2001H113.549V35.4332H113.626V35.744H113.704V35.9771H113.782V36.2102H113.859V36.4434H113.937V36.7542H114.015V37.065H114.092V37.3758H114.17V37.6866H114.248V38.0752H114.325V38.4637H114.403V38.9299H114.481V39.3961H114.558V40.0178H114.636V40.7948H114.714V42.1935H114.791V83.7653H114.714V85.0086H114.636V85.7079H114.558V86.2518H114.481V86.7958H114.403V87.3397H114.325V87.7282H114.248V88.039H114.17V88.3499H114.092V88.6607H114.015V88.9715H113.937V89.2823H113.859V89.5931H113.782V89.8262H113.704V90.0593H113.626V90.2925H113.549V90.5256H113.471V90.7587H113.393V90.9918H113.316V91.2249H113.238V91.3803H113.16V91.6134H113.083V91.7688H113.005V91.9243H112.927V92.0797H112.85V92.2351H112.772V92.3905H112.694V92.4682H112.617V92.6236H112.539V92.7013H112.461V92.8567H112.384V92.9344H112.306V93.0898H112.228V93.1675H112.151V93.3229H112.073V93.4006H111.995V93.4783H111.918V93.556H111.84V93.6337H111.762V93.7115H111.685V93.7892H111.607V93.8669H111.529V93.9446H111.452V94.0223H111.374V94.1H111.296V94.1777H111.219V94.2554H111.063V94.3331H110.986V94.4108H110.908V94.4885H110.753V94.5662H110.675V94.6439H110.597V94.7216H110.442V94.7993H110.287V94.877H110.131V94.9547H109.976V95.0324H109.898V95.1101H109.743V95.1878H109.51V95.2655H109.355V95.3432H109.122V95.4209H108.889V95.4987H108.656V95.5764H108.267V95.6541H107.957V95.7318H107.18V95.8095H106.403V95.7318H105.627V95.6541H105.238V95.5764H104.85V95.4987H104.617V95.4209H104.384V95.3432H104.229V95.2655H103.996V95.1878H103.84V95.1101H103.685V95.0324H103.53V94.9547H103.374V94.877H103.219V94.7993H103.064V94.7216H102.986V94.6439H102.908V94.5662H102.753V94.4885H102.675V94.4108H102.598V94.3331H102.442V94.2554H102.365V94.1777H102.287V94.1H102.209V94.0223H102.132V93.9446H102.054V93.8669H101.976V93.7892H101.899V93.7115H101.821V93.6337H101.743V93.556H101.666V93.4783H101.588V93.4006H101.51V93.3229H101.433V93.1675H101.355V93.0898H101.277V93.0121H101.2V92.8567H101.122V92.779H101.044V92.7013H100.967V92.5459H100.889V92.3905H100.811V92.2351H100.734V92.0797H100.656V92.002H100.578V91.8465H100.501V91.6134H100.423V91.458H100.345V91.2249H100.268V91.0695H100.19V90.9141H100.112V90.681H100.035V90.5256H99.957V90.3702H99.8793V90.1371H99.8017V89.9816H99.724V89.7485H99.6463V89.5931H99.5687V89.4377H99.491V89.2046H99.4133V89.0492H99.3357V88.8938H99.258V88.6607H99.1803V88.5053H99.1027V88.2721H99.025V88.1167H98.9473V87.9613H98.8697V87.7282H98.792V87.5728H98.7143V87.4174H98.6367V87.1843H98.559V87.0289H98.4813V86.7958H98.4037V86.6404H98.326V86.4849H98.2483V86.2518H98.1707V86.0964H98.093V85.941H98.0153V85.7079H97.9377V85.5525H97.86V85.3194H97.7823V85.164H97.7047V85.0086H97.627V84.7755H97.5493V84.62H97.4717V84.4646H97.394V84.2315H97.3163V84.0761H97.2387V83.9207H97.161V83.6876H97.0833V83.5322H97.0057V83.2991H96.928V83.1437H96.8503V82.9883H96.7727V82.7551H96.695V82.5997H96.6173V82.4443H96.5397V82.2112H96.462V82.0558H96.3843V81.8227H96.3067V81.6673H96.229V81.5119H96.1513V81.2788H96.0737V81.1234H95.996V80.9679H95.9183V80.7348H95.8407V80.5794H95.763V80.3463H95.6853V80.1909H95.6077V80.0355H95.53V79.8024H95.4523V79.647H95.3747V79.4916H95.297V79.2584H95.2193V79.103H95.1417V78.8699H95.064V78.7145H94.9863V78.5591H94.9087V78.326H94.831V78.1706H94.7533V78.0152H94.6757V77.7821H94.598V77.6267H94.5203V77.3935H94.4427V77.2381H94.365V77.0827H94.2873V76.8496H94.2097V76.6942H94.132V76.5388H94.0543V76.3057H93.9767V76.1503H93.899V75.9172H93.8213V75.7618H93.7437V75.6063H93.666V75.3732H93.5883V75.2178H93.5107V75.0624H93.433V74.8293H93.3553V74.6739H93.2777V74.4408H93.2V74.2854H93.1223V74.13H93.0447V73.8968H92.967V73.7414H92.8893V73.586H92.8117V73.3529H92.734V73.1975H92.6563V73.0421H92.5787V72.809H92.501V72.6536H92.4233V72.4205H92.3457V72.2651H92.268V72.1096H92.1903V71.8765H92.1127V71.7211H92.035V71.5657H91.9573V71.3326H91.8797V71.1772H91.802V70.9441H91.7243V70.7887H91.6467V70.6333H91.569V70.4002H91.4913V70.2447H91.4137V70.0893H91.336V69.8562H91.2583V69.7008H91.1807V69.4677H91.103V69.3123H91.0253V69.1569H90.9477V68.9238H90.87V68.7684H90.7923V68.613H90.7147V68.3798H90.637V68.2244H90.5593V67.9913H90.4817V67.8359H90.404V67.6805H90.3263V67.4474H90.2487V67.292H90.171V67.1366H90.0933V66.9035H90.0157V66.748H89.938V66.5149H89.8603V66.3595H89.7827V66.2041H89.705V65.971H89.6273V65.8156H89.5497V65.6602H89.472V65.4271H89.3943V65.2717H89.3167V65.0386H89.239V64.8831H89.1613V64.7277H89.0837V64.4946H89.006V64.3392H88.9283V64.1838H88.8507V63.9507H88.773V63.7953H88.6953V63.5622H88.6177V63.4068H88.54V63.2514H88.4623V63.0182H88.3847V62.8628H88.307V62.7074H88.2293V62.4743H88.1517V62.3189H88.074V62.1635H87.9963V61.9304H87.9187V61.775H87.841V61.5419H87.7633V61.3865H87.6857V61.231H87.608V60.9979H87.5303V60.8425H87.4527V60.6871H87.375V60.454H87.2973V60.2986H87.2197V60.0655H87.142V59.9101H87.0643V59.7547H86.9867V59.5215H86.909V59.3661H86.8313V59.2107H86.7537V58.9776H86.676V58.8222H86.5983V58.5891H86.5207V58.4337H86.443V58.2783H86.3653V58.0452H86.2877V57.8898H86.21V57.7343H86.1323V57.5012H86.0547V57.3458H85.977V57.1127H85.8993V56.9573H85.8217V56.8019H85.744V56.5688H85.6663V56.4134H85.5887V56.258H85.511V56.0249H85.4333V55.8694H85.3557V55.6363H85.278V55.4809H85.2003V55.3255H85.1227V55.0924H85.045V54.937H84.9673V54.7816H84.8897V54.5485H84.812V54.3931H84.7343V54.1599H84.6567V54.0045H84.579V53.8491H84.5013V53.616H84.4237V53.4606H84.346V53.3052H84.2683V53.0721H84.1907V52.9167H84.113V52.6836H84.0353V52.5282H83.9577V52.3727H83.88V52.1396H83.8023V51.9842H83.7247V51.8288H83.647V51.5957H83.5693V51.4403H83.4917V51.2849H83.414V51.0518H83.3363V50.8964H83.2587V50.6633H83.181V50.5078H83.1033V50.3524H83.0257V50.1193H82.948V49.9639H82.8703V49.8085H82.7927V49.5754H82.715V49.42H82.6373V49.1869H82.5597V49.0315H82.482V48.8761H82.4043V48.6429H82.3267V48.4875H82.249V48.3321H82.1713V48.099H82.0937V47.9436H82.016V47.7105H81.9383V47.5551H81.8607V47.3997H81.783V47.1666H81.7053V47.0111H81.6277V46.8557H81.55V46.6226H81.4723V46.4672H81.3947V46.2341H81.317V46.0787H81.2393V45.9233H81.1617V45.6902H81.084V45.5348H81.0063V45.3794H80.9287V45.1462H80.851V44.9908H80.7733V44.7577H80.6957V44.6023H80.618V44.4469H80.5403V44.2138H80.4627V44.0584H80.385V43.903H80.3073V43.6699H80.2297V43.5145H80.152V43.2813H80.0743V43.1259H79.9967V42.9705H79.919V42.7374H79.8413V42.582H79.7637V42.4266H79.686V42.1935H79.6083V42.0381H79.5307V41.805H79.453V41.6495H79.3753V41.4941H79.2977V41.261H79.22V41.1056H79.1423V40.9502H79.0647V40.7171H78.987V40.5617H78.9093V40.4063H78.8317V40.1732H78.754V40.0178H78.6763V39.7846H78.5987V39.6292H78.521V39.4738H78.4433V39.2407H78.3657V39.0853H78.288V38.9299H78.2103V38.6968H78.1327V38.5414H78.055V38.3083H77.9773V38.1529H77.8997V37.9974H77.822V37.7643H77.7443V37.6089H77.6667V37.4535H77.589V37.2204H77.5113V37.065H77.4337V36.8319H77.356V36.6765H77.2783V36.5211H77.2007V36.288H77.123V36.1325H77.0453V35.9771H76.9677V35.744H76.89V35.5886H76.8123V35.4332H76.7347V35.2778H76.657V35.1224H76.5793V34.967H76.5017V34.7339H76.424V34.5785H76.3463V34.423H76.2687V34.2676H76.191V34.1899H76.1133V34.0345H76.0357V33.8791H75.958V33.8014H75.8803V33.646H75.8027V33.4906H75.725V33.3352H75.6473V33.2575H75.5697V33.1021H75.492V32.9467H75.4143V32.869H75.3367V32.7136H75.259V32.6358H75.1813V32.4804H75.1037V32.4027H75.026V32.2473H74.9483V32.1696H74.8707V32.0142H74.793V31.9365H74.7153V31.7811H74.6377V31.7034H74.56V31.548H74.4823V31.4703H74.4047V31.3926H74.327V31.3149H74.2493V31.1595H74.1717V31.0818H74.094V31.0041H74.0163V30.9264H73.9387V30.8486H73.861V30.6932H73.7833V30.6155H73.7057V30.5378H73.628V30.4601H73.5503V30.3047H73.4727V30.227H73.395V30.1493H73.3173V30.0716H73.2397V29.9939H73.162V29.9162H73.0843V29.8385H73.0067V29.7608H72.929V29.6831H72.8513V29.6054H72.7737V29.5277H72.696V29.45H72.6183V29.3723H72.5407V29.2946H72.463V29.2169H72.3853V29.0614H72.23V28.9837H72.1523V28.906H72.0747V28.8283H71.997V28.7506H71.9193V28.6729H71.8417V28.5952H71.764V28.5175H71.6863V28.4398H71.6087V28.3621H71.4533V28.2844H71.3757V28.2067H71.298V28.129H71.2203V28.0513H71.1427V27.9736H71.065V27.8959H70.9873V27.8182H70.832V27.7405H70.7543V27.6628H70.6767V27.5851H70.5213V27.5074H70.4437V27.4297H70.366V27.352H70.2107V27.2742H70.133V27.1965H70.0553V27.1188H69.9V27.0411H69.8223V26.9634H69.7447V26.8857H69.5893V26.808H69.5117V26.7303H69.3563V26.6526H69.201V26.5749H69.1233V26.4972H68.968V26.4195H68.8903V26.3418H68.735V26.2641H68.6573V26.1864H68.502V26.1087H68.4243V26.031H68.269V25.9533H68.1137V25.8756H67.9583V25.7979H67.803V25.7202H67.6477V25.6425H67.57V25.5648H67.4147V25.487H67.2593V25.4093H67.104V25.3316H66.9487V25.2539H66.7933V25.1762H66.638V25.0985H66.405V25.0208H66.2497V24.9431H66.0943V24.8654H65.939V24.7877H65.706V24.71H65.5507V24.6323H65.3177V24.5546H65.1623V24.4769H64.9293V24.3992H64.6963V24.3215H64.4633V24.2438H64.2303V24.1661H63.9973V24.0884H63.7643V24.0107H63.4537V23.933H63.2207V23.8553H62.91V23.7776H62.5993V23.6998H62.2887V23.6221H61.9003V23.5444H61.4343V23.4667H61.046V23.389H60.5023V23.3113H59.7257V23.2336H58.716V23.1559H56.9297V23.2336H55.7647V23.3113H55.0657V23.389H54.5997V23.4667H54.1337V23.5444H53.7453V23.6221H53.4347V23.6998H53.0463V23.7776H52.7357V23.8553H52.425V23.933H52.192V24.0107H51.8813V24.0884H51.6483V24.1661H51.4153V24.2438H51.1823V24.3215H50.9493V24.3992H50.794V24.4769H50.561V24.5546H50.328V24.6323H50.1727V24.71H49.9397V24.7877H49.7843V24.8654H49.629V24.9431H49.4737V25.0208H49.2407V25.0985H49.0853V25.1762H48.93V25.2539H48.7747V25.3316H48.6193V25.4093H48.464V25.487H48.3087V25.5648H48.1533V25.6425H48.0757V25.7202H47.9203V25.7979H47.765V25.8756H47.6097V25.9533H47.4543V26.031H47.3767V26.1087H47.2213V26.1864H47.1437V26.2641H46.9883V26.3418H46.833V26.4195H46.7553V26.4972H46.6V26.5749H46.4447V26.6526H46.367V26.7303H46.2893V26.808H46.134V26.8857H46.0563V26.9634H45.901V27.0411H45.8233V27.1188H45.7457V27.1965H45.5903V27.2742H45.5127V27.352H45.3573V27.4297H45.2797V27.5074H45.202V27.5851H45.1243V27.6628H44.969V27.7405H44.8913V27.8182H44.8137V27.8959H44.736V27.9736H44.6583V28.0513H44.503V28.129H44.4253V28.2067H44.3477V28.2844H44.27V28.3621H44.1923V28.4398H44.1147V28.5175H44.037V28.5952H43.8817V28.6729H43.804V28.7506H43.7263V28.8283H43.6487V28.906H43.571V28.9837H43.4933V29.0614H43.4157V29.1392H43.338V29.2169H43.2603V29.2946H43.1827V29.3723H43.105V29.45H43.0273V29.5277H42.9497V29.6054H42.872V29.6831H42.7943V29.7608H42.7167V29.8385H42.639V29.9162H42.5613V29.9939H42.4837V30.0716H42.406V30.227H42.3283V30.3047H42.2507V30.3824H42.173V30.4601H42.0953V30.5378H42.0177V30.6155H41.94V30.7709H41.8623V30.8486H41.7847V30.9264H41.707V31.0041H41.6293V31.0818H41.5517V31.2372H41.474V31.3149H41.3963V31.3926H41.3187V31.4703H41.241V31.6257H41.1633V31.7034H41.0857V31.8588H41.008V31.9365H40.9303V32.0142H40.8527V32.1696H40.775V32.2473H40.6973V32.325H40.6197V32.4804H40.542V32.5581H40.4643V32.7136H40.3867V32.869H40.309V32.9467H40.2313V33.1021H40.1537V33.1798H40.076V33.3352H39.9983V33.4129H39.9207V33.5683H39.843V33.7237H39.7653V33.8014H39.6877V33.9568H39.61V34.1122H39.5323V34.2676H39.4547V34.423H39.377V34.5008H39.2993V34.6562H39.2217V34.8116H39.144V34.967H39.0663V35.1224H38.9887V35.2778H38.911V35.4332H38.8333V35.5886H38.7557V35.744H38.678V35.8994H38.6003V36.1325H38.5227V36.288H38.445V36.4434H38.3673V36.6765H38.2897V36.8319H38.212V36.9873H38.1343V37.2204H38.0567V37.3758H37.979V37.5312H37.9013V37.7643H37.8237V37.9197H37.746V38.0752H37.6683V38.3083H37.5907V38.4637H37.513V38.6191H37.4353V38.8522H37.3577V39.0076H37.28V39.163H37.2023V39.3961H37.1247V39.5515H37.047V39.7069H36.9693V39.8624H36.8917V40.0955H36.814V40.2509H36.7363V40.4063H36.6587V40.6394H36.581V40.7948H36.5033V40.9502H36.4257V41.1833H36.348V41.3387H36.2703V41.4941H36.1927V41.7273H36.115V41.8827H36.0373V42.0381H35.9597V42.2712H35.882V42.4266H35.8043V42.582H35.7267V42.8151H35.649V42.9705H35.5713V43.1259H35.4937V43.359H35.416V43.5145H35.3383V43.6699H35.2607V43.8253H35.183V44.0584H35.1053V44.2138H35.0277V44.3692H34.95V44.6023H34.8723V44.7577H34.7947V44.9131H34.717V45.1462H34.6393V45.3017H34.5617V45.4571H34.484V45.6902H34.4063V45.8456H34.3287V46.001H34.251V46.2341H34.1733V46.3895H34.0957V46.5449H34.018V46.778H33.9403V46.9334H33.8627V47.0889H33.785V47.322H33.7073V47.4774H33.6297V47.6328H33.552V47.7882H33.4743V48.0213H33.3967V48.1767H33.319V48.3321H33.2413V48.5652H33.1637V48.7206H33.086V48.8761H33.0083V49.1092H32.9307V49.2646H32.853V49.42H32.7753V49.6531H32.6977V49.8085H32.62V49.9639H32.5423V50.197H32.4647V50.3524H32.387V50.5078H32.3093V50.741H32.2317V50.8964H32.154V51.0518H32.0763V51.2849H31.9987V51.4403H31.921V51.5957H31.8433V51.7511H31.7657V51.9842H31.688V52.1396H31.6103V52.295H31.5327V52.5282H31.455V52.6836H31.3773V52.839H31.2997V53.0721H31.222V53.2275H31.1443V53.3829H31.0667V53.616H30.989V53.7714H30.9113V53.9268H30.8337V54.1599H30.756V54.3154H30.6783V54.4708H30.6007V54.7039H30.523V54.8593H30.4453V55.0147H30.3677V55.2478H30.29V55.4032H30.2123V55.5586H30.1347V55.714H30.057V55.9471H29.9793V56.1026H29.9017V56.258H29.824V56.4911H29.7463V56.6465H29.6687V56.8019H29.591V57.035H29.5133V57.1904H29.4357V57.3458H29.358V57.5789H29.2803V57.7343H29.2027V57.8898H29.125V58.1229H29.0473V58.2783H28.9697V58.4337H28.892V58.6668H28.8143V58.8222H28.7367V58.9776H28.659V59.2107H28.5813V59.3661H28.5037V59.5215H28.426V59.677H28.3483V59.9101H28.2707V60.0655H28.193V60.2209H28.1153V60.454H28.0377V60.6094H27.96V60.7648H27.8823V60.9979H27.8047V61.1533H27.727V61.3087H27.6493V61.5419H27.5717V61.6973H27.494V61.8527H27.4163V62.0858H27.3387V62.2412H27.261V62.3966H27.1833V62.6297H27.1057V62.7851H27.028V62.9405H26.9503V63.1737H26.8727V63.3291H26.795V63.4845H26.7173V63.6399H26.6397V63.873H26.562V64.0284H26.4843V64.1838H26.4067V64.4169H26.329V64.5723H26.2513V64.7277H26.1737V64.9608H26.096V65.1163H26.0183V65.2717H25.9407V65.5048H25.863V65.6602H25.7853V65.8156H25.7077V66.0487H25.63V66.2041H25.5523V66.3595H25.4747V66.5926H25.397V66.748H25.3193V66.9035H25.2417V67.1366H25.164V67.292H25.0863V67.4474H25.0087V67.6028H24.931V67.8359H24.8533V67.9913H24.7757V68.1467H24.698V68.3798H24.6203V68.5352H24.5427V68.6907H24.465V68.9238H24.3873V69.0792H24.3097V69.2346H24.232V69.4677H24.1543V69.6231H24.0767V69.7785H23.999V70.0116H23.9213V70.167H23.8437V70.3224H23.766V70.5556H23.6883V70.711H23.6107V70.8664H23.533V71.0995H23.4553V71.2549H23.3777V71.4103H23.3V71.5657H23.2223V71.7988H23.1447V71.9542H23.067V72.1096H22.9893V72.3428H22.9117V72.4982H22.834V72.6536H22.7563V72.8867H22.6787V73.0421H22.601V73.1975H22.5233V73.4306H22.4457V73.586H22.368V73.7414H22.2903V73.9746H22.2127V74.13H22.135V74.2854H22.0573V74.5185H21.9797V74.6739H21.902V74.8293H21.8243V75.0624H21.7467V75.2178H21.669V75.3732H21.5913V75.5286H21.5137V75.7618H21.436V75.9172H21.3583V76.0726H21.2807V76.3057H21.203V76.4611H21.1253V76.6165H21.0477V76.8496H20.97V77.005H20.8923V77.1604H20.8147V77.3935H20.737V77.549H20.6593V77.7044H20.5817V77.9375H20.504V78.0929H20.4263V78.2483H20.3487V78.4814H20.271V78.6368H20.1933V78.7922H20.1157V78.9476H20.038V79.1807H19.9603V79.3362H19.8827V79.4916H19.805V79.7247H19.7273V79.8801H19.6497V80.0355H19.572V80.2686H19.4943V80.424H19.4167V80.5794H19.339V80.8125H19.2613V80.9679H19.1837V81.1234H19.106V81.3565H19.0283V81.5119H18.9507V81.6673H18.873V81.9004H18.7953V82.0558H18.7177V82.2112H18.64V82.4443H18.5623V82.5997H18.4847V82.7551H18.407V82.9106H18.3293V83.1437H18.2517V83.2991H18.174V83.4545H18.0963V83.6876H18.0187V83.843H17.941V83.9984H17.8633V84.2315H17.7857V84.3869H17.708V84.5423H17.6303V84.7755H17.5527V84.9309H17.475V85.0863H17.3973V85.3194H17.3197V85.4748H17.242V85.6302H17.1643V85.8633H17.0867V86.0187H17.009V86.1741H16.9313V86.4072H16.8537V86.5627H16.776V86.7181H16.6983V86.8735H16.6207V87.1066H16.543V87.262H16.4653V87.4174H16.3877V87.6505H16.31V87.8059H16.2323V87.9613H16.1547V88.1944H16.077V88.3499H15.9993V88.5053H15.9217V88.7384H15.844V88.8938H15.7663V89.0492H15.6887V89.2823H15.611V89.4377H15.5333V89.5931H15.4557V89.8262H15.378V89.9816H15.3003V90.1371H15.2227V90.3702H15.145V90.5256H15.0673V90.681H14.9897V90.8364H14.912V91.0695H14.8343V91.2249H14.7567V91.3803H14.679V91.6134H14.6013V91.7688H14.5237V91.9243H14.446V92.1574H14.3683V92.3128H14.2907V92.4682H14.213V92.6236H14.1353V92.779H14.0577V92.8567H13.98V93.0121H13.9023V93.1675H13.8247V93.2452H13.747V93.3229H13.6693V93.4783H13.5917V93.556H13.514V93.6337H13.4363V93.7892H13.3587V93.8669H13.281V93.9446H13.2033V94.0223H13.1257V94.1H13.048V94.1777H12.9703V94.2554H12.8927V94.3331H12.815V94.4108H12.7373V94.4885H12.6597V94.5662H12.582V94.6439H12.5043V94.7216H12.4267V94.7993H12.2713V94.877H12.1937V94.9547H12.0383V95.0324H11.9607V95.1101H11.883V95.1878H11.7277V95.2655H11.5723V95.3432H11.417V95.4209H11.3393V95.4987H11.184V95.5764H11.0287V95.6541H10.7957V95.7318H10.6403V95.8095H10.4073V95.8872H10.1743V95.9649H9.86367V96.0426H9.553V96.1203H9.16467V96.198H8.23267V96.2757" fill="url(#paint1_linear_36_2644)"/>
<defs>
<linearGradient id="paint0_linear_36_2644" x1="-51.5706" y1="-7.92572" x2="-14.5118" y2="148.973" gradientUnits="userSpaceOnUse">
<stop stop-color="#00DDFF"/>
<stop offset="1" stop-color="#FF00D4"/>
</linearGradient>
<linearGradient id="paint1_linear_36_2644" x1="0.271915" y1="-38.8133" x2="134.416" y2="73.1622" gradientUnits="userSpaceOnUse">
<stop stop-color="#00DDFF"/>
<stop offset="1" stop-color="#FF00D4"/>
</linearGradient>
</defs>
</svg>
