<svg xmlns="http://www.w3.org/2000/svg" viewBox="0 0 56 40"><path d="M13.28,0C5.83,0,0,3.92,0,8.92c0,.23,0,.46.05.69A1.86,1.86,0,0,0,0,10V29.94a1.93,1.93,0,0,0,.05.42c0,.24,0,.48,0,.72C0,36.08,5.83,40,13.28,40s13.27-3.92,13.27-8.92a6.16,6.16,0,0,0-.05-.75,2.45,2.45,0,0,0,0-.39V23.86c0-.06,0-.11,0-.17s0-.11,0-.16V16.47s0-.11,0-.16,0-.11,0-.17V10a2.34,2.34,0,0,0,0-.39,5.68,5.68,0,0,0,.05-.72C26.55,3.92,20.72,0,13.28,0ZM3.91,22.69a17.13,17.13,0,0,0,9.37,2.54,17.11,17.11,0,0,0,9.36-2.54,2.55,2.55,0,0,1,.2.89v.23a2.6,2.6,0,0,1-.2.89,3.94,3.94,0,0,1-.41.71v0a5.39,5.39,0,0,1-.61.69v0a8,8,0,0,1-1.78,1.24,14.08,14.08,0,0,1-6.54,1.48,14.09,14.09,0,0,1-6.55-1.48A8,8,0,0,1,5,26.14v0a5.39,5.39,0,0,1-.61-.69h0a3.7,3.7,0,0,1-.4-.72,2.67,2.67,0,0,1-.22-1A2.56,2.56,0,0,1,3.91,22.69ZM3.7,16.31a2.65,2.65,0,0,1,.21-1,17.13,17.13,0,0,0,9.37,2.55,17.12,17.12,0,0,0,9.36-2.55,2.66,2.66,0,0,1,.2.89v.24a2.55,2.55,0,0,1-.2.88,4.4,4.4,0,0,1-.41.72h0a4.31,4.31,0,0,1-.61.69v0A8,8,0,0,1,19.82,20a14.08,14.08,0,0,1-6.54,1.48A14.09,14.09,0,0,1,6.73,20,8,8,0,0,1,5,18.75v0A4.31,4.31,0,0,1,4.33,18h0a3.7,3.7,0,0,1-.4-.72A2.58,2.58,0,0,1,3.7,16.31Zm9.58,19.94c-5.65,0-9.58-2.73-9.58-5.17a2.61,2.61,0,0,1,.21-1,17.13,17.13,0,0,0,9.37,2.55,17.12,17.12,0,0,0,9.36-2.55,2.61,2.61,0,0,1,.21,1C22.85,33.52,18.92,36.25,13.28,36.25ZM22.64,9.93a4.4,4.4,0,0,1-.41.72h0a4.31,4.31,0,0,1-.61.69v0a8.34,8.34,0,0,1-1.78,1.25,14.09,14.09,0,0,1-6.54,1.47,14.1,14.1,0,0,1-6.55-1.47A8.34,8.34,0,0,1,5,11.37v0a4.31,4.31,0,0,1-.61-.69h0a3.7,3.7,0,0,1-.4-.72,2.63,2.63,0,0,1-.22-1c0-2.44,3.93-5.17,9.58-5.17s9.57,2.73,9.57,5.17A2.81,2.81,0,0,1,22.64,9.93Z"/><path d="M56,29.94V23.87c0-.06,0-.12,0-.18,0-5-5.83-8.92-13.28-8.92s-13.27,3.92-13.27,8.92v6.25a1.93,1.93,0,0,0,.05.42,5.81,5.81,0,0,0-.05.72c0,5,5.83,8.92,13.27,8.92S56,36.08,56,31.08c0-.26,0-.5,0-.75A2.58,2.58,0,0,0,56,29.94ZM42.72,18.52c5.6,0,9.51,2.68,9.58,5.11a.13.13,0,0,0,0,.06v.14a2.83,2.83,0,0,1-.21.87,3.7,3.7,0,0,1-.4.72h0a5.39,5.39,0,0,1-.61.69v0a8,8,0,0,1-1.78,1.24,14.09,14.09,0,0,1-6.55,1.48,14.08,14.08,0,0,1-6.54-1.48,8,8,0,0,1-1.78-1.24v0a5.39,5.39,0,0,1-.61-.69v0a3.94,3.94,0,0,1-.41-.71,2.85,2.85,0,0,1-.21-1C33.15,21.25,37.08,18.52,42.72,18.52Zm0,17.73c-5.64,0-9.57-2.73-9.57-5.17a2.61,2.61,0,0,1,.21-1,17.12,17.12,0,0,0,9.36,2.55,17.13,17.13,0,0,0,9.37-2.55,2.61,2.61,0,0,1,.21,1C52.3,33.52,48.37,36.25,42.72,36.25Z"/></svg>