<svg xmlns="http://www.w3.org/2000/svg" viewBox="0 0 40 40"><path d="M27,13.14V10a1.75,1.75,0,0,0,0-.4A5.67,5.67,0,0,0,27,8.92C27,3.92,21,0,13.48,0S0,3.92,0,8.92c0,.23,0,.46.05.69A1.86,1.86,0,0,0,0,10V29.94a1.93,1.93,0,0,0,.05.42c0,.24,0,.48,0,.72C0,36.08,5.92,40,13.48,40a18.92,18.92,0,0,0,7.22-1.36A13.43,13.43,0,1,0,27,13.14ZM13.48,3.76c5.74,0,9.73,2.72,9.73,5.16a2.63,2.63,0,0,1-.22,1,4,4,0,0,1-.39.69l0,0-.25.3a.27.27,0,0,1-.07.08,4.11,4.11,0,0,1-.29.3l0,0a8.05,8.05,0,0,1-1.79,1.24,14.51,14.51,0,0,1-6.65,1.47,14.54,14.54,0,0,1-6.65-1.47,8.21,8.21,0,0,1-1.78-1.24l0,0c-.11-.1-.2-.21-.3-.31L4.65,11l-.25-.3,0,0A4,4,0,0,1,4,9.93a2.63,2.63,0,0,1-.22-1C3.76,6.48,7.75,3.76,13.48,3.76ZM4,15.3a17.6,17.6,0,0,0,9.51,2.55,21.58,21.58,0,0,0,3.06-.23,13.37,13.37,0,0,0-2.42,3.83c-.21,0-.42,0-.64,0A14.53,14.53,0,0,1,6.83,20a8.56,8.56,0,0,1-1.78-1.23l0,0-.3-.3-.06-.08-.25-.3,0-.05A3.67,3.67,0,0,1,4,17.31a2.58,2.58,0,0,1-.22-1A2.65,2.65,0,0,1,4,15.3Zm0,7.39a17.53,17.53,0,0,0,9.21,2.53,11.9,11.9,0,0,0-.07,1.34,13.47,13.47,0,0,0,.21,2.3,14.47,14.47,0,0,1-6.49-1.48,8.19,8.19,0,0,1-1.78-1.23l0,0c-.11-.1-.2-.2-.3-.3l-.06-.08-.25-.3,0,0A4,4,0,0,1,4,24.7a2.67,2.67,0,0,1-.22-1A2.56,2.56,0,0,1,4,22.69Zm9.51,13.55c-5.73,0-9.72-2.72-9.72-5.16a2.61,2.61,0,0,1,.21-1,17.6,17.6,0,0,0,9.51,2.55c.36,0,.72,0,1.07,0a13.37,13.37,0,0,0,2.34,3.32A16.46,16.46,0,0,1,13.48,36.24Zm13.07,0a9.69,9.69,0,1,1,9.69-9.68A9.7,9.7,0,0,1,26.55,36.24Z"/><path d="M28.43,25.7v-5a1.88,1.88,0,0,0-3.75,0v5.92c0,.06,0,.13,0,.19l0,.17.06.18.06.17.09.16.09.15.12.14a.86.86,0,0,0,.13.14l0,.05,3.4,2.93a1.91,1.91,0,0,0,1.23.45,1.88,1.88,0,0,0,1.22-3.3Z"/></svg>