<svg xmlns="http://www.w3.org/2000/svg" viewBox="0 0 38 40"><path d="M27.26,14.11V10a1.75,1.75,0,0,0-.05-.4,5.67,5.67,0,0,0,.06-.71c0-5-6-8.92-13.63-8.92S0,3.92,0,8.92c0,.23,0,.46.05.69A1.86,1.86,0,0,0,0,10V29.94a1.93,1.93,0,0,0,.05.42c0,.24,0,.48,0,.72C0,36.08,6,40,13.64,40a18.27,18.27,0,0,0,9-2.17,12.12,12.12,0,1,0,4.63-23.72ZM13.64,3.76c5.79,0,9.83,2.72,9.83,5.16a2.63,2.63,0,0,1-.22,1,4.09,4.09,0,0,1-.4.69l0,0-.25.3a.27.27,0,0,1-.07.08,4.11,4.11,0,0,1-.29.3l-.05,0a8.13,8.13,0,0,1-1.8,1.24,14.82,14.82,0,0,1-6.72,1.47,14.84,14.84,0,0,1-6.73-1.47A8.2,8.2,0,0,1,5.1,11.38l0,0L4.77,11A.27.27,0,0,1,4.7,11l-.25-.3,0,0A4.09,4.09,0,0,1,4,9.93a2.63,2.63,0,0,1-.22-1C3.8,6.48,7.84,3.76,13.64,3.76ZM4,15.3a17.92,17.92,0,0,0,9.62,2.55,21.06,21.06,0,0,0,3.43-.29,12.14,12.14,0,0,0-2.64,3.88c-.26,0-.52,0-.79,0A14.83,14.83,0,0,1,6.91,20,8.54,8.54,0,0,1,5.1,18.77l0,0-.29-.3-.07-.08-.25-.3,0-.05a3.73,3.73,0,0,1-.4-.69,2.58,2.58,0,0,1-.22-1A2.49,2.49,0,0,1,4,15.3Zm0,7.39a17.89,17.89,0,0,0,9.5,2.54c0,.3,0,.59,0,.89a12.37,12.37,0,0,0,.32,2.74h-.16a14.83,14.83,0,0,1-6.73-1.48A8.18,8.18,0,0,1,5.1,26.15l0,0-.29-.3-.07-.08-.25-.3,0,0A4.09,4.09,0,0,1,4,24.7a2.67,2.67,0,0,1-.22-1A2.41,2.41,0,0,1,4,22.69Zm9.62,13.55c-5.8,0-9.84-2.72-9.84-5.16a2.46,2.46,0,0,1,.22-1,17.92,17.92,0,0,0,9.62,2.55c.58,0,1.15,0,1.72-.08a12.12,12.12,0,0,0,2.8,3.09A16.47,16.47,0,0,1,13.64,36.24Zm12.1-1.39a8.43,8.43,0,0,1-1-.06l-.23,0c-.26,0-.52-.08-.77-.13l-.2-.06a7.19,7.19,0,0,1-.79-.24l-.12,0a8.64,8.64,0,0,1-.88-.38,9,9,0,0,1-2.63-2,8.65,8.65,0,0,1-1.87-3.4,8.36,8.36,0,0,1-.34-2.36A8.92,8.92,0,0,1,17,25a9.28,9.28,0,0,1,.24-1.19h0a8.56,8.56,0,0,1,.91-2.1l.09-.15a9.57,9.57,0,0,1,.64-.89A8.83,8.83,0,0,1,23,17.85a5.08,5.08,0,0,1,.52-.15l.25-.06.45-.1.41-.06.35,0a7.2,7.2,0,0,1,.81,0,6.79,6.79,0,0,1,.78,0c.25,0,.49,0,.74.09a8.72,8.72,0,0,1-1.52,17.32Z"/><path d="M30,24,30,23.93a1,1,0,0,0,0-.17V22.47a4.23,4.23,0,0,0-4.22-4.2h0a4.23,4.23,0,0,0-4.22,4.2v1.29a1.24,1.24,0,0,0,0,.16l-.12.06a2.54,2.54,0,0,0-1.29,2.21v3.44a2.54,2.54,0,0,0,1.29,2.21l3,1.73a2.65,2.65,0,0,0,2.59,0l3-1.73a2.54,2.54,0,0,0,1.29-2.21V26.19A2.54,2.54,0,0,0,30,24ZM26.56,28.3h0V30a.8.8,0,0,1-1.6,0V28.3A1.7,1.7,0,0,1,24,26.79a1.74,1.74,0,0,1,3.47,0A1.71,1.71,0,0,1,26.56,28.3Zm1.14-5.67h0L27,22.26a2.6,2.6,0,0,0-2.59,0l-.65.37h0v-.16a2,2,0,0,1,3.92,0Z"/></svg>