<svg xmlns="http://www.w3.org/2000/svg" viewBox="0 0 40 40"><path d="M9.1,25.93h3.47a1.25,1.25,0,0,0,1.25-1.26V21.19a1.25,1.25,0,0,0-1.25-1.26H9.1a1.25,1.25,0,0,0-1.25,1.26v3.48A1.25,1.25,0,0,0,9.1,25.93Z"/><path d="M18.27,25.93h3.48A1.25,1.25,0,0,0,23,24.67V21.19a1.25,1.25,0,0,0-1.25-1.26H18.27A1.25,1.25,0,0,0,17,21.19v3.48A1.25,1.25,0,0,0,18.27,25.93Z"/><path d="M27.29,25.93h3.47A1.25,1.25,0,0,0,32,24.67V21.19a1.25,1.25,0,0,0-1.25-1.26H27.29A1.25,1.25,0,0,0,26,21.19v3.48A1.25,1.25,0,0,0,27.29,25.93Z"/><path d="M9.09,33.43h3.47a1.25,1.25,0,0,0,1.25-1.26V28.69a1.25,1.25,0,0,0-1.25-1.26H9.09a1.25,1.25,0,0,0-1.25,1.26v3.48A1.25,1.25,0,0,0,9.09,33.43Z"/><path d="M18.26,33.43h3.48A1.25,1.25,0,0,0,23,32.17V28.69a1.25,1.25,0,0,0-1.25-1.26H18.26A1.25,1.25,0,0,0,17,28.69v3.48A1.25,1.25,0,0,0,18.26,33.43Z"/><path d="M27.28,33.43h3.47A1.25,1.25,0,0,0,32,32.17V28.69a1.25,1.25,0,0,0-1.25-1.26H27.28A1.25,1.25,0,0,0,26,28.69v3.48A1.25,1.25,0,0,0,27.28,33.43Z"/><path d="M33.7,7.34V4.7a4.69,4.69,0,1,0-9.38,0V7.31H15.51V4.7a4.69,4.69,0,1,0-9.37,0V7.35A6.9,6.9,0,0,0,0,14.21V33.1A6.89,6.89,0,0,0,6.88,40H33.12A6.89,6.89,0,0,0,40,33.1V14.21A6.9,6.9,0,0,0,33.7,7.34Zm-5.63,0V4.7A.94.94,0,1,1,30,4.7v6.05a.94.94,0,1,1-1.88,0Zm-18.18,0V4.7a.94.94,0,1,1,1.87,0v6.05a.94.94,0,1,1-1.87,0ZM36.25,33.1a3.14,3.14,0,0,1-3.13,3.14H6.88A3.14,3.14,0,0,1,3.75,33.1V16.83h32.5Z"/></svg>