<svg xmlns="http://www.w3.org/2000/svg" viewBox="0 0 40 40"><path d="M17.07,26.16a2.25,2.25,0,0,0,1.61-.59,2.21,2.21,0,0,0,.62-1.68,2.21,2.21,0,0,0-.62-1.68,2.25,2.25,0,0,0-1.61-.59,2.29,2.29,0,0,0-1.62.59,2.21,2.21,0,0,0-.62,1.68,2.17,2.17,0,0,0,.62,1.68A2.29,2.29,0,0,0,17.07,26.16Zm0-3.21q.66,0,.66.93a1.17,1.17,0,0,1-.17.69.56.56,0,0,1-.48.23c-.44,0-.65-.3-.65-.91h0C16.4,23.26,16.61,23,17.05,23Z"/><polygon points="18.78 31.23 23.95 21.77 21.74 21.77 16.56 31.23 18.78 31.23"/><path d="M21.84,27.43a2.49,2.49,0,1,0,1.61-.59A2.23,2.23,0,0,0,21.84,27.43Zm2.25,1.67a1.1,1.1,0,0,1-.17.69.56.56,0,0,1-.48.23c-.43,0-.65-.3-.65-.91a1.2,1.2,0,0,1,.17-.7h0a.61.61,0,0,1,1,0A1.17,1.17,0,0,1,24.09,29.1Z"/><path d="M33.7,7.34V4.7a4.69,4.69,0,1,0-9.38,0V7.31H15.51V4.7a4.69,4.69,0,1,0-9.37,0V7.35A6.9,6.9,0,0,0,0,14.21V33.1A6.89,6.89,0,0,0,6.88,40H33.12A6.89,6.89,0,0,0,40,33.1V14.21A6.9,6.9,0,0,0,33.7,7.34Zm-5.63,0V4.7A.94.94,0,1,1,30,4.7v6.05a.94.94,0,1,1-1.88,0Zm-18.18,0V4.7a.94.94,0,1,1,1.87,0v6.05a.94.94,0,1,1-1.87,0ZM36.25,33.1a3.14,3.14,0,0,1-3.13,3.14H6.88A3.14,3.14,0,0,1,3.75,33.1V16.83h32.5Z"/></svg>