<svg xmlns="http://www.w3.org/2000/svg" viewBox="0 0 68 40"><path d="M9.06,25.93h3.46a1.25,1.25,0,0,0,1.24-1.26V21.19a1.24,1.24,0,0,0-1.24-1.26H9.06a1.25,1.25,0,0,0-1.25,1.26v3.48A1.26,1.26,0,0,0,9.06,25.93Z"/><path d="M18.19,25.93h3.46a1.26,1.26,0,0,0,1.25-1.26V21.19a1.25,1.25,0,0,0-1.25-1.26H18.19A1.24,1.24,0,0,0,17,21.19v3.48A1.25,1.25,0,0,0,18.19,25.93Z"/><path d="M27.16,25.93h3.46a1.26,1.26,0,0,0,1.25-1.26V21.19a1.25,1.25,0,0,0-1.25-1.26H27.16a1.25,1.25,0,0,0-1.24,1.26v3.48A1.26,1.26,0,0,0,27.16,25.93Z"/><path d="M9.05,33.43h3.46a1.25,1.25,0,0,0,1.24-1.26V28.69a1.25,1.25,0,0,0-1.24-1.26H9.05A1.25,1.25,0,0,0,7.8,28.69v3.48A1.25,1.25,0,0,0,9.05,33.43Z"/><path d="M18.18,33.43h3.46a1.24,1.24,0,0,0,1.24-1.26V28.69a1.24,1.24,0,0,0-1.24-1.26H18.18a1.24,1.24,0,0,0-1.24,1.26v3.48A1.24,1.24,0,0,0,18.18,33.43Z"/><path d="M27.15,33.43h3.46a1.24,1.24,0,0,0,1.24-1.26V28.69a1.24,1.24,0,0,0-1.24-1.26H27.15a1.24,1.24,0,0,0-1.24,1.26v3.48A1.24,1.24,0,0,0,27.15,33.43Z"/><path d="M33.55,7.34V4.7a4.67,4.67,0,1,0-9.34,0V7.31H15.44V4.7a4.67,4.67,0,1,0-9.33,0V7.35A6.89,6.89,0,0,0,0,14.21V33.1A6.88,6.88,0,0,0,6.84,40H33a6.88,6.88,0,0,0,6.85-6.9V14.21A6.89,6.89,0,0,0,33.55,7.34Zm-5.6,0V4.7a.93.93,0,1,1,1.86,0v6.05a.93.93,0,1,1-1.86,0Zm-18.11,0V4.7a.94.94,0,1,1,1.87,0v6.05a.94.94,0,1,1-1.87,0ZM36.09,33.1A3.13,3.13,0,0,1,33,36.24H6.84A3.13,3.13,0,0,1,3.73,33.1V16.83H36.09Z"/><path d="M68,30V24c0-.06,0-.11,0-.17,0-5-5.86-8.86-13.33-8.86s-13.34,3.89-13.34,8.86V30a1.86,1.86,0,0,0,.05.42c0,.23-.05.47-.05.7,0,5,5.86,8.87,13.34,8.87S68,36.1,68,31.13c0-.25,0-.49,0-.73A2.34,2.34,0,0,0,68,30ZM54.67,36.27C49,36.27,45,33.56,45,31.13a2.62,2.62,0,0,1,.22-1,17.33,17.33,0,0,0,9.41,2.53,17.32,17.32,0,0,0,9.4-2.53,2.62,2.62,0,0,1,.22,1C64.29,33.56,60.33,36.27,54.67,36.27Zm9.54-11.92h0a3.22,3.22,0,0,1-.14.44h0c-.53,1.26-2,2.48-4.17,3.26l0,0a12.4,12.4,0,0,1-1.49.44l-.11,0a16,16,0,0,1-1.64.28h-.12a16.7,16.7,0,0,1-3.65,0h-.12a16,16,0,0,1-1.64-.28l-.11,0a12.4,12.4,0,0,1-1.49-.44l0,0c-2.15-.78-3.64-2-4.17-3.26h0a3,3,0,0,1-.15-.48v0a2.84,2.84,0,0,1-.06-.5c0-2.43,4-5.13,9.63-5.13.35,0,.69,0,1,0l.37,0c.21,0,.42,0,.63.06s.28,0,.42.06l.52.08.46.1.44.09.49.14.36.1.51.18.27.1c.19.07.36.15.53.23l.2.09c.18.08.36.18.53.27l.13.07.53.33.07.05c.18.12.34.25.5.37l0,0a4.62,4.62,0,0,1,.46.41h0a3.37,3.37,0,0,1,1.14,2.3A2.1,2.1,0,0,1,64.21,24.35Z"/></svg>