<svg xmlns="http://www.w3.org/2000/svg" viewBox="0 0 40 35"><path d="M11.26,24.06a2.7,2.7,0,0,0,2.7,2.7H26a2.7,2.7,0,0,0,2.7-2.7,8.91,8.91,0,0,0-3.82-7.33,5.78,5.78,0,0,0,.58-4,5.66,5.66,0,0,0-4.2-4.34,5.59,5.59,0,0,0-4.79,1.06,5.77,5.77,0,0,0-1.44,7.29A8.88,8.88,0,0,0,11.26,24.06Zm6.15-4.77a2.72,2.72,0,0,0,1.27-1.77,2.81,2.81,0,0,0-.49-2.22A2.26,2.26,0,0,1,17.76,14a2.33,2.33,0,0,1,.87-1.83,2.22,2.22,0,0,1,1.9-.41,2.26,2.26,0,0,1,1.63,1.71,2.38,2.38,0,0,1-.37,1.89,2.48,2.48,0,0,0-.18.31,2.79,2.79,0,0,0-.28,1.92A2.66,2.66,0,0,0,22.6,19.3a5.43,5.43,0,0,1,2.68,4.05H14.71A5.45,5.45,0,0,1,17.41,19.29Z"/><path d="M6.49,19.3,9.73,16a1.75,1.75,0,0,0,0-2.44,1.67,1.67,0,0,0-2.39,0h0A13.38,13.38,0,0,1,20,3.44,13,13,0,0,1,31.08,9.83a1.67,1.67,0,0,0,2.33.55A1.74,1.74,0,0,0,33.94,8,16.33,16.33,0,0,0,20,0C11.88,0,5.1,6.22,3.7,14.4l-.82-.84a1.67,1.67,0,0,0-2.39,0A1.77,1.77,0,0,0,.49,16l3.43,3.49a1,1,0,0,0,.17.11,1.51,1.51,0,0,0,.26.18,1.15,1.15,0,0,0,.23.1,1.35,1.35,0,0,0,.5.1h.15A1.69,1.69,0,0,0,6.49,19.3Z"/><path d="M39.51,18.59,36.08,15.1a1.67,1.67,0,0,0-2.39,0l-3.42,3.49a1.74,1.74,0,0,0,0,2.43,1.66,1.66,0,0,0,2.39,0l.16-.17A13.4,13.4,0,0,1,20,31.56a13,13,0,0,1-11.2-6.64,1.67,1.67,0,0,0-2.32-.6,1.75,1.75,0,0,0-.59,2.36A16.32,16.32,0,0,0,20,35c8.25,0,15.1-6.4,16.36-14.74l.75.76a1.65,1.65,0,0,0,1.19.51,1.68,1.68,0,0,0,1.2-.51A1.76,1.76,0,0,0,39.51,18.59Z"/></svg>