<svg xmlns="http://www.w3.org/2000/svg" viewBox="0 0 40 35"><path d="M6.49,19.3,9.73,16a1.75,1.75,0,0,0,0-2.44,1.67,1.67,0,0,0-2.39,0h0A13.38,13.38,0,0,1,20,3.44,13,13,0,0,1,31.08,9.83a1.67,1.67,0,0,0,2.33.55A1.74,1.74,0,0,0,33.94,8,16.33,16.33,0,0,0,20,0C11.88,0,5.1,6.22,3.7,14.4l-.82-.84a1.67,1.67,0,0,0-2.39,0A1.77,1.77,0,0,0,.49,16l3.43,3.49a1,1,0,0,0,.17.11,1.51,1.51,0,0,0,.26.18,1.15,1.15,0,0,0,.23.1,1.35,1.35,0,0,0,.5.1h.15A1.69,1.69,0,0,0,6.49,19.3Z"/><path d="M39.51,18.59,36.08,15.1a1.67,1.67,0,0,0-2.39,0l-3.42,3.49a1.74,1.74,0,0,0,0,2.43,1.66,1.66,0,0,0,2.39,0l.16-.17A13.4,13.4,0,0,1,20,31.56a13,13,0,0,1-11.2-6.64,1.67,1.67,0,0,0-2.32-.6,1.75,1.75,0,0,0-.59,2.36A16.32,16.32,0,0,0,20,35c8.25,0,15.1-6.4,16.36-14.74l.75.76a1.65,1.65,0,0,0,1.19.51,1.68,1.68,0,0,0,1.2-.51A1.76,1.76,0,0,0,39.51,18.59Z"/><path d="M27.94,15.44v-.1c0-3-3.51-5.3-8-5.3s-8,2.33-8,5.3v3.73a1.09,1.09,0,0,0,0,.25,2.71,2.71,0,0,0,0,.41c0,3,3.52,5.31,8,5.31s8-2.33,8-5.31a3.11,3.11,0,0,0,0-.43,1,1,0,0,0,0-.23Zm-8,7.37c-3.4,0-5.77-1.62-5.77-3.08a1.61,1.61,0,0,1,.13-.59,10.41,10.41,0,0,0,5.64,1.51,10.36,10.36,0,0,0,5.64-1.51,1.45,1.45,0,0,1,.14.59C25.72,21.19,23.35,22.81,19.94,22.81Zm5.73-7.13h0a1.34,1.34,0,0,1-.09.26h0a4.15,4.15,0,0,1-2.49,2h0q-.42.15-.9.27H22.1c-.32.07-.65.13-1,.17H21c-.35,0-.72.06-1.1.06s-.74,0-1.09-.06h-.07a9.71,9.71,0,0,1-1-.17h-.06q-.48-.12-.9-.27h0a4.21,4.21,0,0,1-2.5-2h0a1.61,1.61,0,0,1-.09-.29h0a1.54,1.54,0,0,1,0-.3c0-1.45,2.37-3.07,5.77-3.07l.63,0,.22,0,.37,0,.26,0,.31,0,.28.06.26.06.29.08.22.06.3.11.17,0,.31.14.12,0,.32.17.08,0,.32.2,0,0a2.32,2.32,0,0,1,.3.22h0L25,14h0a2.06,2.06,0,0,1,.68,1.38A1.27,1.27,0,0,1,25.67,15.68Z"/></svg>