<svg width="56" height="56" viewBox="0 0 56 56" fill="none" xmlns="http://www.w3.org/2000/svg">
<rect width="56" height="56" fill="white"/>
<g clip-path="url(#clip0_15_989)">
<path d="M46.9502 18.4853C48.3892 16.9458 49.2705 14.8821 49.2705 12.6092C49.2705 7.85418 45.4163 4 40.6614 4C35.9064 4 32.0522 7.85418 32.0522 12.6092C32.0522 14.8821 32.9335 16.9458 34.3725 18.4853C31.7984 19.5004 29.5896 21.2434 27.9972 23.4578C26.4048 21.2434 24.1988 19.5004 21.6219 18.4853C23.061 16.9458 23.9422 14.8821 23.9422 12.6092C23.945 7.85418 20.0908 4 15.3386 4C10.5865 4 6.72948 7.85418 6.72948 12.6092C6.72948 14.8821 7.61076 16.9458 9.0498 18.4853C3.751 20.5741 0 25.7363 0 31.7769C0 34.4681 2.18088 36.649 4.87211 36.649H16.2171C18.0773 31.961 22.6566 28.6339 28 28.6339C33.3434 28.6339 37.9227 31.9582 39.7829 36.649H51.1279C53.8191 36.649 56 34.4681 56 31.7769C56 25.7363 52.249 20.5741 46.9502 18.4853V18.4853Z" fill="url(#paint0_linear_15_989)"/>
<path d="M31.8012 43.0438C31.5586 43.0438 31.3689 43.1331 31.2378 43.3144C31.104 43.4956 31.0398 43.7689 31.0398 44.1398C31.0398 44.8594 31.2936 45.2219 31.804 45.2219C32.0466 45.2219 32.239 45.1327 32.3757 44.9514C32.5123 44.7701 32.5821 44.4996 32.5821 44.1398C32.5821 43.7801 32.5123 43.5068 32.3757 43.3199C32.239 43.1331 32.0466 43.041 31.804 43.041L31.8012 43.0438Z" fill="url(#paint1_linear_15_989)"/>
<path d="M28 30.8677C22.2327 30.8677 17.5586 35.5418 17.5586 41.3092C17.5586 47.0765 22.2327 51.7506 28 51.7506C33.7673 51.7506 38.4414 47.0765 38.4414 41.3092C38.4414 35.5418 33.7673 30.8677 28 30.8677ZM21.6108 37.9737C21.6108 37.1147 21.8562 36.4538 22.3498 35.9853C22.8434 35.5195 23.4821 35.2853 24.2657 35.2853C25.0494 35.2853 25.6853 35.5195 26.1733 35.9853C26.6614 36.451 26.904 37.1147 26.904 37.9737C26.904 38.8327 26.6586 39.4936 26.1733 39.9622C25.6853 40.4279 25.0494 40.6622 24.2657 40.6622C23.4821 40.6622 22.8434 40.4279 22.3498 39.9622C21.8562 39.4964 21.6108 38.8327 21.6108 37.9737V37.9737ZM26.2849 46.6526H23.6606L29.7821 35.461H32.4064L26.2849 46.6526ZM33.7255 46.1283C33.2374 46.594 32.6016 46.8283 31.8179 46.8283C31.0343 46.8283 30.3984 46.5968 29.9104 46.1283C29.4223 45.6626 29.1797 44.9988 29.1797 44.1398C29.1797 43.2809 29.4223 42.6199 29.9104 42.1514C30.3984 41.6857 31.0343 41.4514 31.8179 41.4514C32.6016 41.4514 33.2374 41.6857 33.7255 42.1514C34.2135 42.6171 34.4562 43.2809 34.4562 44.1398C34.4562 44.9988 34.2108 45.6598 33.7255 46.1283Z" fill="url(#paint2_linear_15_989)"/>
<path d="M24.8235 38.7825C24.9602 38.6012 25.0299 38.3307 25.0299 37.9709C25.0299 37.2402 24.7705 36.8749 24.2518 36.8749C23.7331 36.8749 23.4876 37.2402 23.4876 37.9709C23.4876 38.7016 23.7414 39.053 24.2518 39.053C24.4944 39.053 24.6868 38.9637 24.8235 38.7825V38.7825Z" fill="url(#paint3_linear_15_989)"/>
</g>
<defs>
<linearGradient id="paint0_linear_15_989" x1="28" y1="4" x2="28" y2="36.649" gradientUnits="userSpaceOnUse">
<stop stop-color="#8852FC"/>
<stop offset="1" stop-color="#5651D6"/>
</linearGradient>
<linearGradient id="paint1_linear_15_989" x1="31.811" y1="43.041" x2="31.811" y2="45.2219" gradientUnits="userSpaceOnUse">
<stop stop-color="#8852FC"/>
<stop offset="1" stop-color="#5651D6"/>
</linearGradient>
<linearGradient id="paint2_linear_15_989" x1="28" y1="30.8677" x2="28" y2="51.7506" gradientUnits="userSpaceOnUse">
<stop stop-color="#8852FC"/>
<stop offset="1" stop-color="#5651D6"/>
</linearGradient>
<linearGradient id="paint3_linear_15_989" x1="24.2588" y1="36.8749" x2="24.2588" y2="39.053" gradientUnits="userSpaceOnUse">
<stop stop-color="#8852FC"/>
<stop offset="1" stop-color="#5651D6"/>
</linearGradient>
<clipPath id="clip0_15_989">
<rect width="56" height="47.7534" fill="white" transform="translate(0 4)"/>
</clipPath>
</defs>
</svg>
