<svg xmlns="http://www.w3.org/2000/svg" viewBox="0 0 36 40"><path d="M34,30h0l-4-1.58-8.77,3.4a9,9,0,0,1-6.46,0L6,28.39,1.94,30C.75,30.42,0,31.24,0,32.06s.75,1.65,2,2.13l14.12,5.47a5.52,5.52,0,0,0,3.8,0L34,34.19c1.22-.48,2-1.28,2-2.13S35.23,30.42,34,30Z"/><path d="M34,17.89h0l-4-1.57-8.77,3.4a9,9,0,0,1-6.46,0L6,16.32,1.94,17.89C.75,18.34,0,19.17,0,20s.75,1.65,2,2.13l14.12,5.47a5.52,5.52,0,0,0,3.8,0L34,22.12c1.22-.48,2-1.28,2-2.13S35.23,18.34,34,17.89Z"/><path d="M2,10.05l14.12,5.47a5.52,5.52,0,0,0,3.8,0L34,10.05h0c1.22-.48,2-1.28,2-2.13s-.75-1.65-2-2.1L19.89.35a5.33,5.33,0,0,0-3.8,0L2,5.82C.75,6.27,0,7.1,0,7.92S.75,9.57,2,10.05Z"/></svg>