<svg xmlns="http://www.w3.org/2000/svg" viewBox="0 0 40 40"><path d="M40,20c0-2.13-1.43-4-3.75-4.95A5.51,5.51,0,0,0,40,10.09C40,7.83,38.39,5.86,35.79,5L22.93.48a9.18,9.18,0,0,0-5.86,0L4.21,5C1.61,5.87,0,7.83,0,10.11a5.51,5.51,0,0,0,3.75,4.94A5.5,5.5,0,0,0,0,20a5.5,5.5,0,0,0,3.75,5C1.43,25.92,0,27.77,0,29.89S1.61,34.12,4.21,35l12.86,4.48a9,9,0,0,0,5.86,0L35.79,35c2.6-.91,4.21-2.88,4.21-5.14s-1.43-4-3.75-4.95C38.57,24,40,22.12,40,20ZM3.58,10.11c0-.71.69-1.38,1.82-1.78L18.26,3.85a5.45,5.45,0,0,1,3.48,0L34.6,8.33c1.13.4,1.82,1.07,1.82,1.78s-.69,1.38-1.82,1.77L21.74,16.36a5.45,5.45,0,0,1-3.48,0L5.4,11.88C4.27,11.49,3.58,10.81,3.58,10.11Zm31,21.55L21.74,36.15a5.45,5.45,0,0,1-3.48,0L5.4,31.66c-1.13-.39-1.82-1.07-1.82-1.77s.69-1.38,1.82-1.77l3.69-1.29,8,2.78a9,9,0,0,0,5.86,0l8-2.78,3.69,1.29c1.13.39,1.82,1.07,1.82,1.77S35.73,31.27,34.6,31.66Zm0-9.9L21.74,26.25a5.45,5.45,0,0,1-3.48,0L5.4,21.76C4.27,21.37,3.58,20.69,3.58,20s.69-1.38,1.82-1.77l3.69-1.29,8,2.79a8.46,8.46,0,0,0,1.81.39,8.47,8.47,0,0,0,1.12.1,7.06,7.06,0,0,0,1.12-.1,8.73,8.73,0,0,0,1.81-.39l8-2.79,3.69,1.29c1.13.39,1.82,1.07,1.82,1.77S35.73,21.37,34.6,21.76Z"/></svg>