<?xml version="1.0" encoding="UTF-8"?>
<svg xmlns="http://www.w3.org/2000/svg" xmlns:xlink="http://www.w3.org/1999/xlink" viewBox="0 0 90 90" width="90px" height="90px">
<g id="surface106787401">
<path style=" stroke:none;fill-rule:nonzero;fill:rgb(100%,100%,100%);fill-opacity:1;" d="M 45.011719 9 C 25.125 9 9 25.117188 9 45 C 9 64.882812 25.125 81 45.011719 81 C 75.042969 81 81.808594 53.121094 78.988281 39 L 45 39 L 45 51 L 68.214844 51 C 65.546875 61.34375 56.179688 69 45 69 C 31.746094 69 21 58.253906 21 45 C 21 31.746094 31.746094 21 45 21 C 51.027344 21 56.515625 23.238281 60.734375 26.90625 L 69.257812 18.386719 C 62.855469 12.554688 54.351562 9 45.011719 9 Z M 45.011719 9 "/>
</g>
</svg>
