<svg width="56" height="56" viewBox="0 0 56 56" fill="none" xmlns="http://www.w3.org/2000/svg">
<rect width="56" height="56" fill="white"/>
<path d="M29.862 42.2554C29.862 36.4186 33.3717 31.389 38.3918 29.1565C36.1782 26.3153 33.2676 24.0449 29.9157 22.6039C32.123 20.4218 33.4947 17.3914 33.4947 14.0394C33.4947 7.3922 28.1025 2 21.4521 2C14.8017 2 9.41269 7.3922 9.41269 14.0394C9.41269 17.3914 10.7812 20.4186 12.9917 22.6039C5.3512 25.8865 0 33.4765 0 42.3216V42.6244C0 45.4119 2.25778 47.6697 5.04533 47.6697H30.9247C30.2404 45.9984 29.8589 44.1726 29.8589 42.2586L29.862 42.2554Z" fill="url(#paint0_linear_15_995)"/>
<path d="M44.1908 30.4493C37.6697 30.4493 32.3848 35.7343 32.3848 42.2554C32.3848 48.7765 37.6697 54.0615 44.1908 54.0615C50.7119 54.0615 55.9969 48.7765 55.9969 42.2554C55.9969 35.7343 50.7119 30.4493 44.1908 30.4493ZM41.829 39.8242H42.8286V33.8959C42.8286 33.7225 42.9705 33.5806 43.1439 33.5806H45.4175C45.5909 33.5806 45.7328 33.7225 45.7328 33.8959V39.8242H46.7324C47.2653 39.8242 47.5586 40.4454 47.218 40.8553L44.7647 43.8258C44.5125 44.1316 44.0458 44.1316 43.7935 43.8258L41.3402 40.8553C40.9997 40.4454 41.2929 39.8242 41.8258 39.8242H41.829ZM50.2358 48.663C50.2358 48.8364 50.0939 48.9783 49.9204 48.9783H38.6378C38.4644 48.9783 38.3225 48.8364 38.3225 48.663V46.3894C38.3225 46.216 38.4644 46.0741 38.6378 46.0741H49.9204C50.0939 46.0741 50.2358 46.216 50.2358 46.3894V48.663Z" fill="url(#paint1_linear_15_995)"/>
<defs>
<linearGradient id="paint0_linear_15_995" x1="19.1959" y1="2" x2="19.1959" y2="47.6697" gradientUnits="userSpaceOnUse">
<stop stop-color="#8852FC"/>
<stop offset="1" stop-color="#5651D6"/>
</linearGradient>
<linearGradient id="paint1_linear_15_995" x1="44.1908" y1="30.4493" x2="44.1908" y2="54.0615" gradientUnits="userSpaceOnUse">
<stop stop-color="#8852FC"/>
<stop offset="1" stop-color="#5651D6"/>
</linearGradient>
</defs>
</svg>
