<svg xmlns="http://www.w3.org/2000/svg" viewBox="0 0 40 40"><path d="M20,0A20,20,0,1,0,40,20,20,20,0,0,0,20,0Zm0,36.23A16.23,16.23,0,1,1,36.23,20,16.25,16.25,0,0,1,20,36.23Z"/><path d="M26.32,27.14H13.67a1.88,1.88,0,1,0,0,3.76H26.32a1.88,1.88,0,0,0,0-3.76Z"/><path d="M18.67,25.07a1.67,1.67,0,0,0,.26.17l.16.11a2.32,2.32,0,0,0,.36.16,1.64,1.64,0,0,0,.5.09l.05,0h.05a1.91,1.91,0,0,0,1.57-.84l5.55-5.56a1.88,1.88,0,0,0-2.66-2.66l-2.58,2.57v-10a1.88,1.88,0,1,0-3.76,0V19.24l-2.69-2.68a1.88,1.88,0,0,0-2.67,2.66Z"/></svg>