<svg width="192" height="186" viewBox="0 0 192 186" fill="none" xmlns="http://www.w3.org/2000/svg">
<g filter="url(#filter0_d_36_1689)">
<path d="M169.847 88.1294C172.262 91.0775 172.262 95.3202 169.847 98.2686L159.581 110.803C158.309 112.356 157.667 114.331 157.783 116.335L158.72 132.508C158.941 136.314 156.445 139.747 152.756 140.711L137.088 144.805C135.141 145.313 133.457 146.537 132.372 148.232L123.647 161.865C121.589 165.081 117.545 166.394 113.99 165.002L98.9181 159.097C97.0421 158.362 94.9579 158.362 93.0819 159.097L78.0095 165.002C74.4548 166.394 70.4114 165.081 68.3534 161.865L59.6278 148.232C58.5429 146.537 56.859 145.314 54.9118 144.805L39.2395 140.711C35.5499 139.747 33.0535 136.313 33.275 132.506L34.2159 116.336C34.3326 114.331 33.691 112.356 32.4184 110.802L22.1526 98.2687C19.7376 95.3202 19.738 91.0775 22.1534 88.1294L32.4176 75.6017C33.6906 74.048 34.3326 72.0722 34.2159 70.067L33.275 53.8932C33.0535 50.0855 35.5509 46.651 39.2414 45.6879L54.9089 41.5991C56.8579 41.0905 58.5432 39.8654 59.6284 38.1686L68.3478 24.5347C70.4051 21.3178 74.4492 20.0033 78.0048 21.3959L93.0822 27.3009C94.958 28.0356 97.042 28.0355 98.9177 27.3007L113.99 21.3961C117.545 20.0034 121.589 21.3171 123.646 24.5333L132.372 38.17C133.457 39.866 135.142 41.0904 137.09 41.5989L152.754 45.688C156.444 46.6511 158.941 50.0844 158.72 53.8912L157.783 70.0681C157.667 72.0727 158.309 74.0476 159.582 75.6008L169.847 88.1294Z" fill="url(#paint0_linear_36_1689)"/>
</g>
<g filter="url(#filter1_d_36_1689)">
<path d="M105.683 86.0648C107.896 83.6968 109.256 80.5176 109.256 77.0148C109.256 69.6951 103.32 63.7587 95.9999 63.7587C88.6802 63.7587 82.7438 69.6951 82.7438 77.0148C82.7438 80.5129 84.1036 83.6921 86.3169 86.0648C78.1578 89.2815 72.3809 97.2296 72.3809 106.533C72.3809 110.678 75.7383 114.035 79.8834 114.035H112.112C116.257 114.035 119.614 110.678 119.614 106.533C119.614 97.2296 113.837 89.2815 105.678 86.0648H105.683Z" fill="white"/>
</g>
<g filter="url(#filter2_d_36_1689)">
<path d="M96 57.3815C97.5521 57.3815 98.8135 56.1201 98.8135 54.568V45.8135C98.8135 44.2614 97.5521 43 96 43C94.4479 43 93.1865 44.2614 93.1865 45.8135V54.568C93.1865 56.1201 94.4479 57.3815 96 57.3815Z" fill="white"/>
</g>
<g filter="url(#filter3_d_36_1689)">
<path d="M96 128.618C94.4479 128.618 93.1865 129.88 93.1865 131.432V140.187C93.1865 141.739 94.4479 143 96 143C97.5521 143 98.8135 141.739 98.8135 140.187V131.432C98.8135 129.88 97.5521 128.618 96 128.618V128.618Z" fill="white"/>
</g>
<g filter="url(#filter4_d_36_1689)">
<path d="M143.187 90.1865H134.432C132.88 90.1865 131.619 91.4479 131.619 93C131.619 94.5521 132.88 95.8135 134.432 95.8135H143.187C144.739 95.8135 146 94.5521 146 93C146 91.4479 144.739 90.1865 143.187 90.1865Z" fill="white"/>
</g>
<g filter="url(#filter5_d_36_1689)">
<path d="M57.568 90.1865H48.8135C47.2614 90.1865 46 91.4479 46 93C46 94.5521 47.2614 95.8135 48.8135 95.8135H57.568C59.1201 95.8135 60.3815 94.5521 60.3815 93C60.3815 91.4479 59.1201 90.1865 57.568 90.1865Z" fill="white"/>
</g>
<path d="M125.166 118.185C124.069 117.088 122.287 117.088 121.19 118.185C120.093 119.282 120.093 121.064 121.19 122.162L127.38 128.351C127.928 128.9 128.65 129.176 129.368 129.176C130.085 129.176 130.807 128.9 131.356 128.351C132.453 127.254 132.453 125.472 131.356 124.375L125.166 118.185V118.185Z" fill="white"/>
<g filter="url(#filter6_d_36_1689)">
<path d="M64.6252 57.6441C63.528 56.5469 61.7461 56.5469 60.6489 57.6441C59.5516 58.7414 59.5516 60.5232 60.6489 61.6205L66.8385 67.8101C67.3871 68.3587 68.1092 68.6354 68.8267 68.6354C69.5441 68.6354 70.2662 68.3587 70.8149 67.8101C71.9121 66.7128 71.9121 64.931 70.8149 63.8337L64.6252 57.6441V57.6441Z" fill="white"/>
</g>
<g filter="url(#filter7_d_36_1689)">
<path d="M66.8339 118.185L60.6442 124.375C59.547 125.472 59.547 127.254 60.6442 128.351C61.1929 128.9 61.915 129.176 62.6324 129.176C63.3498 129.176 64.072 128.9 64.6206 128.351L70.8102 122.162C71.9075 121.064 71.9075 119.282 70.8102 118.185C69.713 117.088 67.9311 117.088 66.8339 118.185V118.185Z" fill="white"/>
</g>
<g filter="url(#filter8_d_36_1689)">
<path d="M123.178 68.6354C123.9 68.6354 124.618 68.3587 125.166 67.8101L131.356 61.6205C132.453 60.5232 132.453 58.7414 131.356 57.6441C130.259 56.5469 128.477 56.5469 127.38 57.6441L121.19 63.8337C120.093 64.931 120.093 66.7128 121.19 67.8101C121.739 68.3587 122.461 68.6354 123.178 68.6354V68.6354Z" fill="white"/>
</g>
<defs>
<filter id="filter0_d_36_1689" x="0.341553" y="0.844055" width="191.317" height="184.71" filterUnits="userSpaceOnUse" color-interpolation-filters="sRGB">
<feFlood flood-opacity="0" result="BackgroundImageFix"/>
<feColorMatrix in="SourceAlpha" type="matrix" values="0 0 0 0 0 0 0 0 0 0 0 0 0 0 0 0 0 0 127 0" result="hardAlpha"/>
<feOffset/>
<feGaussianBlur stdDeviation="10"/>
<feComposite in2="hardAlpha" operator="out"/>
<feColorMatrix type="matrix" values="0 0 0 0 0.533333 0 0 0 0 0.321569 0 0 0 0 0.988235 0 0 0 0.2 0"/>
<feBlend mode="normal" in2="BackgroundImageFix" result="effect1_dropShadow_36_1689"/>
<feBlend mode="normal" in="SourceGraphic" in2="effect1_dropShadow_36_1689" result="shape"/>
</filter>
<filter id="filter1_d_36_1689" x="52.3809" y="43.7587" width="87.2334" height="90.2767" filterUnits="userSpaceOnUse" color-interpolation-filters="sRGB">
<feFlood flood-opacity="0" result="BackgroundImageFix"/>
<feColorMatrix in="SourceAlpha" type="matrix" values="0 0 0 0 0 0 0 0 0 0 0 0 0 0 0 0 0 0 127 0" result="hardAlpha"/>
<feOffset/>
<feGaussianBlur stdDeviation="10"/>
<feComposite in2="hardAlpha" operator="out"/>
<feColorMatrix type="matrix" values="0 0 0 0 0 0 0 0 0 0 0 0 0 0 0 0 0 0 0.25 0"/>
<feBlend mode="normal" in2="BackgroundImageFix" result="effect1_dropShadow_36_1689"/>
<feBlend mode="normal" in="SourceGraphic" in2="effect1_dropShadow_36_1689" result="shape"/>
</filter>
<filter id="filter2_d_36_1689" x="73.1865" y="23" width="45.627" height="54.3815" filterUnits="userSpaceOnUse" color-interpolation-filters="sRGB">
<feFlood flood-opacity="0" result="BackgroundImageFix"/>
<feColorMatrix in="SourceAlpha" type="matrix" values="0 0 0 0 0 0 0 0 0 0 0 0 0 0 0 0 0 0 127 0" result="hardAlpha"/>
<feOffset/>
<feGaussianBlur stdDeviation="10"/>
<feComposite in2="hardAlpha" operator="out"/>
<feColorMatrix type="matrix" values="0 0 0 0 0 0 0 0 0 0 0 0 0 0 0 0 0 0 0.25 0"/>
<feBlend mode="normal" in2="BackgroundImageFix" result="effect1_dropShadow_36_1689"/>
<feBlend mode="normal" in="SourceGraphic" in2="effect1_dropShadow_36_1689" result="shape"/>
</filter>
<filter id="filter3_d_36_1689" x="73.1865" y="108.618" width="45.627" height="54.3815" filterUnits="userSpaceOnUse" color-interpolation-filters="sRGB">
<feFlood flood-opacity="0" result="BackgroundImageFix"/>
<feColorMatrix in="SourceAlpha" type="matrix" values="0 0 0 0 0 0 0 0 0 0 0 0 0 0 0 0 0 0 127 0" result="hardAlpha"/>
<feOffset/>
<feGaussianBlur stdDeviation="10"/>
<feComposite in2="hardAlpha" operator="out"/>
<feColorMatrix type="matrix" values="0 0 0 0 0 0 0 0 0 0 0 0 0 0 0 0 0 0 0.25 0"/>
<feBlend mode="normal" in2="BackgroundImageFix" result="effect1_dropShadow_36_1689"/>
<feBlend mode="normal" in="SourceGraphic" in2="effect1_dropShadow_36_1689" result="shape"/>
</filter>
<filter id="filter4_d_36_1689" x="111.619" y="70.1865" width="54.3816" height="45.6269" filterUnits="userSpaceOnUse" color-interpolation-filters="sRGB">
<feFlood flood-opacity="0" result="BackgroundImageFix"/>
<feColorMatrix in="SourceAlpha" type="matrix" values="0 0 0 0 0 0 0 0 0 0 0 0 0 0 0 0 0 0 127 0" result="hardAlpha"/>
<feOffset/>
<feGaussianBlur stdDeviation="10"/>
<feComposite in2="hardAlpha" operator="out"/>
<feColorMatrix type="matrix" values="0 0 0 0 0 0 0 0 0 0 0 0 0 0 0 0 0 0 0.25 0"/>
<feBlend mode="normal" in2="BackgroundImageFix" result="effect1_dropShadow_36_1689"/>
<feBlend mode="normal" in="SourceGraphic" in2="effect1_dropShadow_36_1689" result="shape"/>
</filter>
<filter id="filter5_d_36_1689" x="26" y="70.1865" width="54.3816" height="45.6269" filterUnits="userSpaceOnUse" color-interpolation-filters="sRGB">
<feFlood flood-opacity="0" result="BackgroundImageFix"/>
<feColorMatrix in="SourceAlpha" type="matrix" values="0 0 0 0 0 0 0 0 0 0 0 0 0 0 0 0 0 0 127 0" result="hardAlpha"/>
<feOffset/>
<feGaussianBlur stdDeviation="10"/>
<feComposite in2="hardAlpha" operator="out"/>
<feColorMatrix type="matrix" values="0 0 0 0 0 0 0 0 0 0 0 0 0 0 0 0 0 0 0.25 0"/>
<feBlend mode="normal" in2="BackgroundImageFix" result="effect1_dropShadow_36_1689"/>
<feBlend mode="normal" in="SourceGraphic" in2="effect1_dropShadow_36_1689" result="shape"/>
</filter>
<filter id="filter6_d_36_1689" x="39.8259" y="36.8212" width="51.8118" height="51.8142" filterUnits="userSpaceOnUse" color-interpolation-filters="sRGB">
<feFlood flood-opacity="0" result="BackgroundImageFix"/>
<feColorMatrix in="SourceAlpha" type="matrix" values="0 0 0 0 0 0 0 0 0 0 0 0 0 0 0 0 0 0 127 0" result="hardAlpha"/>
<feOffset/>
<feGaussianBlur stdDeviation="10"/>
<feComposite in2="hardAlpha" operator="out"/>
<feColorMatrix type="matrix" values="0 0 0 0 0 0 0 0 0 0 0 0 0 0 0 0 0 0 0.25 0"/>
<feBlend mode="normal" in2="BackgroundImageFix" result="effect1_dropShadow_36_1689"/>
<feBlend mode="normal" in="SourceGraphic" in2="effect1_dropShadow_36_1689" result="shape"/>
</filter>
<filter id="filter7_d_36_1689" x="39.8213" y="97.3623" width="51.8118" height="51.8142" filterUnits="userSpaceOnUse" color-interpolation-filters="sRGB">
<feFlood flood-opacity="0" result="BackgroundImageFix"/>
<feColorMatrix in="SourceAlpha" type="matrix" values="0 0 0 0 0 0 0 0 0 0 0 0 0 0 0 0 0 0 127 0" result="hardAlpha"/>
<feOffset/>
<feGaussianBlur stdDeviation="10"/>
<feComposite in2="hardAlpha" operator="out"/>
<feColorMatrix type="matrix" values="0 0 0 0 0 0 0 0 0 0 0 0 0 0 0 0 0 0 0.25 0"/>
<feBlend mode="normal" in2="BackgroundImageFix" result="effect1_dropShadow_36_1689"/>
<feBlend mode="normal" in="SourceGraphic" in2="effect1_dropShadow_36_1689" result="shape"/>
</filter>
<filter id="filter8_d_36_1689" x="100.367" y="36.8212" width="51.8118" height="51.8142" filterUnits="userSpaceOnUse" color-interpolation-filters="sRGB">
<feFlood flood-opacity="0" result="BackgroundImageFix"/>
<feColorMatrix in="SourceAlpha" type="matrix" values="0 0 0 0 0 0 0 0 0 0 0 0 0 0 0 0 0 0 127 0" result="hardAlpha"/>
<feOffset/>
<feGaussianBlur stdDeviation="10"/>
<feComposite in2="hardAlpha" operator="out"/>
<feColorMatrix type="matrix" values="0 0 0 0 0 0 0 0 0 0 0 0 0 0 0 0 0 0 0.25 0"/>
<feBlend mode="normal" in2="BackgroundImageFix" result="effect1_dropShadow_36_1689"/>
<feBlend mode="normal" in="SourceGraphic" in2="effect1_dropShadow_36_1689" result="shape"/>
</filter>
<linearGradient id="paint0_linear_36_1689" x1="96" y1="19" x2="96" y2="167.397" gradientUnits="userSpaceOnUse">
<stop stop-color="#8852FC"/>
<stop offset="1" stop-color="#5651D6"/>
</linearGradient>
</defs>
</svg>
