<svg width="192" height="186" viewBox="0 0 192 186" fill="none" xmlns="http://www.w3.org/2000/svg">
<g filter="url(#filter0_d_36_1681)">
<path d="M169.847 88.1294C172.262 91.0775 172.262 95.3202 169.847 98.2686L159.581 110.803C158.309 112.356 157.667 114.331 157.783 116.335L158.72 132.508C158.941 136.314 156.445 139.747 152.756 140.711L137.088 144.805C135.141 145.313 133.457 146.537 132.372 148.232L123.647 161.865C121.589 165.081 117.545 166.394 113.99 165.002L98.9181 159.097C97.0421 158.362 94.9579 158.362 93.0819 159.097L78.0095 165.002C74.4548 166.394 70.4114 165.081 68.3534 161.865L59.6278 148.232C58.5429 146.537 56.859 145.314 54.9118 144.805L39.2395 140.711C35.5499 139.747 33.0535 136.313 33.275 132.506L34.2159 116.336C34.3326 114.331 33.691 112.356 32.4184 110.802L22.1526 98.2687C19.7376 95.3202 19.738 91.0775 22.1534 88.1294L32.4176 75.6017C33.6906 74.048 34.3326 72.0722 34.2159 70.067L33.275 53.8932C33.0535 50.0855 35.5509 46.651 39.2414 45.6879L54.9089 41.5991C56.8579 41.0905 58.5432 39.8654 59.6284 38.1686L68.3478 24.5347C70.4051 21.3178 74.4492 20.0033 78.0048 21.3959L93.0822 27.3009C94.958 28.0356 97.042 28.0355 98.9177 27.3007L113.99 21.3961C117.545 20.0034 121.589 21.3171 123.646 24.5333L132.372 38.17C133.457 39.866 135.142 41.0904 137.09 41.5989L152.754 45.688C156.444 46.6511 158.941 50.0844 158.72 53.8912L157.783 70.0681C157.667 72.0727 158.309 74.0476 159.582 75.6008L169.847 88.1294Z" fill="url(#paint0_linear_36_1681)"/>
</g>
<g filter="url(#filter1_d_36_1681)">
<g clip-path="url(#clip0_36_1681)">
<path d="M104.964 90.868C107.012 88.6375 108.271 85.6429 108.271 82.3435C108.271 75.4488 102.776 69.8571 96.0021 69.8571C89.2278 69.8571 83.7337 75.4488 83.7337 82.3435C83.7337 85.6384 84.9922 88.633 87.0406 90.868C79.4894 93.8979 74.1428 101.384 74.1428 110.147C74.1428 114.052 77.2501 117.214 81.0864 117.214H110.914C114.75 117.214 117.857 114.052 117.857 110.147C117.857 101.384 112.511 93.8979 104.959 90.868H104.964Z" fill="white"/>
<path d="M146.659 99.214L139.34 86.5373C138.38 84.8748 135.982 84.8748 135.021 86.5373L127.702 99.214C126.742 100.877 127.943 102.955 129.864 102.955H133.563C129.394 120.528 114.136 133.595 96.0021 133.595C82.2405 133.595 70.1332 126.068 63.2753 114.763C62.6643 113.757 61.4548 113.296 60.3409 113.67C58.828 114.177 58.1713 115.956 58.9984 117.323C66.7333 130.087 80.4284 138.587 96.0062 138.587C116.892 138.587 134.398 123.304 138.679 102.959H144.506C146.426 102.959 147.628 100.881 146.667 99.2182L146.659 99.214Z" fill="white"/>
<path d="M62.1363 83.6279H58.4372C62.6019 66.055 77.8638 52.9876 95.9978 52.9876C109.759 52.9876 121.867 60.5146 128.725 71.8198C129.336 72.8256 130.545 73.287 131.659 72.9129C133.172 72.4059 133.829 70.627 133.001 69.2595C125.275 56.4997 111.576 48 95.9978 48C75.1123 48 57.606 63.2828 53.325 83.6279H47.4978C45.5776 83.6279 44.3764 85.706 45.3365 87.3686L52.6558 100.045C53.6159 101.708 56.0141 101.708 56.9742 100.045L64.2935 87.3686C65.2536 85.706 64.0524 83.6279 62.1322 83.6279H62.1363Z" fill="white"/>
</g>
</g>
<defs>
<filter id="filter0_d_36_1681" x="0.341553" y="0.844055" width="191.317" height="184.71" filterUnits="userSpaceOnUse" color-interpolation-filters="sRGB">
<feFlood flood-opacity="0" result="BackgroundImageFix"/>
<feColorMatrix in="SourceAlpha" type="matrix" values="0 0 0 0 0 0 0 0 0 0 0 0 0 0 0 0 0 0 127 0" result="hardAlpha"/>
<feOffset/>
<feGaussianBlur stdDeviation="10"/>
<feComposite in2="hardAlpha" operator="out"/>
<feColorMatrix type="matrix" values="0 0 0 0 0.533333 0 0 0 0 0.321569 0 0 0 0 0.988235 0 0 0 0.2 0"/>
<feBlend mode="normal" in2="BackgroundImageFix" result="effect1_dropShadow_36_1681"/>
<feBlend mode="normal" in="SourceGraphic" in2="effect1_dropShadow_36_1681" result="shape"/>
</filter>
<filter id="filter1_d_36_1681" x="25" y="28" width="142" height="130.583" filterUnits="userSpaceOnUse" color-interpolation-filters="sRGB">
<feFlood flood-opacity="0" result="BackgroundImageFix"/>
<feColorMatrix in="SourceAlpha" type="matrix" values="0 0 0 0 0 0 0 0 0 0 0 0 0 0 0 0 0 0 127 0" result="hardAlpha"/>
<feOffset/>
<feGaussianBlur stdDeviation="10"/>
<feComposite in2="hardAlpha" operator="out"/>
<feColorMatrix type="matrix" values="0 0 0 0 0 0 0 0 0 0 0 0 0 0 0 0 0 0 0.25 0"/>
<feBlend mode="normal" in2="BackgroundImageFix" result="effect1_dropShadow_36_1681"/>
<feBlend mode="normal" in="SourceGraphic" in2="effect1_dropShadow_36_1681" result="shape"/>
</filter>
<linearGradient id="paint0_linear_36_1681" x1="96" y1="19" x2="96" y2="167.397" gradientUnits="userSpaceOnUse">
<stop stop-color="#8852FC"/>
<stop offset="1" stop-color="#5651D6"/>
</linearGradient>
<clipPath id="clip0_36_1681">
<rect width="102" height="90.5826" fill="white" transform="translate(45 48)"/>
</clipPath>
</defs>
</svg>
