<svg width="192" height="186" viewBox="0 0 192 186" fill="none" xmlns="http://www.w3.org/2000/svg">
<g filter="url(#filter0_d_36_1701)">
<path d="M169.847 88.1294C172.262 91.0775 172.262 95.3202 169.847 98.2686L159.581 110.803C158.309 112.356 157.667 114.331 157.783 116.335L158.72 132.508C158.941 136.314 156.445 139.747 152.756 140.711L137.088 144.805C135.141 145.313 133.457 146.537 132.372 148.232L123.647 161.865C121.589 165.081 117.545 166.394 113.99 165.002L98.9181 159.097C97.0421 158.362 94.9579 158.362 93.0819 159.097L78.0095 165.002C74.4548 166.394 70.4114 165.081 68.3534 161.865L59.6278 148.232C58.5429 146.537 56.859 145.314 54.9118 144.805L39.2395 140.711C35.5499 139.747 33.0535 136.313 33.275 132.506L34.2159 116.336C34.3326 114.331 33.691 112.356 32.4184 110.802L22.1526 98.2687C19.7376 95.3202 19.738 91.0775 22.1534 88.1294L32.4176 75.6017C33.6906 74.048 34.3326 72.0722 34.2159 70.067L33.275 53.8932C33.0535 50.0855 35.5509 46.651 39.2414 45.6879L54.9089 41.5991C56.8579 41.0905 58.5432 39.8654 59.6284 38.1686L68.3478 24.5347C70.4051 21.3178 74.4492 20.0033 78.0048 21.3959L93.0822 27.3009C94.958 28.0356 97.042 28.0355 98.9177 27.3007L113.99 21.3961C117.545 20.0034 121.589 21.3171 123.646 24.5333L132.372 38.17C133.457 39.866 135.142 41.0904 137.09 41.5989L152.754 45.688C156.444 46.6511 158.941 50.0844 158.72 53.8912L157.783 70.0681C157.667 72.0727 158.309 74.0476 159.582 75.6008L169.847 88.1294Z" fill="url(#paint0_linear_36_1701)"/>
</g>
<g filter="url(#filter1_d_36_1701)">
<path d="M96 43C94.4479 43 93.1865 44.2614 93.1865 45.8135V54.568C93.1865 56.1201 94.4479 57.3815 96 57.3815C97.5521 57.3815 98.8135 56.1201 98.8135 54.568V45.8135C98.8135 44.2614 97.5521 43 96 43Z" fill="white"/>
<path d="M96 128.618C94.4479 128.618 93.1865 129.88 93.1865 131.432V140.187C93.1865 141.739 94.4479 143 96 143C97.5521 143 98.8135 141.739 98.8135 140.187V131.432C98.8135 129.88 97.5521 128.618 96 128.618V128.618Z" fill="white"/>
<path d="M143.186 90.1865H134.432C132.88 90.1865 131.618 91.4479 131.618 93C131.618 94.5521 132.88 95.8135 134.432 95.8135H143.186C144.739 95.8135 146 94.5521 146 93C146 91.4479 144.739 90.1865 143.186 90.1865Z" fill="white"/>
<path d="M57.568 90.1865H48.8135C47.2614 90.1865 46 91.4479 46 93C46 94.5521 47.2614 95.8135 48.8135 95.8135H57.568C59.1201 95.8135 60.3815 94.5521 60.3815 93C60.3815 91.4479 59.1201 90.1865 57.568 90.1865Z" fill="white"/>
<path d="M64.6252 57.6441C63.528 56.5468 61.7461 56.5468 60.6489 57.6441C59.5516 58.7414 59.5516 60.5232 60.6489 61.6205L66.8385 67.8101C67.3871 68.3587 68.1092 68.6354 68.8267 68.6354C69.5441 68.6354 70.2662 68.3587 70.8149 67.8101C71.9121 66.7128 71.9121 64.931 70.8149 63.8337L64.6252 57.6441V57.6441Z" fill="white"/>
<path d="M66.8336 118.185L60.644 124.375C59.5467 125.472 59.5467 127.254 60.644 128.351C61.1926 128.9 61.9147 129.176 62.6322 129.176C63.3496 129.176 64.0717 128.9 64.6204 128.351L70.81 122.162C71.9072 121.064 71.9072 119.282 70.81 118.185C69.7127 117.088 67.9309 117.088 66.8336 118.185V118.185Z" fill="white"/>
<path d="M131.356 57.6441C130.259 56.5468 128.477 56.5468 127.38 57.6441L121.19 63.8337C120.093 64.931 120.093 66.7128 121.19 67.8101C121.739 68.3587 122.461 68.6354 123.178 68.6354C123.895 68.6354 124.618 68.3587 125.166 67.8101L131.356 61.6205C132.453 60.5232 132.453 58.7414 131.356 57.6441V57.6441Z" fill="white"/>
</g>
<g filter="url(#filter2_d_36_1701)">
<path d="M99.0151 113.815C99.0151 103.874 105.856 95.504 115.08 93.1594C112.665 90.013 109.425 87.5372 105.678 86.0601C107.892 83.6921 109.251 80.5129 109.251 77.0101C109.251 69.6904 103.315 63.754 95.9953 63.754C88.6756 63.754 82.7392 69.6904 82.7392 77.0101C82.7392 80.5082 84.099 83.6874 86.3123 86.0601C78.1532 89.2768 72.3762 97.2249 72.3762 106.528C72.3762 110.673 75.7336 114.031 79.8788 114.031H99.0151C99.0151 113.956 99.0104 113.885 99.0104 113.81L99.0151 113.815Z" fill="white"/>
</g>
<g filter="url(#filter3_d_36_1701)">
<path d="M121.143 116.047V119.84C121.678 119.751 122.1 119.536 122.414 119.198C122.728 118.86 122.883 118.438 122.883 117.941C122.883 117.477 122.737 117.097 122.442 116.807C122.147 116.516 121.715 116.258 121.148 116.047H121.143Z" fill="white"/>
<path d="M117.828 109.581C117.828 110.026 117.964 110.401 118.24 110.701C118.517 111.006 118.911 111.273 119.431 111.503V107.789C118.934 107.879 118.54 108.071 118.254 108.366C117.968 108.662 117.828 109.065 117.828 109.581Z" fill="white"/>
<path d="M120.327 96.2589C110.63 96.2589 102.771 104.118 102.771 113.815C102.771 123.512 110.63 131.371 120.327 131.371C130.024 131.371 137.883 123.512 137.883 113.815C137.883 104.118 130.024 96.2589 120.327 96.2589V96.2589ZM126.901 120.502C126.395 121.332 125.644 122.007 124.655 122.532C123.666 123.057 122.493 123.348 121.138 123.4V125.566H119.427V123.376C117.537 123.217 116.013 122.649 114.855 121.679C113.697 120.708 113.082 119.386 113.012 117.712H117.879C117.987 118.781 118.503 119.465 119.431 119.77V115.545C118.043 115.189 116.932 114.842 116.102 114.504C115.272 114.167 114.545 113.623 113.922 112.872C113.298 112.122 112.984 111.1 112.984 109.796C112.984 108.174 113.584 106.875 114.789 105.895C115.994 104.915 117.537 104.362 119.427 104.24V102.073H121.138V104.24C123.009 104.38 124.486 104.924 125.574 105.872C126.662 106.814 127.267 108.127 127.394 109.801H122.503C122.395 108.84 121.94 108.216 121.138 107.93V112.075C122.615 112.483 123.759 112.849 124.561 113.173C125.363 113.491 126.081 114.026 126.714 114.762C127.347 115.503 127.661 116.511 127.661 117.796C127.661 118.776 127.408 119.681 126.901 120.511V120.502Z" fill="white"/>
</g>
<defs>
<filter id="filter0_d_36_1701" x="0.341553" y="0.844055" width="191.317" height="184.71" filterUnits="userSpaceOnUse" color-interpolation-filters="sRGB">
<feFlood flood-opacity="0" result="BackgroundImageFix"/>
<feColorMatrix in="SourceAlpha" type="matrix" values="0 0 0 0 0 0 0 0 0 0 0 0 0 0 0 0 0 0 127 0" result="hardAlpha"/>
<feOffset/>
<feGaussianBlur stdDeviation="10"/>
<feComposite in2="hardAlpha" operator="out"/>
<feColorMatrix type="matrix" values="0 0 0 0 0.533333 0 0 0 0 0.321569 0 0 0 0 0.988235 0 0 0 0.2 0"/>
<feBlend mode="normal" in2="BackgroundImageFix" result="effect1_dropShadow_36_1701"/>
<feBlend mode="normal" in="SourceGraphic" in2="effect1_dropShadow_36_1701" result="shape"/>
</filter>
<filter id="filter1_d_36_1701" x="26" y="23" width="140" height="140" filterUnits="userSpaceOnUse" color-interpolation-filters="sRGB">
<feFlood flood-opacity="0" result="BackgroundImageFix"/>
<feColorMatrix in="SourceAlpha" type="matrix" values="0 0 0 0 0 0 0 0 0 0 0 0 0 0 0 0 0 0 127 0" result="hardAlpha"/>
<feOffset/>
<feGaussianBlur stdDeviation="10"/>
<feComposite in2="hardAlpha" operator="out"/>
<feColorMatrix type="matrix" values="0 0 0 0 0 0 0 0 0 0 0 0 0 0 0 0 0 0 0.25 0"/>
<feBlend mode="normal" in2="BackgroundImageFix" result="effect1_dropShadow_36_1701"/>
<feBlend mode="normal" in="SourceGraphic" in2="effect1_dropShadow_36_1701" result="shape"/>
</filter>
<filter id="filter2_d_36_1701" x="52.3762" y="43.754" width="82.7039" height="90.2766" filterUnits="userSpaceOnUse" color-interpolation-filters="sRGB">
<feFlood flood-opacity="0" result="BackgroundImageFix"/>
<feColorMatrix in="SourceAlpha" type="matrix" values="0 0 0 0 0 0 0 0 0 0 0 0 0 0 0 0 0 0 127 0" result="hardAlpha"/>
<feOffset/>
<feGaussianBlur stdDeviation="10"/>
<feComposite in2="hardAlpha" operator="out"/>
<feColorMatrix type="matrix" values="0 0 0 0 0 0 0 0 0 0 0 0 0 0 0 0 0 0 0.25 0"/>
<feBlend mode="normal" in2="BackgroundImageFix" result="effect1_dropShadow_36_1701"/>
<feBlend mode="normal" in="SourceGraphic" in2="effect1_dropShadow_36_1701" result="shape"/>
</filter>
<filter id="filter3_d_36_1701" x="82.771" y="76.2589" width="75.1121" height="75.1121" filterUnits="userSpaceOnUse" color-interpolation-filters="sRGB">
<feFlood flood-opacity="0" result="BackgroundImageFix"/>
<feColorMatrix in="SourceAlpha" type="matrix" values="0 0 0 0 0 0 0 0 0 0 0 0 0 0 0 0 0 0 127 0" result="hardAlpha"/>
<feOffset/>
<feGaussianBlur stdDeviation="10"/>
<feComposite in2="hardAlpha" operator="out"/>
<feColorMatrix type="matrix" values="0 0 0 0 0 0 0 0 0 0 0 0 0 0 0 0 0 0 0.25 0"/>
<feBlend mode="normal" in2="BackgroundImageFix" result="effect1_dropShadow_36_1701"/>
<feBlend mode="normal" in="SourceGraphic" in2="effect1_dropShadow_36_1701" result="shape"/>
</filter>
<linearGradient id="paint0_linear_36_1701" x1="96" y1="19" x2="96" y2="167.397" gradientUnits="userSpaceOnUse">
<stop stop-color="#8852FC"/>
<stop offset="1" stop-color="#5651D6"/>
</linearGradient>
</defs>
</svg>
