<svg xmlns="http://www.w3.org/2000/svg" viewBox="0 0 32 40"><path d="M5.47,9.54h.65v4.07a1.75,1.75,0,0,0,1.77,1.73h6.86a1.74,1.74,0,0,0,1.76-1.73V9.54h10a1.88,1.88,0,1,0,0-3.75h-10v-4A1.75,1.75,0,0,0,14.75,0H7.89A1.75,1.75,0,0,0,6.12,1.74V5.79H5.47a1.88,1.88,0,1,0,0,3.75Z"/><path d="M30.14,20.16H1.86a1.83,1.83,0,0,0-1.7,2.57l4.35,9.61a1.67,1.67,0,0,1,.16.74v5.1A1.84,1.84,0,0,0,6.53,40H8.84a1.84,1.84,0,0,0,1.86-1.82,1.84,1.84,0,0,1,1.85-1.83h6.9a1.84,1.84,0,0,1,1.85,1.83A1.84,1.84,0,0,0,23.16,40h2.31a1.84,1.84,0,0,0,1.86-1.82v-5.1a1.73,1.73,0,0,1,.16-.74l4.35-9.61A1.83,1.83,0,0,0,30.14,20.16Z"/></svg>