<svg xmlns="http://www.w3.org/2000/svg" viewBox="0 0 40 40"><path d="M27.45,16.15a1.88,1.88,0,0,0-2.65,0l-8.64,8.64A1.88,1.88,0,0,0,17.49,28a1.83,1.83,0,0,0,1.32-.55l8.64-8.64A1.86,1.86,0,0,0,27.45,16.15Z"/><path d="M38,18.63,21.38,2.05a7.11,7.11,0,0,0-5-2H13.36a7.11,7.11,0,0,0-5,2.05L6.55,3.89,4.94,2.29A1.87,1.87,0,0,0,2.29,4.94L3.9,6.55,2.05,8.4a7.07,7.07,0,0,0-2,5v3.05a7.07,7.07,0,0,0,2.05,5L18.62,37.94a7,7,0,0,0,9.93,0L38,28.55A7,7,0,0,0,38,18.63ZM35.29,25.9,25.9,35.29a3.33,3.33,0,0,1-4.62,0L4.7,18.73a3.33,3.33,0,0,1-1-2.32V13.36a3.32,3.32,0,0,1,1-2.31L6.55,9.2l1.93,1.93L7.4,12.2a1.88,1.88,0,0,0,2.66,2.65l4.8-4.8A1.87,1.87,0,0,0,12.21,7.4L11.13,8.47,9.2,6.55,11,4.7a3.33,3.33,0,0,1,2.32-1h3.05a3.3,3.3,0,0,1,2.31,1L35.29,21.28A3.26,3.26,0,0,1,35.29,25.9Z"/><path d="M22.59,11.29a1.88,1.88,0,0,0-2.65,0l-8.65,8.64a1.88,1.88,0,0,0,0,2.65,1.88,1.88,0,0,0,2.66,0l8.64-8.64A1.88,1.88,0,0,0,22.59,11.29Z"/><path d="M29.67,21,21,29.65a1.88,1.88,0,0,0,2.66,2.65l8.64-8.63A1.88,1.88,0,0,0,29.67,21Z"/></svg>