<svg xmlns="http://www.w3.org/2000/svg" viewBox="0 0 40 40"><path d="M15.14,29a6.24,6.24,0,1,0-10.93,0A9.66,9.66,0,0,0,0,37a3,3,0,0,0,3,3h13.4a3,3,0,0,0,3-3A9.7,9.7,0,0,0,15.14,29ZM3.8,36.25a5.94,5.94,0,0,1,3-4.39A3,3,0,0,0,8.2,29.91a3,3,0,0,0-.55-2.45A2.41,2.41,0,0,1,7.18,26a2.45,2.45,0,0,1,.94-1.95,2.49,2.49,0,0,1,2.17-.47,2.47,2.47,0,0,1,1.82,1.85,2.53,2.53,0,0,1-.42,2l-.11.17a3.06,3.06,0,0,0-.41,2.28,2.92,2.92,0,0,0,1.41,1.94,5.9,5.9,0,0,1,3,4.38Z"/><path class="cls-1" d="M35.78,9.26a6.25,6.25,0,1,0-10.94,0,9.66,9.66,0,0,0-4.21,8,3,3,0,0,0,3,3H37a3,3,0,0,0,3-3A9.71,9.71,0,0,0,35.78,9.26ZM24.43,16.47a5.91,5.91,0,0,1,3-4.38,2.93,2.93,0,0,0,1.41-2,3,3,0,0,0-.55-2.44,2.47,2.47,0,0,1,.47-3.39,2.49,2.49,0,0,1,4,1.37,2.58,2.58,0,0,1-.41,2,1.61,1.61,0,0,0-.2.33,3.07,3.07,0,0,0-.32,2.12,2.9,2.9,0,0,0,1.42,1.93,6,6,0,0,1,3,4.38Z"/><path d="M31.64,23.15a2.07,2.07,0,0,0-3.05.4L25.17,27a1.88,1.88,0,1,0,2.65,2.66l.46-.46v2.78a4.2,4.2,0,0,1-4.19,4.19,1.88,1.88,0,0,0,0,3.76,8,8,0,0,0,7.94-8V28.86l.75.75a1.88,1.88,0,0,0,2.66,0,1.88,1.88,0,0,0,0-2.65Z"/></svg>