<svg width="56" height="56" viewBox="0 0 56 56" fill="none" xmlns="http://www.w3.org/2000/svg">
<rect width="56" height="56" fill="white"/>
<g clip-path="url(#clip0_15_1000)">
<path d="M32.9213 26.5353C34.0459 25.3108 34.7368 23.6667 34.7368 21.8552C34.7368 18.0699 31.7204 15 28.0012 15C24.2819 15 21.2656 18.0699 21.2656 21.8552C21.2656 23.6642 21.9565 25.3083 23.0811 26.5353C18.9354 28.1988 16 32.3091 16 37.1201C16 39.2638 17.7059 41 19.8122 41H36.1878C38.2941 41 40 39.2638 40 37.1201C40 32.3091 37.0646 28.1988 32.9189 26.5353H32.9213Z" fill="url(#paint0_linear_15_1000)"/>
<path d="M55.8129 31.1175L51.7945 24.1577C51.2674 23.245 49.9507 23.245 49.4236 24.1577L45.4052 31.1175C44.878 32.0303 45.5375 33.1712 46.5918 33.1712H48.6226C46.3339 42.8191 37.9571 49.9934 28.0012 49.9934C20.4458 49.9934 13.7986 45.8608 10.0335 39.6541C9.69807 39.1019 9.03403 38.8486 8.42249 39.054C7.59188 39.3323 7.23134 40.309 7.68543 41.0597C11.932 48.0674 19.4509 52.7339 28.0034 52.7339C39.47 52.7339 49.0813 44.3434 51.4317 33.1735H54.6309C55.6851 33.1735 56.3446 32.0326 55.8175 31.1198L55.8129 31.1175Z" fill="url(#paint1_linear_15_1000)"/>
<path d="M9.40825 22.5604H7.37736C9.66382 12.9126 18.0429 5.73827 27.9989 5.73827C35.5542 5.73827 42.2014 9.87079 45.9665 16.0775C46.3019 16.6298 46.966 16.8831 47.5775 16.6777C48.4081 16.3993 48.7687 15.4226 48.3146 14.6719C44.0725 7.66648 36.5514 3 27.9989 3C16.5323 3 6.92098 11.3905 4.57063 22.5604H1.37141C0.317176 22.5604 -0.342292 23.7014 0.184826 24.6141L4.20324 31.5739C4.73036 32.4867 6.04702 32.4867 6.57413 31.5739L10.5926 24.6141C11.1197 23.7014 10.4602 22.5604 9.40597 22.5604H9.40825Z" fill="url(#paint2_linear_15_1000)"/>
</g>
<defs>
<linearGradient id="paint0_linear_15_1000" x1="28" y1="15" x2="28" y2="41" gradientUnits="userSpaceOnUse">
<stop stop-color="#8852FC"/>
<stop offset="1" stop-color="#5651D6"/>
</linearGradient>
<linearGradient id="paint1_linear_15_1000" x1="31.7451" y1="23.4732" x2="31.7451" y2="52.7339" gradientUnits="userSpaceOnUse">
<stop stop-color="#8852FC"/>
<stop offset="1" stop-color="#5651D6"/>
</linearGradient>
<linearGradient id="paint2_linear_15_1000" x1="24.256" y1="3" x2="24.256" y2="32.2585" gradientUnits="userSpaceOnUse">
<stop stop-color="#8852FC"/>
<stop offset="1" stop-color="#5651D6"/>
</linearGradient>
<clipPath id="clip0_15_1000">
<rect width="56" height="49.7316" fill="white" transform="translate(0 3)"/>
</clipPath>
</defs>
</svg>
