<svg xmlns="http://www.w3.org/2000/svg" viewBox="0 0 30 40"><path d="M25.57,24.51s0,0,.05-.05c1.25-1.2,1.07-2.89.92-4.25a8.76,8.76,0,0,1-.08-1.32,6.72,6.72,0,0,1,1-.88C28.55,17.2,30,16.08,30,14.33s-1.44-2.84-2.49-3.64a6.91,6.91,0,0,1-1-.89,5.85,5.85,0,0,1,.06-1.4c.14-1.27.34-3-.93-4.22s-3-1-4.45-.88a8.41,8.41,0,0,1-1.38.08,6,6,0,0,1-.93-1C18,1.39,16.83,0,15,0s-3,1.37-3.82,2.38a6,6,0,0,1-.92,1,6.87,6.87,0,0,1-1.46,0C7.46,3.17,5.64,3,4.38,4.2S3.31,7.09,3.46,8.45a8.83,8.83,0,0,1,.08,1.32,6.2,6.2,0,0,1-1,.88C1.45,11.46,0,12.58,0,14.33S1.44,17.18,2.49,18a6.41,6.41,0,0,1,1,.88,5.85,5.85,0,0,1-.06,1.4c-.14,1.27-.34,3,.93,4.22h0L1.11,34.69a1.78,1.78,0,0,0,.38,1.75,2,2,0,0,0,1.74.64l3.87-.52,2.52,2.8a2,2,0,0,0,1.47.64,1.81,1.81,0,0,0,.4,0A1.91,1.91,0,0,0,13,38.69l2-6.3,2,6.3A1.93,1.93,0,0,0,18.46,40a1.75,1.75,0,0,0,.4,0,2,2,0,0,0,1.47-.64l2.53-2.8,3.86.52a2,2,0,0,0,1.74-.64,1.77,1.77,0,0,0,.38-1.74ZM4,14.33a9,9,0,0,1,.94-.78A6.29,6.29,0,0,0,7.11,11.2a6.09,6.09,0,0,0,.21-3.13,11.32,11.32,0,0,1-.09-1.16h0A10.94,10.94,0,0,1,8.38,7a7.22,7.22,0,0,0,3.35-.2,6.7,6.7,0,0,0,2.49-2.11A11,11,0,0,1,15,3.82a10.2,10.2,0,0,1,.82.9A6.48,6.48,0,0,0,18.27,6.8,7.08,7.08,0,0,0,21.56,7a9.83,9.83,0,0,1,1.21-.08c0,.32-.06.78-.09,1.1a6.06,6.06,0,0,0,.21,3.2,6.36,6.36,0,0,0,2.2,2.37,11.35,11.35,0,0,1,.91.75,10.59,10.59,0,0,1-.94.79,6.19,6.19,0,0,0-2.17,2.34,6.09,6.09,0,0,0-.21,3.13,11.32,11.32,0,0,1,.09,1.16h0c-.33,0-.81-.05-1.14-.08a7,7,0,0,0-3.35.2A6.59,6.59,0,0,0,15.78,24a11,11,0,0,1-.78.87,10.2,10.2,0,0,1-.82-.9,6.48,6.48,0,0,0-2.45-2.08A4.93,4.93,0,0,0,10,21.57a14.54,14.54,0,0,0-1.51.1,11.89,11.89,0,0,1-1.21.08c0-.32.06-.78.09-1.1a6.06,6.06,0,0,0-.21-3.2,6.36,6.36,0,0,0-2.2-2.37A11.35,11.35,0,0,1,4,14.33Zm6.27,20.06-.92-1a2,2,0,0,0-1.74-.62L5.72,33l2.44-7.58.68-.06a8.41,8.41,0,0,1,1.38-.08,6,6,0,0,1,.93,1,11.66,11.66,0,0,0,1.3,1.37Zm12.08-1.64a2,2,0,0,0-1.74.62l-.93,1-2.16-6.75a11,11,0,0,0,1.3-1.37,6,6,0,0,1,.92-1,6.86,6.86,0,0,1,1.46.05l.6.06L24.23,33Z"/></svg>