<svg xmlns="http://www.w3.org/2000/svg" viewBox="0 0 30 40"><path d="M26.54,14.14l-.94-.52s0,0,0,0V10.2A10.43,10.43,0,0,0,15,0,10.43,10.43,0,0,0,4.38,10.2v3.37s0,0,0,0l-.94.52A6.64,6.64,0,0,0,0,19.91v9a6.62,6.62,0,0,0,3.46,5.76l8.08,4.48a7.1,7.1,0,0,0,6.92,0l8.08-4.48A6.62,6.62,0,0,0,30,28.86V19.91A6.64,6.64,0,0,0,26.54,14.14ZM9,10.2a5.9,5.9,0,0,1,6-5.77,5.9,5.9,0,0,1,6,5.77v.87L18.46,9.66a7.15,7.15,0,0,0-6.92,0L9,11.07Zm8.15,15.18V29.7a2.15,2.15,0,0,1-4.3,0V25.38a4.44,4.44,0,0,1-2.49-3.92A4.56,4.56,0,0,1,15,17a4.56,4.56,0,0,1,4.64,4.46A4.44,4.44,0,0,1,17.15,25.38Z"/></svg>