<svg xmlns="http://www.w3.org/2000/svg" viewBox="0 0 121.44 70"><path d="M31.94,43.13a12.44,12.44,0,0,0,2.25-10.21,12.27,12.27,0,0,0-9.55-9.45A12.41,12.41,0,0,0,12.05,43,3.21,3.21,0,0,1,11,47.7,22.18,22.18,0,0,0,0,64.8,4.83,4.83,0,0,0,4.85,70H39.29a4.81,4.81,0,0,0,4.83-5.2A22.17,22.17,0,0,0,32.93,47.58a3,3,0,0,1-1-4.46Z" transform="translate(0)"/><path d="M109.26,43.13a12.44,12.44,0,0,0,2.25-10.21A12.26,12.26,0,0,0,102,23.47,12.42,12.42,0,0,0,89.37,43a3.2,3.2,0,0,1-1.05,4.75,22.14,22.14,0,0,0-11,17.1A4.82,4.82,0,0,0,82.15,70h34.44a4.81,4.81,0,0,0,4.83-5.2,22.17,22.17,0,0,0-11.19-17.22,3,3,0,0,1-1-4.46Z" transform="translate(0)"/><path d="M71,19.92A12.42,12.42,0,0,0,73.21,9.71,12.28,12.28,0,0,0,63.66.26,12.41,12.41,0,0,0,51.07,19.74a3.21,3.21,0,0,1-1,4.75,22.12,22.12,0,0,0-11,17.1,4.81,4.81,0,0,0,4.83,5.2H78.29a4.81,4.81,0,0,0,4.83-5.2A22.19,22.19,0,0,0,71.93,24.37a3,3,0,0,1-1-4.46Z" transform="translate(0)"/></svg>