<svg xmlns="http://www.w3.org/2000/svg" xmlns:xlink="http://www.w3.org/1999/xlink" width="351.44" height="515.03" viewBox="0 0 351.44 515.03"><defs><style>.cls-1,.cls-5,.cls-6{isolation:isolate;}.cls-2{mix-blend-mode:multiply;opacity:0.07;}.cls-3,.cls-4,.cls-5,.cls-6{fill-rule:evenodd;}.cls-4{fill:url(#linear-gradient);}.cls-5{fill:#5856d6;}.cls-5,.cls-6{opacity:0.2;}.cls-6{fill:#414199;}.cls-7{fill:#8b8bea;}.cls-8{fill:#746df0;}</style><linearGradient id="linear-gradient" x1="181.23" x2="181.23" y2="504" gradientUnits="userSpaceOnUse"><stop offset="0.24" stop-color="#746df0"/><stop offset="0.31" stop-color="#6c65ea"/><stop offset="0.56" stop-color="#564fd8"/><stop offset="0.79" stop-color="#4942ce"/><stop offset="1" stop-color="#443dca"/></linearGradient></defs><g class="cls-1"><g id="Layer_2" data-name="Layer 2"><g id="Layer_1-2" data-name="Layer 1"><g class="cls-2"><path class="cls-3" d="M276.05,11.05c-34.45,1-61.62,30-60.62,64.69a63.27,63.27,0,0,0,4.23,21c-1.2-.43-2.4-.76-3.61-1.14l-71-54.32a48.88,48.88,0,0,0-17.77-8.62L48.63,12.2A39.6,39.6,0,0,0,5.74,71.29,39,39,0,0,0,30,89.21l68.62,17.47a11,11,0,0,1,3.37,1.56l32.44,24.63L41.89,230.61h0l0,.06h0a42.73,42.73,0,0,0,2.47,60.74v.06l2.23,1.9a.83.83,0,0,0,.22.15l91.66,77.37.26.2c3.42,3.62,6.4,7.9,6.54,13l2.58,89.57a42.24,42.24,0,1,0,84.44-2.43l-3.07-115.79A38.37,38.37,0,0,0,216,327.65l-51-42.87,79.54-82.54A66.33,66.33,0,0,0,258,133.52a61.42,61.42,0,0,0,21.77,3.31c34.45-1,61.61-30,60.61-64.68s-29.88-62.09-64.33-61.1"/></g><path class="cls-4" d="M287.08,0c-34.45,1-61.62,30-60.62,64.68a63.22,63.22,0,0,0,4.23,21c-1.2-.43-2.41-.76-3.61-1.14l-71-54.32a48.9,48.9,0,0,0-17.78-8.61L59.65,1.17A39.6,39.6,0,0,0,16.76,60.26,39,39,0,0,0,41,78.18L109.6,95.65A11.21,11.21,0,0,1,113,97.21l32.44,24.63L52.92,219.59h0l-.05,0h0a42.74,42.74,0,0,0,2.47,60.75v.05l2.23,1.9a.6.6,0,0,0,.21.15l91.66,77.37.27.2c3.42,3.62,6.39,7.9,6.54,13l2.58,89.57a42.24,42.24,0,1,0,84.44-2.42L240.2,344.45a38.44,38.44,0,0,0-13.14-27.83l-51-42.86,79.55-82.55A66.35,66.35,0,0,0,269,122.49a61.36,61.36,0,0,0,21.76,3.31c34.45-1,61.62-30,60.62-64.68S321.52-1,287.08,0"/><path id="Fill-11" class="cls-5" d="M264.55,119.46l-39-35.85,2.69,1.53s-11.69-24.19,3-52.66c0,0,9.95-21.59,32.33-29.55C263.48,2.93,202.51,42.54,264.55,119.46Z"/><path id="Fill-13" class="cls-6" d="M257.5,191.68l-81.36,82.85-30.2-24.33c11.87,6.92,26.76,14.58,44.44.12l67.12-58.64"/><path id="Fill-14" class="cls-5" d="M185.37,142.37,115.9,88.58A7.74,7.74,0,0,0,112.63,87L43,68.84C14.52,57.53,11.7,32.07,11.74,30c-.24.84-.52,1.63-.76,2.51-2.5,10.34.29,20.25,5.74,29.32s15.82,15,26,17.5L109.06,96a11.1,11.1,0,0,1,3.36,1.56l32.44,24.63-15.19,15.66Z"/><path id="Path-3-Copy" class="cls-7" d="M62,9.09a3.22,3.22,0,1,1,1.64-6.22L138.15,22.3a47.33,47.33,0,0,1,16.78,8.17l71.94,55.12a3.25,3.25,0,0,1-4,5.15L151,35.56a41.55,41.55,0,0,0-14.46-7.1Z"/><path id="Path-4-Copy" class="cls-8" d="M172.83,279.92A3.23,3.23,0,0,1,177,275l49.52,41.77a35.65,35.65,0,0,1,12.62,26.13l3.37,117.34a3.21,3.21,0,1,1-6.42.18L232.71,343a29.17,29.17,0,0,0-10.31-21.37Z"/><path id="Oval-Copy" class="cls-7" d="M346.71,85.75a3.2,3.2,0,0,1-4,2.09,3.15,3.15,0,0,1-2.08-4c5.13-16.27,4.55-31.65-2.59-45.6-6.65-13-20-24.18-35.25-29.5a3.21,3.21,0,1,1,2.11-6.07c17.34,5.45,31.54,17.16,39,31.67C353.26,53.76,352.71,67.76,346.71,85.75Z"/><path id="Fill-12" class="cls-5" d="M51.9,277.27l93.71,79.54A24.94,24.94,0,0,1,156,376.65l2.82,86s-.12,35.52,38.88,41.21c0,0-25.73-6.4-26.72-40.95L168.49,376c-.56-19.37-10.5-26.19-10.5-26.19L56.76,280.11Z"/></g></g></g></svg>